<?xml version="1.0" encoding="UTF-8"?>
<svg width="58px" height="38px" viewBox="0 0 58 38" version="1.1" xmlns="http://www.w3.org/2000/svg" xmlns:xlink="http://www.w3.org/1999/xlink">
    <title>切片</title>
    <g id="页面-1" stroke="none" stroke-width="1" fill="none" fill-rule="evenodd">
        <g id="6实时监控-储能箱1.1" transform="translate(-523.000000, -447.000000)">
            <g id="编组-2" transform="translate(216.000000, 322.000000)">
                <g id="list/储能箱信息备份" transform="translate(207.000000, 64.000000)">
                    <g id="img/设备状态" transform="translate(79.000000, 48.000000)">
                        <g id="img/设备/外壳-绿" transform="translate(21.000000, 13.000000)">
                            <g id="设备" opacity="0.300000012" transform="translate(0.000000, 5.590000)">
                                <polygon id="矩形" fill="#BFEEFF" points="4.55342161e-13 6.76550232 42.7224747 18.0697415 42.577366 29.7010012 -1.5178072e-13 18.8141666"></polygon>
                                <polygon id="矩形" fill="#0E68A9" points="42.577366 17.8897012 50.7293232 10.4053667 50.7293232 22.275991 42.577366 29.7010012"></polygon>
                                <path d="M43.9863471,17.9916924 L43.9863471,27.0370424 L43.5451895,27.4576231 L43.5451895,18.4122731 L43.9863471,17.9916924 Z M44.7080269,17.2907245 L44.7080269,26.3360745 L44.2668693,26.7566552 L44.2668693,17.7113052 L44.7080269,17.2907245 Z M45.4432895,16.5897566 L45.4432895,25.6351066 L45.0021319,26.0556874 L45.0021319,17.0103373 L45.4432895,16.5897566 Z M46.1785522,15.8887887 L46.1785522,24.9341387 L45.7373946,25.3547195 L45.7373946,16.3093695 L46.1785522,15.8887887 Z M46.9138148,15.1878208 L46.9138148,24.2331709 L46.4726572,24.6537516 L46.4726572,15.6084016 L46.9138148,15.1878208 Z M47.6490775,14.486853 L47.6490775,23.532203 L47.2079199,23.9527837 L47.2079199,14.9074337 L47.6490775,14.486853 Z M48.3843401,13.7858851 L48.3843401,22.8312351 L47.9431825,23.2518158 L47.9431825,14.2064658 L48.3843401,13.7858851 Z M49.1196028,13.0849172 L49.1196028,22.1302672 L48.6784452,22.550848 L48.6784452,13.5054979 L49.1196028,13.0849172 Z M49.8548654,12.3839493 L49.8548654,21.4292994 L49.4137078,21.8498801 L49.4137078,12.8045301 L49.8548654,12.3839493 Z" id="形状结合" fill="#EDEDED" opacity="0.5"></path>
                                <path d="M40.4531511,18.8355673 L40.4531511,28.0593442 L40.9895478,28.1995768 L40.9895478,18.9757999 L40.4531511,18.8355673 Z M39.5591564,18.6018463 L39.5591564,27.8256232 L40.0955532,27.9658558 L40.0955532,18.7420789 L39.5591564,18.6018463 Z M38.6651618,18.3681252 L38.6651618,27.5919022 L39.2015586,27.7321348 L39.2015586,18.5083579 L38.6651618,18.3681252 Z M37.7711671,18.1344042 L37.7711671,27.3581812 L38.3075639,27.4984138 L38.3075639,18.2746368 L37.7711671,18.1344042 Z M36.8771725,17.9006832 L36.8771725,27.1244602 L37.4135693,27.2646928 L37.4135693,18.0409158 L36.8771725,17.9006832 Z M35.9831778,17.6669622 L35.9831778,26.8907392 L36.5195746,27.0309718 L36.5195746,17.8071948 L35.9831778,17.6669622 Z M35.0891832,17.4332412 L35.0891832,26.6570182 L35.62558,26.7972508 L35.62558,17.5734738 L35.0891832,17.4332412 Z M34.1951885,17.1995202 L34.1951885,26.4232972 L34.7315853,26.5635298 L34.7315853,17.3397528 L34.1951885,17.1995202 Z M33.3011939,16.9657992 L33.3011939,26.1895762 L33.8375907,26.3298088 L33.8375907,17.1060318 L33.3011939,16.9657992 Z M32.4071992,16.7320782 L32.4071992,25.9558552 L32.943596,26.0960878 L32.943596,16.8723108 L32.4071992,16.7320782 Z M31.5132046,16.4983572 L31.5132046,25.7221342 L32.0496014,25.8623668 L32.0496014,16.6385898 L31.5132046,16.4983572 Z M30.61921,16.2646362 L30.61921,25.4884132 L31.1556067,25.6286458 L31.1556067,16.4048688 L30.61921,16.2646362 Z M29.7252153,16.0309152 L29.7252153,25.2546922 L30.2616121,25.3949248 L30.2616121,16.1711478 L29.7252153,16.0309152 Z M28.8312207,15.7971942 L28.8312207,25.0209712 L29.3676175,25.1612038 L29.3676175,15.9374268 L28.8312207,15.7971942 Z M27.937226,15.5634732 L27.937226,24.7872501 L28.4736228,24.9274828 L28.4736228,15.7037058 L27.937226,15.5634732 Z M27.0432314,15.3297522 L27.0432314,24.5535291 L27.5796282,24.6937617 L27.5796282,15.4699848 L27.0432314,15.3297522 Z M26.1492367,15.0960312 L26.1492367,24.3198081 L26.6856335,24.4600407 L26.6856335,15.2362638 L26.1492367,15.0960312 Z M25.2552421,14.8623102 L25.2552421,24.0860871 L25.7916389,24.2263197 L25.7916389,15.0025428 L25.2552421,14.8623102 Z M24.3612474,14.6285892 L24.3612474,23.8523661 L24.8976442,23.9925987 L24.8976442,14.7688218 L24.3612474,14.6285892 Z M23.4672528,14.3948682 L23.4672528,23.6186451 L24.0036496,23.7588777 L24.0036496,14.5351008 L23.4672528,14.3948682 Z M22.5732581,14.1611471 L22.5732581,23.3849241 L23.1096549,23.5251567 L23.1096549,14.3013798 L22.5732581,14.1611471 Z M21.6792635,13.9274261 L21.6792635,23.1512031 L22.2156603,23.2914357 L22.2156603,14.0676587 L21.6792635,13.9274261 Z M20.7852689,13.6937051 L20.7852689,22.9174821 L21.3216656,23.0577147 L21.3216656,13.8339377 L20.7852689,13.6937051 Z M19.8912742,13.4599841 L19.8912742,22.6837611 L20.427671,22.8239937 L20.427671,13.6002167 L19.8912742,13.4599841 Z M18.9972796,13.2262631 L18.9972796,22.4500401 L19.5336764,22.5902727 L19.5336764,13.3664957 L18.9972796,13.2262631 Z M18.1032849,12.9925421 L18.1032849,22.2163191 L18.6396817,22.3565517 L18.6396817,13.1327747 L18.1032849,12.9925421 Z" id="形状结合" fill="#8AC8EA"></path>
                                <path d="M23.4672528,14.3948682 L23.4672528,23.6186451 L24.0036496,23.7588777 L24.0036496,14.5351008 L23.4672528,14.3948682 Z M22.5732581,14.1611471 L22.5732581,23.3849241 L23.1096549,23.5251567 L23.1096549,14.3013798 L22.5732581,14.1611471 Z M21.6792635,13.9274261 L21.6792635,23.1512031 L22.2156603,23.2914357 L22.2156603,14.0676587 L21.6792635,13.9274261 Z M20.7852689,13.6937051 L20.7852689,22.9174821 L21.3216656,23.0577147 L21.3216656,13.8339377 L20.7852689,13.6937051 Z M19.8912742,13.4599841 L19.8912742,22.6837611 L20.427671,22.8239937 L20.427671,13.6002167 L19.8912742,13.4599841 Z M18.9972796,13.2262631 L18.9972796,22.4500401 L19.5336764,22.5902727 L19.5336764,13.3664957 L18.9972796,13.2262631 Z M18.1032849,12.9925421 L18.1032849,22.2163191 L18.6396817,22.3565517 L18.6396817,13.1327747 L18.1032849,12.9925421 Z M17.2092903,12.7588211 L17.2092903,21.9825981 L17.7456871,22.1228307 L17.7456871,12.8990537 L17.2092903,12.7588211 Z M16.3152956,12.5251001 L16.3152956,21.7488771 L16.8516924,21.8891097 L16.8516924,12.6653327 L16.3152956,12.5251001 Z M15.421301,12.2913791 L15.421301,21.5151561 L15.9576978,21.6553887 L15.9576978,12.4316117 L15.421301,12.2913791 Z M14.5273063,12.0576581 L14.5273063,21.2814351 L15.0637031,21.4216677 L15.0637031,12.1978907 L14.5273063,12.0576581 Z M13.6333117,11.8239371 L13.6333117,21.0477141 L14.1697085,21.1879467 L14.1697085,11.9641697 L13.6333117,11.8239371 Z M12.739317,11.5902161 L12.739317,20.8139931 L13.2757138,20.9542257 L13.2757138,11.7304487 L12.739317,11.5902161 Z M11.8453224,11.3564951 L11.8453224,20.580272 L12.3817192,20.7205047 L12.3817192,11.4967277 L11.8453224,11.3564951 Z M10.9513278,11.1227741 L10.9513278,20.346551 L11.4877245,20.4867836 L11.4877245,11.2630067 L10.9513278,11.1227741 Z M10.0573331,10.8890531 L10.0573331,20.11283 L10.5937299,20.2530626 L10.5937299,11.0292857 L10.0573331,10.8890531 Z M9.16333846,10.6553321 L9.16333846,19.879109 L9.69973525,20.0193416 L9.69973525,10.7955647 L9.16333846,10.6553321 Z M8.26934382,10.4216111 L8.26934382,19.645388 L8.80574061,19.7856206 L8.80574061,10.5618437 L8.26934382,10.4216111 Z M7.37534917,10.1878901 L7.37534917,19.411667 L7.91174596,19.5518996 L7.91174596,10.3281227 L7.37534917,10.1878901 Z M6.48135453,9.95416905 L6.48135453,19.177946 L7.01775131,19.3181786 L7.01775131,10.0944017 L6.48135453,9.95416905 Z M5.58735988,9.72044804 L5.58735988,18.944225 L6.12375667,19.0844576 L6.12375667,9.86068064 L5.58735988,9.72044804 Z M4.69336524,9.48672704 L4.69336524,18.710504 L5.22976202,18.8507366 L5.22976202,9.62695964 L4.69336524,9.48672704 Z M3.79937059,9.25300603 L3.79937059,18.476783 L4.33576738,18.6170156 L4.33576738,9.39323863 L3.79937059,9.25300603 Z M2.90537595,9.01928502 L2.90537595,18.243062 L3.44177273,18.3832946 L3.44177273,9.15951763 L2.90537595,9.01928502 Z M2.0113813,8.78556402 L2.0113813,18.009341 L2.54777809,18.1495736 L2.54777809,8.92579662 L2.0113813,8.78556402 Z M1.11738665,8.55184301 L1.11738665,17.77562 L1.65378344,17.9158526 L1.65378344,8.69207562 L1.11738665,8.55184301 Z" id="形状结合备份" fill="#8AC8EA"></path>
                                <polygon id="路径-52" fill="#8AC9EA" points="0 6.76550232 9.43153686 -2.38449069e-14 50.7293232 10.4053667 42.577366 17.9916924"></polygon>
                            </g>
                            <rect id="矩形" x="0" y="0" width="58" height="38"></rect>
                        </g>
                    </g>
                </g>
            </g>
        </g>
    </g>
</svg>