<?xml version="1.0" encoding="UTF-8"?>
<svg width="116px" height="116px" viewBox="0 0 116 116" version="1.1" xmlns="http://www.w3.org/2000/svg" xmlns:xlink="http://www.w3.org/1999/xlink">
    <title>编组 14备份</title>
    <defs>
        <linearGradient x1="50%" y1="0%" x2="50%" y2="100%" id="linearGradient-1">
            <stop stop-color="#E1EBF5" offset="0%"></stop>
            <stop stop-color="#0EA944" offset="100%"></stop>
        </linearGradient>
        <ellipse id="path-2" cx="58.5" cy="21.7676056" rx="46.5" ry="21.5"></ellipse>
        <linearGradient x1="-25.1709481%" y1="0%" x2="77.6322676%" y2="87.4410787%" id="linearGradient-3">
            <stop stop-color="#C5EAD2" offset="0%"></stop>
            <stop stop-color="#0EA944" offset="100%"></stop>
        </linearGradient>
    </defs>
    <g id="页面-1" stroke="none" stroke-width="1" fill="none" fill-rule="evenodd">
        <g id="登陆" transform="translate(-902.000000, -766.000000)">
            <g id="编组-14备份" transform="translate(902.000000, 766.000000)">
                <rect id="矩形" x="0" y="0" width="116" height="116"></rect>
                <g id="编组-4" transform="translate(0.000000, 54.732394)">
                    <ellipse id="椭圆形备份-2" fill-opacity="0.399622137" fill="#CEF8DD" cx="58" cy="33.7676056" rx="58" ry="27.5"></ellipse>
                    <path d="M58.5,7.26760563 C79.0753942,7.26760563 96.5295833,13.4464132 102.656633,22.0098864 L105,22.0104628 L105,29.3818913 L104.981355,29.3823955 C104.277531,40.9722122 83.7365346,50.2676056 58.5,50.2676056 C33.2634654,50.2676056 12.7224693,40.9722122 12.0186451,29.3823955 L12,29.3818913 L12,22.0104628 L14.3433674,22.0098864 C20.4704167,13.4464132 37.9246058,7.26760563 58.5,7.26760563 Z" id="形状结合" fill="#B9F6CF"></path>
                    <g id="椭圆形">
                        <use fill="url(#linearGradient-1)" xlink:href="#path-2"></use>
                        <use fill="#CEF8DD" xlink:href="#path-2"></use>
                    </g>
                    <ellipse id="椭圆形" fill="#ACEBC3" cx="78" cy="24.7676056" rx="23" ry="2.5"></ellipse>
                </g>
                <path d="M78,36 C79.1045695,36 80,36.8954305 80,38 L80,76 C80,77.1045695 79.1045695,78 78,78 L44,78 C42.8954305,78 42,77.1045695 42,76 L42,38 C42,36.8954305 42.8954305,36 44,36 L78,36 Z M76,40 L46,40 L46,74 L76,74 L76,40 Z M68,52 C69.1045695,52 70,52.8954305 70,54 L70,60 C70,61.1045695 69.1045695,62 68,62 C66.8954305,62 66,61.1045695 66,60 L66,54 C66,52.8954305 66.8954305,52 68,52 Z M49.5,53 L56.5,53 C57.3284271,53 58,53.6715729 58,54.5 C58,55.3284271 57.3284271,56 56.5,56 L49.5,56 C48.6715729,56 48,55.3284271 48,54.5 C48,53.6715729 48.6715729,53 49.5,53 Z M49.5,58 L56.5,58 C57.3284271,58 58,58.6715729 58,59.5 C58,60.3284271 57.3284271,61 56.5,61 L49.5,61 C48.6715729,61 48,60.3284271 48,59.5 C48,58.6715729 48.6715729,58 49.5,58 Z M63,38 C64.1045695,38 65,38.8954305 65,40 L65,76 C65,77.1045695 64.1045695,78 63,78 C61.8954305,78 61,77.1045695 61,76 L61,40 C61,38.8954305 61.8954305,38 63,38 Z M57,42 C57.5522847,42 58,42.4477153 58,43 L58,50 C58,50.5522847 57.5522847,51 57,51 L49,51 C48.4477153,51 48,50.5522847 48,50 L48,43 C48,42.4477153 48.4477153,42 49,42 L57,42 Z" id="形状结合" fill="#96ECB5" fill-rule="nonzero"></path>
                <path d="M76,38 C77.1045695,38 78,38.8954305 78,40 L78,78 C78,79.1045695 77.1045695,80 76,80 L42,80 C40.8954305,80 40,79.1045695 40,78 L40,40 C40,38.8954305 40.8954305,38 42,38 L76,38 Z M74,42 L44,42 L44,76 L74,76 L74,42 Z M66,54 C67.1045695,54 68,54.8954305 68,56 L68,62 C68,63.1045695 67.1045695,64 66,64 C64.8954305,64 64,63.1045695 64,62 L64,56 C64,54.8954305 64.8954305,54 66,54 Z M47.5,55 L54.5,55 C55.3284271,55 56,55.6715729 56,56.5 C56,57.3284271 55.3284271,58 54.5,58 L47.5,58 C46.6715729,58 46,57.3284271 46,56.5 C46,55.6715729 46.6715729,55 47.5,55 Z M47.5,60 L54.5,60 C55.3284271,60 56,60.6715729 56,61.5 C56,62.3284271 55.3284271,63 54.5,63 L47.5,63 C46.6715729,63 46,62.3284271 46,61.5 C46,60.6715729 46.6715729,60 47.5,60 Z M61,40 C62.1045695,40 63,40.8954305 63,42 L63,78 C63,79.1045695 62.1045695,80 61,80 C59.8954305,80 59,79.1045695 59,78 L59,42 C59,40.8954305 59.8954305,40 61,40 Z M55,44 C55.5522847,44 56,44.4477153 56,45 L56,52 C56,52.5522847 55.5522847,53 55,53 L47,53 C46.4477153,53 46,52.5522847 46,52 L46,45 C46,44.4477153 46.4477153,44 47,44 L55,44 Z" id="形状结合备份" fill="url(#linearGradient-3)" fill-rule="nonzero"></path>
            </g>
        </g>
    </g>
</svg>