<?xml version="1.0" encoding="UTF-8"?>
<svg width="16px" height="16px" viewBox="0 0 16 16" version="1.1" xmlns="http://www.w3.org/2000/svg" xmlns:xlink="http://www.w3.org/1999/xlink">
    <title>切片</title>
    <g id="页面-1" stroke="none" stroke-width="1" fill="none" fill-rule="evenodd">
        <g id="登陆" transform="translate(-1520.000000, -634.000000)">
            <g id="编组-12" transform="translate(1464.000000, 632.000000)">
                <g id="icon/24/首页备份" transform="translate(64.000000, 10.000000) scale(-1, 1) rotate(90.000000) translate(-64.000000, -10.000000) translate(56.000000, 2.000000)">
                    <rect id="矩形" x="0" y="0" width="16" height="16"></rect>
                    <path d="M6.98949386,12 C6.90685737,12 6.82422087,11.9719735 6.76125973,11.9157409 C6.63513565,11.8034553 6.63513565,11.6215526 6.76125973,11.5092669 L9.95421696,7.99997754 L6.76125973,4.49068815 C6.63513565,4.37840253 6.63513565,4.19649983 6.76125973,4.08421421 C6.88738381,3.9719286 7.09170482,3.9719286 7.2178289,4.08421421 L10.5250041,7.69518946 C10.7138875,7.8633484 10.7138875,8.13678634 10.5250041,8.30494528 L7.217728,11.9157409 C7.15476686,11.9718837 7.07213036,12 6.98949386,12 Z M10.099353,8.14708215 L10.130353,8.14708215 L10.099353,8.14708215 Z" id="形状" stroke="#6B6B6B" stroke-width="0.3" fill="#6B6B6B" fill-rule="nonzero" transform="translate(8.666667, 8.000000) rotate(90.000000) translate(-8.666667, -8.000000) "></path>
                </g>
            </g>
        </g>
    </g>
</svg>