<?xml version="1.0" encoding="UTF-8"?>
<svg width="24px" height="24px" viewBox="0 0 24 24" version="1.1" xmlns="http://www.w3.org/2000/svg" xmlns:xlink="http://www.w3.org/1999/xlink">
    <title>icon-通知</title>
    <g id="页面-1" stroke="none" stroke-width="1" fill="none" fill-rule="evenodd">
        <g id="登陆" transform="translate(-384.000000, -630.000000)">
            <g id="icon-通知" transform="translate(384.000000, 630.000000)">
                <rect id="矩形" x="0" y="0" width="24" height="24"></rect>
                <path d="M15.4194376,4.59875803 C15.5460627,4.80127938 15.6132382,5.03531379 15.6132382,5.27416302 L15.6132382,18.7256624 C15.6132382,19.1889084 15.3619147,19.615685 14.9567451,19.8402583 C14.5515755,20.0648316 14.0564449,20.0518176 13.6636318,19.8062703 L8.51301486,16.5870466 L5.78400587,16.5870466 C4.79872664,16.5870466 4,15.7883167 4,14.8030334 L4,9.196792 C4,8.21150872 4.79872664,7.41277882 5.78400587,7.41277882 L8.51301486,7.41277882 L13.6636318,4.19375504 C13.9502179,4.01459748 14.2962412,3.95663836 14.6255647,4.03263064 C14.9548883,4.10862292 15.2405295,4.3123403 15.4196376,4.59895804 L15.4194376,4.59875803 Z" id="路径" stroke="#333333" stroke-linejoin="round" fill-rule="nonzero"></path>
                <path d="M18.8033009,17.9246212 C19.80871,16.5170485 20.4305684,14.5725048 20.4305684,12.4246212 C20.4305684,10.2767376 19.80871,8.33219395 18.8033009,6.9246212" id="路径" stroke="#333333" stroke-linecap="round"></path>
            </g>
        </g>
    </g>
</svg>