<?xml version="1.0" encoding="UTF-8"?>
<svg width="116px" height="116px" viewBox="0 0 116 116" version="1.1" xmlns="http://www.w3.org/2000/svg" xmlns:xlink="http://www.w3.org/1999/xlink">
    <title>编组 14备份 2</title>
    <defs>
        <linearGradient x1="50%" y1="0%" x2="50%" y2="100%" id="linearGradient-1">
            <stop stop-color="#E1EBF5" offset="0%"></stop>
            <stop stop-color="#0EA944" offset="100%"></stop>
        </linearGradient>
        <ellipse id="path-2" cx="58.5" cy="76.5" rx="46.5" ry="21.5"></ellipse>
        <linearGradient x1="-41.82933%" y1="19.4380165%" x2="83.7557619%" y2="72.8854726%" id="linearGradient-3">
            <stop stop-color="#C5EAD2" offset="0%"></stop>
            <stop stop-color="#0EA944" offset="100%"></stop>
        </linearGradient>
    </defs>
    <g id="页面-1" stroke="none" stroke-width="1" fill="none" fill-rule="evenodd">
        <g id="登陆" transform="translate(-1307.000000, -766.000000)">
            <g id="编组-14备份-2" transform="translate(1307.000000, 766.000000)">
                <g id="编组-4">
                    <rect id="矩形" x="0" y="0" width="116" height="116"></rect>
                    <ellipse id="椭圆形备份-2" fill-opacity="0.399622137" fill="#CEF8DD" cx="58" cy="88.5" rx="58" ry="27.5"></ellipse>
                    <path d="M58.5,62 C79.0753942,62 96.5295833,68.1788075 102.656633,76.7422807 L105,76.7428571 L105,84.1142857 L104.981355,84.1147898 C104.277531,95.7046065 83.7365346,105 58.5,105 C33.2634654,105 12.7224693,95.7046065 12.0186451,84.1147898 L12,84.1142857 L12,76.7428571 L14.3433674,76.7422807 C20.4704167,68.1788075 37.9246058,62 58.5,62 Z" id="形状结合" fill="#B9F6CF"></path>
                    <g id="椭圆形">
                        <use fill="url(#linearGradient-1)" xlink:href="#path-2"></use>
                        <use fill="#CEF8DD" xlink:href="#path-2"></use>
                    </g>
                    <ellipse id="椭圆形" fill="#ACEBC3" cx="78" cy="79.5" rx="23" ry="2.5"></ellipse>
                </g>
                <g id="编组-15" transform="translate(33.000000, 35.000000)" fill-rule="nonzero">
                    <path d="M31.749412,1.8771368 L31.7544941,2.02301898 L31.754,8.805 L47.8497124,12.9669721 L48.0042104,13.0135317 C48.7620309,13.275211 49.2943987,13.9631243 49.3579844,14.7628468 L49.3643791,14.924189 L49.364,38.957 L54.9799727,38.9570013 C56.095603,38.9570013 57,39.8620574 57,40.9785006 C57,42.0441965 56.1759523,42.9172854 55.1307297,42.9944553 L54.9799727,43 L4.02002729,43 C2.90439703,43 2,42.0949439 2,40.9785006 C2,39.9128048 2.8240477,39.0397159 3.86927029,38.962546 L4.02002729,38.9570013 L10.104,38.957 L10.1045545,7.8184676 C10.1045545,6.99992345 10.5968783,6.26809906 11.3413373,5.95506857 L11.4935198,5.89814478 L29.1034048,0.102696156 C30.3632688,-0.311927643 31.6585023,0.578877487 31.749412,1.8771368 Z M27.7136309,4.81470958 L14.1440976,9.28121241 L14.144,38.957 L27.714,38.957 L27.7136309,4.81470958 Z M31.7545897,12.9805562 L31.754,38.957 L45.324,38.957 L45.325133,16.4898791 L31.7545897,12.9805562 Z M23.7128371,25.7756364 C24.5412643,25.7756364 25.2128371,26.4472093 25.2128371,27.2756364 L25.2128371,27.3078854 C25.2128371,28.1363125 24.5412643,28.8078854 23.7128371,28.8078854 L17.6227143,28.8078854 C16.7942872,28.8078854 16.1227143,28.1363125 16.1227143,27.3078854 L16.1227143,27.2756364 C16.1227143,26.4472093 16.7942872,25.7756364 17.6227143,25.7756364 L23.7128371,25.7756364 Z M41.8930828,22.7433874 C42.7215099,22.7433874 43.3930828,23.4149602 43.3930828,24.2433874 L43.3930828,24.2756364 C43.3930828,25.1040635 42.7215099,25.7756364 41.8930828,25.7756364 L35.80296,25.7756364 C34.9745328,25.7756364 34.30296,25.1040635 34.30296,24.2756364 L34.30296,24.2433874 C34.30296,23.4149602 34.9745328,22.7433874 35.80296,22.7433874 L41.8930828,22.7433874 Z M23.7128371,16.6788893 C24.5412643,16.6788893 25.2128371,17.3504622 25.2128371,18.1788893 L25.2128371,18.2111383 C25.2128371,19.0395654 24.5412643,19.7111383 23.7128371,19.7111383 L17.6227143,19.7111383 C16.7942872,19.7111383 16.1227143,19.0395654 16.1227143,18.2111383 L16.1227143,18.1788893 C16.1227143,17.3504622 16.7942872,16.6788893 17.6227143,16.6788893 L23.7128371,16.6788893 Z" id="形状结合" fill="#96ECB5"></path>
                    <path d="M29.749412,3.8771368 L29.7544941,4.02301898 L29.754,10.805 L45.8497124,14.9669721 L46.0042104,15.0135317 C46.7620309,15.275211 47.2943987,15.9631243 47.3579844,16.7628468 L47.3643791,16.924189 L47.364,40.957 L52.9799727,40.9570013 C54.095603,40.9570013 55,41.8620574 55,42.9785006 C55,44.0441965 54.1759523,44.9172854 53.1307297,44.9944553 L52.9799727,45 L2.02002729,45 C0.904397025,45 0,44.0949439 0,42.9785006 C0,41.9128048 0.824047703,41.0397159 1.86927029,40.962546 L2.02002729,40.9570013 L8.104,40.957 L8.10455449,9.8184676 C8.10455449,8.99992345 8.59687826,8.26809906 9.34133731,7.95506857 L9.49351976,7.89814478 L27.1034048,2.10269616 C28.3632688,1.68807236 29.6585023,2.57887749 29.749412,3.8771368 Z M25.7136309,6.81470958 L12.1440976,11.2812124 L12.144,40.957 L25.714,40.957 L25.7136309,6.81470958 Z M29.7545897,14.9805562 L29.754,40.957 L43.324,40.957 L43.325133,18.4898791 L29.7545897,14.9805562 Z M21.7128371,27.7756364 C22.5412643,27.7756364 23.2128371,28.4472093 23.2128371,29.2756364 L23.2128371,29.3078854 C23.2128371,30.1363125 22.5412643,30.8078854 21.7128371,30.8078854 L15.6227143,30.8078854 C14.7942872,30.8078854 14.1227143,30.1363125 14.1227143,29.3078854 L14.1227143,29.2756364 C14.1227143,28.4472093 14.7942872,27.7756364 15.6227143,27.7756364 L21.7128371,27.7756364 Z M39.8930828,24.7433874 C40.7215099,24.7433874 41.3930828,25.4149602 41.3930828,26.2433874 L41.3930828,26.2756364 C41.3930828,27.1040635 40.7215099,27.7756364 39.8930828,27.7756364 L33.80296,27.7756364 C32.9745328,27.7756364 32.30296,27.1040635 32.30296,26.2756364 L32.30296,26.2433874 C32.30296,25.4149602 32.9745328,24.7433874 33.80296,24.7433874 L39.8930828,24.7433874 Z M21.7128371,18.6788893 C22.5412643,18.6788893 23.2128371,19.3504622 23.2128371,20.1788893 L23.2128371,20.2111383 C23.2128371,21.0395654 22.5412643,21.7111383 21.7128371,21.7111383 L15.6227143,21.7111383 C14.7942872,21.7111383 14.1227143,21.0395654 14.1227143,20.2111383 L14.1227143,20.1788893 C14.1227143,19.3504622 14.7942872,18.6788893 15.6227143,18.6788893 L21.7128371,18.6788893 Z" id="形状结合" fill="url(#linearGradient-3)"></path>
                </g>
            </g>
        </g>
    </g>
</svg>