<?xml version="1.0" encoding="UTF-8"?>
<svg width="68px" height="69px" viewBox="0 0 68 69" version="1.1" xmlns="http://www.w3.org/2000/svg" xmlns:xlink="http://www.w3.org/1999/xlink">
    <title>切片</title>
    <defs>
        <linearGradient x1="50%" y1="0%" x2="50%" y2="100%" id="linearGradient-1">
            <stop stop-color="#E1EBF5" offset="0%"></stop>
            <stop stop-color="#0EA944" offset="100%"></stop>
        </linearGradient>
        <ellipse id="path-2" cx="34.3570208" cy="12.5704225" rx="27.1335775" ry="12.5704225"></ellipse>
        <linearGradient x1="-41.82933%" y1="0%" x2="83.7557619%" y2="87.4410787%" id="linearGradient-3">
            <stop stop-color="#C5EAD2" offset="0%"></stop>
            <stop stop-color="#0EA944" offset="100%"></stop>
        </linearGradient>
    </defs>
    <g id="页面-1" stroke="none" stroke-width="1" fill="none" fill-rule="evenodd">
        <g id="icon说明" transform="translate(-51.000000, -388.000000)">
            <g id="icon/68/电量-充备份-9" transform="translate(51.000000, 388.800000)">
                <rect id="矩形" x="0" y="0" width="68" height="68"></rect>
                <g id="编组-7" transform="translate(0.000000, 14.000000)">
                    <g id="编组-4" transform="translate(0.000000, 18.084507)">
                        <ellipse id="椭圆形备份-2" fill-opacity="0.399622137" fill="#CEF8DD" cx="34" cy="19.7535211" rx="34" ry="16.1619718"></ellipse>
                        <path d="M34.3570208,4.30985915 C46.3629258,4.30985915 56.5476139,7.92230505 60.1230198,12.9289857 L61.4905983,12.9295775 L61.4905983,17.2394366 L61.4797457,17.2392825 C61.0695539,24.0157189 49.083313,29.4507042 34.3570208,29.4507042 C19.6307285,29.4507042 7.64448761,24.0157189 7.23429579,17.2392825 L7.22344322,17.2394366 L7.22344322,12.9295775 L8.59102171,12.9289857 C12.1664276,7.92230505 22.3511157,4.30985915 34.3570208,4.30985915 Z" id="形状结合" fill="#B9F6CF"></path>
                        <g id="椭圆形">
                            <use fill="url(#linearGradient-1)" xlink:href="#path-2"></use>
                            <use fill="#CEF8DD" xlink:href="#path-2"></use>
                        </g>
                        <ellipse id="椭圆形" fill="#ACEBC3" cx="45" cy="14.4366197" rx="14" ry="1.43661972"></ellipse>
                    </g>
                    <g id="功率" transform="translate(16.602003, 0.000000)" fill-rule="nonzero">
                        <rect id="矩形" fill="#0EA944" opacity="0" x="0" y="0" width="33.3909418" height="33.8228328"></rect>
                        <path d="M18.9979965,0 C28.1106949,0 35.4979965,7.38730163 35.4979965,16.5 C35.4979965,25.6126984 28.1106949,33 18.9979965,33 C9.88529818,33 2.49799655,25.6126984 2.49799655,16.5 C2.49799655,7.38730163 9.88529818,0 18.9979965,0 Z M18.9979965,1.85 C10.6291919,1.85 4.34799655,8.13119537 4.34799655,16.5 C4.34799655,24.8688046 10.6291919,31.15 18.9979965,31.15 C27.3668012,31.15 33.6479965,24.8688046 33.6479965,16.5 C33.6479965,8.13119537 27.3668012,1.85 18.9979965,1.85 Z M15.9261566,17.0437746 C16.2733985,17.0446739 16.5884648,17.2460806 16.7333626,17.5597825 L16.7333626,17.5597825 L19.8632103,24.423123 L23.0084544,20.1594996 C23.2012833,19.8978663 23.523381,19.7630591 23.8463888,19.8087997 C24.1693966,19.8545403 24.4408157,20.0733944 24.5524833,20.3781469 L24.5524833,20.3781469 L25.4410697,22.8051326 L30.062159,22.8051326 C30.5504823,22.8051326 30.9463956,23.1986575 30.9463956,23.684095 C30.9481138,23.9179449 30.8555973,24.1427581 30.6894596,24.3083249 C30.5233218,24.4738917 30.2974027,24.5664197 30.062159,24.5652438 L30.062159,24.5652438 L24.8208188,24.5652438 C24.4513076,24.5652438 24.116988,24.3312912 23.9894186,23.9858283 L23.9894186,23.9858283 L23.4571465,22.5274504 L20.3932829,26.6773773 C20.2059133,26.9263801 19.9006406,27.0591047 19.5895214,27.0268319 C19.2784022,26.9945592 19.0072693,26.8020433 18.8756477,26.5199512 L18.8756477,26.5199512 L15.7150074,19.5932029 L13.4231582,22.4552968 C13.2557894,22.6644744 13.0013902,22.7860899 12.7325242,22.7854543 L12.7325242,22.7854543 L7.42300036,22.7854543 C6.9346771,22.7854543 6.53881287,22.3919295 6.53881287,21.906492 C6.53881287,21.4210544 6.9346771,21.0275296 7.42300036,21.0275296 L7.42300036,21.0275296 L12.3058268,21.0275296 L15.2355226,17.3761187 C15.402451,17.1661213 15.6569173,17.0436682 15.9261566,17.0437746 Z M22.7005284,7.93711225 L22.269432,13.0687657 L24.8516114,13.0687657 L19.6872526,19.4751333 L20.5516449,14.3500393 L17.9694655,14.3500393 L22.7005284,7.93711225 Z M18.0992343,4.04081633 L17.6681379,9.17465629 L20.2503173,9.17465629 L15.0859586,15.5788374 L15.9503508,10.4537433 L13.3681714,10.4537433 L18.0992343,4.04081633 Z" id="形状结合" fill="#96ECB5"></path>
                        <path d="M17.5,0 C26.6126984,0 34,7.38730163 34,16.5 C34,25.6126984 26.6126984,33 17.5,33 C8.38730163,33 1,25.6126984 1,16.5 C1,7.38730163 8.38730163,0 17.5,0 Z M17.5,1.85 C9.13119537,1.85 2.85,8.13119537 2.85,16.5 C2.85,24.8688046 9.13119537,31.15 17.5,31.15 C25.8688046,31.15 32.15,24.8688046 32.15,16.5 C32.15,8.13119537 25.8688046,1.85 17.5,1.85 Z M14.4281601,17.0437746 C14.7754019,17.0446739 15.0904683,17.2460806 15.2353661,17.5597825 L15.2353661,17.5597825 L18.3652138,24.423123 L21.5104578,20.1594996 C21.7032868,19.8978663 22.0253844,19.7630591 22.3483923,19.8087997 C22.6714001,19.8545403 22.9428191,20.0733944 23.0544867,20.3781469 L23.0544867,20.3781469 L23.9430732,22.8051326 L28.5641625,22.8051326 C29.0524857,22.8051326 29.448399,23.1986575 29.448399,23.684095 C29.4501173,23.9179449 29.3576008,24.1427581 29.191463,24.3083249 C29.0253253,24.4738917 28.7994062,24.5664197 28.5641625,24.5652438 L28.5641625,24.5652438 L23.3228222,24.5652438 C22.9533111,24.5652438 22.6189914,24.3312912 22.4914221,23.9858283 L22.4914221,23.9858283 L21.95915,22.5274504 L18.8952864,26.6773773 C18.7079167,26.9263801 18.402644,27.0591047 18.0915248,27.0268319 C17.7804056,26.9945592 17.5092728,26.8020433 17.3776512,26.5199512 L17.3776512,26.5199512 L14.2170108,19.5932029 L11.9251617,22.4552968 C11.7577929,22.6644744 11.5033937,22.7860899 11.2345277,22.7854543 L11.2345277,22.7854543 L5.92500381,22.7854543 C5.43668055,22.7854543 5.04081633,22.3919295 5.04081633,21.906492 C5.04081633,21.4210544 5.43668055,21.0275296 5.92500381,21.0275296 L5.92500381,21.0275296 L10.8078302,21.0275296 L13.7375261,17.3761187 C13.9044545,17.1661213 14.1589207,17.0436682 14.4281601,17.0437746 Z M21.2025319,7.93711225 L20.7714355,13.0687657 L23.3536148,13.0687657 L18.1892561,19.4751333 L19.0536483,14.3500393 L16.471469,14.3500393 L21.2025319,7.93711225 Z M16.6012378,4.04081633 L16.1701414,9.17465629 L18.7523208,9.17465629 L13.587962,15.5788374 L14.4523543,10.4537433 L11.8701749,10.4537433 L16.6012378,4.04081633 Z" id="形状结合" fill="url(#linearGradient-3)"></path>
                    </g>
                </g>
            </g>
        </g>
    </g>
</svg>