<?xml version="1.0" encoding="UTF-8"?>
<svg width="48px" height="48px" viewBox="0 0 48 48" version="1.1" xmlns="http://www.w3.org/2000/svg" xmlns:xlink="http://www.w3.org/1999/xlink">
    <title>切片</title>
    <defs>
        <linearGradient x1="50%" y1="0%" x2="50%" y2="100%" id="linearGradient-1">
            <stop stop-color="#E1EBF5" offset="0%"></stop>
            <stop stop-color="#0EA944" offset="100%"></stop>
        </linearGradient>
        <ellipse id="path-2" cx="24.2520147" cy="8.87323944" rx="19.1531136" ry="8.87323944"></ellipse>
        <linearGradient x1="-41.82933%" y1="0%" x2="83.7557619%" y2="87.4410787%" id="linearGradient-3">
            <stop stop-color="#5FBEFF" offset="0%"></stop>
            <stop stop-color="#006DB8" offset="100%"></stop>
        </linearGradient>
    </defs>
    <g id="页面-1" stroke="none" stroke-width="1" fill="none" fill-rule="evenodd">
        <g id="1实时监控-全部电站浏览1" transform="translate(-1678.000000, -256.000000)">
            <g id="编组-16" transform="translate(216.000000, 158.000000)">
                <g id="list/电站概览" transform="translate(1446.000000, 61.000000)">
                    <g id="icon/68/电量-有功" transform="translate(16.000000, 37.000000)">
                        <rect id="矩形" x="0" y="0" width="48" height="48"></rect>
                        <g id="编组-7" transform="translate(0.000000, 9.882353)">
                            <g id="编组-4" transform="translate(0.000000, 12.765534)">
                                <ellipse id="椭圆形备份-2" fill-opacity="0.193724626" fill="#B7DCF6" cx="24" cy="13.943662" rx="24" ry="11.4084507"></ellipse>
                                <path d="M24.2520147,3.04225352 C32.7271564,3.04225352 39.9166165,5.5924472 42.4401229,9.12682488 L43.4051282,9.12676056 L43.4051282,12.1690141 C43.1082277,16.9521329 34.6472332,20.7887324 24.2520147,20.7887324 C13.8567961,20.7887324 5.39580162,16.9521329 5.10654597,12.1686447 L5.0989011,12.1690141 L5.0989011,9.12676056 L6.06390642,9.12682488 C8.58741285,5.5924472 15.7768729,3.04225352 24.2520147,3.04225352 Z" id="形状结合" fill="#7BC3F5"></path>
                                <g id="椭圆形">
                                    <use fill="url(#linearGradient-1)" xlink:href="#path-2"></use>
                                    <use fill="#B7DCF6" xlink:href="#path-2"></use>
                                </g>
                                <ellipse id="椭圆形" fill="#5FB6F2" cx="31.7647059" cy="10.1905551" rx="9.88235294" ry="1.01408451"></ellipse>
                            </g>
                            <g id="功率" transform="translate(11.719061, 0.000000)" fill-rule="nonzero">
                                <rect id="矩形" fill="#0EA944" opacity="0" x="0" y="0" width="23.5700766" height="23.8749408"></rect>
                                <path d="M13.4103505,0 C19.8428435,0 25.0574093,5.21456586 25.0574093,11.6470588 C25.0574093,18.0795518 19.8428435,23.2941176 13.4103505,23.2941176 C6.97785754,23.2941176 1.76329168,18.0795518 1.76329168,11.6470588 C1.76329168,5.21456586 6.97785754,0 13.4103505,0 Z M13.4103505,1.30588235 C7.502959,1.30588235 3.06917403,5.73966732 3.06917403,11.6470588 C3.06917403,17.5544503 7.502959,21.9882353 13.4103505,21.9882353 C19.317742,21.9882353 23.751527,17.5544503 23.751527,11.6470588 C23.751527,5.73966732 19.317742,1.30588235 13.4103505,1.30588235 Z M11.2419929,12.0308997 C11.4871048,12.0315345 11.7095046,12.1737039 11.8117854,12.3951406 L11.8117854,12.3951406 L14.0210897,17.2398516 L16.2412619,14.230235 C16.3773765,14.0455527 16.6047395,13.9503947 16.832745,13.9826822 C17.0607506,14.0149697 17.2523405,14.1694549 17.3311647,14.3845743 L17.3311647,14.3845743 L17.9584021,16.0977407 L21.2203475,16.0977407 C21.5650463,16.0977407 21.8445145,16.3755229 21.8445145,16.7181847 C21.8457274,16.8832552 21.7804216,17.0419469 21.6631479,17.1588175 C21.5458742,17.2756882 21.3864019,17.3410021 21.2203475,17.3401721 L21.2203475,17.3401721 L17.520578,17.3401721 C17.2597465,17.3401721 17.0237562,17.175029 16.9337073,16.9311729 L16.9337073,16.9311729 L16.5579858,15.9017297 L14.3952586,18.8310899 C14.2629976,19.0068565 14.047511,19.1005445 13.8278974,19.0777637 C13.6082839,19.0549829 13.416896,18.9190894 13.3239866,18.7199656 L13.3239866,18.7199656 L11.0929464,13.8304962 L9.47517051,15.8507978 C9.35702782,15.9984525 9.17745193,16.0842988 8.98766415,16.0838501 L8.98766415,16.0838501 L5.23976496,16.0838501 C4.89506618,16.0838501 4.61563262,15.8060679 4.61563262,15.4634061 C4.61563262,15.1207443 4.89506618,14.8429621 5.23976496,14.8429621 L5.23976496,14.8429621 L8.68646596,14.8429621 L10.7544866,12.2654955 C10.8723184,12.1172621 11.0519416,12.0308246 11.2419929,12.0308997 Z M16.0239024,5.60266747 L15.7195991,9.22501111 L17.5423139,9.22501111 L13.8968842,13.7471529 L14.5070434,10.1294395 L12.6843286,10.1294395 L16.0239024,5.60266747 Z M12.7759301,2.85234094 L12.4716268,6.47622797 L14.2943416,6.47622797 L10.6489119,10.9968264 L11.2590712,7.37911294 L9.43635631,7.37911294 L12.7759301,2.85234094 Z" id="形状结合" fill="#7BC3F5"></path>
                                <path d="M12.3529412,0 C18.7854341,0 24,5.21456586 24,11.6470588 C24,18.0795518 18.7854341,23.2941176 12.3529412,23.2941176 C5.92044821,23.2941176 0.705882353,18.0795518 0.705882353,11.6470588 C0.705882353,5.21456586 5.92044821,0 12.3529412,0 Z M12.3529412,1.30588235 C6.44554968,1.30588235 2.01176471,5.73966732 2.01176471,11.6470588 C2.01176471,17.5544503 6.44554968,21.9882353 12.3529412,21.9882353 C18.2603327,21.9882353 22.6941176,17.5544503 22.6941176,11.6470588 C22.6941176,5.73966732 18.2603327,1.30588235 12.3529412,1.30588235 Z M10.1845836,12.0308997 C10.4296955,12.0315345 10.6520953,12.1737039 10.754376,12.3951406 L10.754376,12.3951406 L12.9636803,17.2398516 L15.1838526,14.230235 C15.3199671,14.0455527 15.5473302,13.9503947 15.7753357,13.9826822 C16.0033412,14.0149697 16.1949312,14.1694549 16.2737553,14.3845743 L16.2737553,14.3845743 L16.9009928,16.0977407 L20.1629382,16.0977407 C20.507637,16.0977407 20.7871052,16.3755229 20.7871052,16.7181847 C20.7883181,16.8832552 20.7230123,17.0419469 20.6057386,17.1588175 C20.4884649,17.2756882 20.3289926,17.3410021 20.1629382,17.3401721 L20.1629382,17.3401721 L16.4631686,17.3401721 C16.2023372,17.3401721 15.9663469,17.175029 15.8762979,16.9311729 L15.8762979,16.9311729 L15.5005765,15.9017297 L13.3378492,18.8310899 C13.2055883,19.0068565 12.9901017,19.1005445 12.7704881,19.0777637 C12.5508745,19.0549829 12.3594867,18.9190894 12.2665773,18.7199656 L12.2665773,18.7199656 L10.0355371,13.8304962 L8.41776118,15.8507978 C8.29961849,15.9984525 8.12004261,16.0842988 7.93025482,16.0838501 L7.93025482,16.0838501 L4.18235563,16.0838501 C3.83765686,16.0838501 3.55822329,15.8060679 3.55822329,15.4634061 C3.55822329,15.1207443 3.83765686,14.8429621 4.18235563,14.8429621 L4.18235563,14.8429621 L7.62905663,14.8429621 L9.69707722,12.2654955 C9.81490903,12.1172621 9.99453227,12.0308246 10.1845836,12.0308997 Z M14.9664931,5.60266747 L14.6621897,9.22501111 L16.4849046,9.22501111 L12.8394749,13.7471529 L13.4496341,10.1294395 L11.6269193,10.1294395 L14.9664931,5.60266747 Z M11.7185208,2.85234094 L11.4142175,6.47622797 L13.2369323,6.47622797 L9.5915026,10.9968264 L10.2016618,7.37911294 L8.37894698,7.37911294 L11.7185208,2.85234094 Z" id="形状结合" fill="url(#linearGradient-3)"></path>
                            </g>
                        </g>
                    </g>
                </g>
            </g>
        </g>
    </g>
</svg>