<?xml version="1.0" encoding="UTF-8"?>
<svg width="24px" height="24px" viewBox="0 0 24 24" version="1.1" xmlns="http://www.w3.org/2000/svg" xmlns:xlink="http://www.w3.org/1999/xlink">
    <title>切片</title>
    <defs>
        <linearGradient x1="22.3200888%" y1="46.337893%" x2="83.7589747%" y2="100%" id="linearGradient-1">
            <stop stop-color="#EE916D" offset="0%"></stop>
            <stop stop-color="#EB6531" offset="100%"></stop>
        </linearGradient>
        <linearGradient x1="48.7025082%" y1="46.337893%" x2="51.582447%" y2="100%" id="linearGradient-2">
            <stop stop-color="#EE916D" offset="0%"></stop>
            <stop stop-color="#EB6531" offset="100%"></stop>
        </linearGradient>
        <linearGradient x1="27.2482822%" y1="46.337893%" x2="77.7484512%" y2="100%" id="linearGradient-3">
            <stop stop-color="#EE916D" offset="0%"></stop>
            <stop stop-color="#EB6531" offset="100%"></stop>
        </linearGradient>
    </defs>
    <g id="页面-1" stroke="none" stroke-width="1" fill="none" fill-rule="evenodd">
        <g id="1实时监控-全部电站浏览1" transform="translate(-559.000000, -99.000000)">
            <g id="编组-20" transform="translate(232.000000, 99.000000)">
                <g id="img/储能箱-蓝" transform="translate(327.000000, 0.000000)">
                    <g id="编组-33" transform="translate(3.820207, 4.837159)" fill-rule="nonzero">
                        <g id="编组-2" transform="translate(0.816047, 0.000000)" fill="#FFC5AF">
                            <path d="M5.97174834,1.23892205 L0.234841055,12.7476815 C0.0803916078,13.0575212 0,13.3989933 0,13.7451945 C0,14.9800718 1.00106584,15.9811377 2.23594314,15.9811377 L13.7097577,15.9811377 C14.0559589,15.9811377 14.397431,15.9007461 14.7072707,15.7462966 C15.8124489,15.1953854 16.261771,13.8528597 15.7108598,12.7476815 L9.97395251,1.23892205 C9.75729087,0.804279029 9.40500644,0.451994598 8.97036342,0.235332957 C7.86518525,-0.315578258 6.52265955,0.133743884 5.97174834,1.23892205 Z M8.42626542,1.32684319 C8.62383043,1.42532575 8.78395972,1.58545504 8.88244228,1.78302005 L14.6193496,13.2917795 C14.8697638,13.7941332 14.6655264,14.4043722 14.1631727,14.6547864 C14.0223365,14.7249907 13.8671219,14.7615323 13.7097577,14.7615323 L2.23594314,14.7615323 C1.67463528,14.7615323 1.21960535,14.3065024 1.21960535,13.7451945 C1.21960535,13.5878304 1.25614699,13.4326158 1.32635129,13.2917795 L7.06325857,1.78302005 C7.31367275,1.28066634 7.92391171,1.076429 8.42626542,1.32684319 Z" id="三角形"></path>
                            <path d="M7.97285042,4.9244876 C8.28718283,4.9244876 8.5459673,5.16231658 8.57907486,5.46784556 L8.5826531,5.53429028 L8.5826531,9.96015407 C8.5826531,10.2969388 8.30963514,10.5699568 7.97285042,10.5699568 C7.65851802,10.5699568 7.39973355,10.3321278 7.36662599,10.0265988 L7.36304775,9.96015407 L7.36304775,5.53429028 C7.36304775,5.19750556 7.63606571,4.9244876 7.97285042,4.9244876 Z" id="路径-13"></path>
                            <path d="M7.97285042,11.0634837 C8.28718283,11.0634837 8.5459673,11.3013127 8.57907486,11.6068417 L8.5826531,11.6732864 L8.5826531,11.8018529 C8.5826531,12.1386376 8.30963514,12.4116556 7.97285042,12.4116556 C7.65851802,12.4116556 7.39973355,12.1738266 7.36662599,11.8682976 L7.36304775,11.8018529 L7.36304775,11.6732864 C7.36304775,11.3365017 7.63606571,11.0634837 7.97285042,11.0634837 Z" id="路径-13备份"></path>
                        </g>
                        <g id="编组-3" transform="translate(0.000000, 0.409266)">
                            <path d="M5.97174834,1.23892205 L0.234841055,12.7476815 C0.0803916078,13.0575212 0,13.3989933 0,13.7451945 C0,14.9800718 1.00106584,15.9811377 2.23594314,15.9811377 L13.7097577,15.9811377 C14.0559589,15.9811377 14.397431,15.9007461 14.7072707,15.7462966 C15.8124489,15.1953854 16.261771,13.8528597 15.7108598,12.7476815 L9.97395251,1.23892205 C9.75729087,0.804279029 9.40500644,0.451994598 8.97036342,0.235332957 C7.86518525,-0.315578258 6.52265955,0.133743884 5.97174834,1.23892205 Z M8.42626542,1.32684319 C8.62383043,1.42532575 8.78395972,1.58545504 8.88244228,1.78302005 L14.6193496,13.2917795 C14.8697638,13.7941332 14.6655264,14.4043722 14.1631727,14.6547864 C14.0223365,14.7249907 13.8671219,14.7615323 13.7097577,14.7615323 L2.23594314,14.7615323 C1.67463528,14.7615323 1.21960535,14.3065024 1.21960535,13.7451945 C1.21960535,13.5878304 1.25614699,13.4326158 1.32635129,13.2917795 L7.06325857,1.78302005 C7.31367275,1.28066634 7.92391171,1.076429 8.42626542,1.32684319 Z" id="三角形" fill="url(#linearGradient-1)"></path>
                            <path d="M7.97285042,4.9244876 C8.28718283,4.9244876 8.5459673,5.16231658 8.57907486,5.46784556 L8.5826531,5.53429028 L8.5826531,9.96015407 C8.5826531,10.2969388 8.30963514,10.5699568 7.97285042,10.5699568 C7.65851802,10.5699568 7.39973355,10.3321278 7.36662599,10.0265988 L7.36304775,9.96015407 L7.36304775,5.53429028 C7.36304775,5.19750556 7.63606571,4.9244876 7.97285042,4.9244876 Z" id="路径-13" fill="url(#linearGradient-2)"></path>
                            <path d="M7.97285042,11.0634837 C8.28718283,11.0634837 8.5459673,11.3013127 8.57907486,11.6068417 L8.5826531,11.6732864 L8.5826531,11.8018529 C8.5826531,12.1386376 8.30963514,12.4116556 7.97285042,12.4116556 C7.65851802,12.4116556 7.39973355,12.1738266 7.36662599,11.8682976 L7.36304775,11.8018529 L7.36304775,11.6732864 C7.36304775,11.3365017 7.63606571,11.0634837 7.97285042,11.0634837 Z" id="路径-13备份" fill="url(#linearGradient-3)"></path>
                        </g>
                    </g>
                    <rect id="矩形" x="0" y="0" width="24" height="24"></rect>
                </g>
            </g>
        </g>
    </g>
</svg>