<?xml version="1.0" encoding="UTF-8"?>
<svg width="48px" height="48px" viewBox="0 0 48 48" version="1.1" xmlns="http://www.w3.org/2000/svg" xmlns:xlink="http://www.w3.org/1999/xlink">
    <title>切片</title>
    <defs>
        <linearGradient x1="50%" y1="0%" x2="50%" y2="100%" id="linearGradient-1">
            <stop stop-color="#E1EBF5" offset="0%"></stop>
            <stop stop-color="#0EA944" offset="100%"></stop>
        </linearGradient>
        <ellipse id="path-2" cx="24.1934066" cy="19.5211268" rx="19.1531136" ry="8.87323944"></ellipse>
        <linearGradient x1="-18.9988389%" y1="0%" x2="75.3634473%" y2="87.4410787%" id="linearGradient-3">
            <stop stop-color="#5FBEFF" offset="0%"></stop>
            <stop stop-color="#006DB8" offset="100%"></stop>
        </linearGradient>
        <linearGradient x1="-41.82933%" y1="48.5694697%" x2="83.7557619%" y2="51.0712119%" id="linearGradient-4">
            <stop stop-color="#5FBEFF" offset="0%"></stop>
            <stop stop-color="#006DB8" offset="100%"></stop>
        </linearGradient>
        <linearGradient x1="-41.82933%" y1="48.6031699%" x2="83.7557619%" y2="51.0459765%" id="linearGradient-5">
            <stop stop-color="#5FBEFF" offset="0%"></stop>
            <stop stop-color="#006DB8" offset="100%"></stop>
        </linearGradient>
    </defs>
    <g id="页面-1" stroke="none" stroke-width="1" fill="none" fill-rule="evenodd">
        <g id="1实时监控-全部电站浏览1" transform="translate(-1226.000000, -256.000000)">
            <g id="编组-16" transform="translate(216.000000, 158.000000)">
                <g id="list/电站概览备份-3" transform="translate(994.000000, 61.000000)">
                    <g id="icon/68/电量-有功" transform="translate(16.000000, 37.000000)">
                        <rect id="矩形" x="0" y="0" width="48" height="48"></rect>
                        <g id="编组-4" transform="translate(0.000000, 12.000000)">
                            <ellipse id="椭圆形备份-2" fill-opacity="0.193724626" fill="#B7DCF6" cx="24" cy="24.5915493" rx="24" ry="11.4084507"></ellipse>
                            <path d="M24.2520147,13.6901408 C32.7271564,13.6901408 39.9166165,16.2403345 42.4401229,19.7747122 L43.4051282,19.7746479 L43.4051282,22.8169014 C43.1082277,27.6000202 34.6472332,31.4366197 24.2520147,31.4366197 C13.8567961,31.4366197 5.39580162,27.6000202 5.10654597,22.816532 L5.0989011,22.8169014 L5.0989011,19.7746479 L6.06390642,19.7747122 C8.58741285,16.2403345 15.7768729,13.6901408 24.2520147,13.6901408 Z" id="形状结合" fill="#7BC3F5"></path>
                            <g id="椭圆形">
                                <use fill="url(#linearGradient-1)" xlink:href="#path-2"></use>
                                <use fill="#B7DCF6" xlink:href="#path-2"></use>
                            </g>
                            <ellipse id="椭圆形" fill="#5FB6F2" cx="31.0912662" cy="24.9729912" rx="7.76470588" ry="1.01408451"></ellipse>
                            <g id="编组-30" transform="translate(14.616850, 0.000000)">
                                <g id="充电" fill-rule="nonzero">
                                    <rect id="矩形" fill="#000000" opacity="0" x="0" y="2.05098545e-08" width="20.1611722" height="20.2816901"></rect>
                                    <path d="M16.4941922,4.1360971 L14.962139,4.1360971 L14.962139,0.688202529 C14.962139,0.308118779 14.6558511,0 14.2780259,0 C13.9002007,0 13.5939128,0.308118779 13.5939128,0.688202529 L13.5939128,4.1360971 L6.44097061,4.1360971 L6.44097061,0.688202529 C6.44097062,0.442331449 6.31057941,0.215137199 6.09891408,0.0922016566 C5.88724876,-0.0307338855 5.62646633,-0.0307338855 5.414801,0.0922016566 C5.20313568,0.215137199 5.07274447,0.442331449 5.07274447,0.688202529 L5.07274447,4.1360971 L3.66635204,4.1360971 C2.35440023,4.13729528 1.29115034,5.20690098 1.28995928,6.52669528 L1.28995928,17.891092 C1.29115034,19.2108863 2.35440023,20.280492 3.66635204,20.2816901 L16.4941922,20.2816901 C17.806144,20.280492 18.8693939,19.2108863 18.8705849,17.891092 L18.8705849,6.52597086 C18.868997,5.20645947 17.8058632,4.13729459 16.4941922,4.1360971 Z M17.5023588,17.891092 C17.5023588,18.1600727 17.3961416,18.4180367 17.2070736,18.6082348 C17.0180057,18.7984329 16.7615746,18.9052851 16.4941922,18.9052851 L3.66635204,18.9052851 C3.10955699,18.9052851 2.65818542,18.4512154 2.65818542,17.891092 L2.65818542,6.52597086 C2.65818542,6.25699011 2.76440266,5.9990261 2.95347058,5.80882798 C3.1425385,5.61862987 3.39896962,5.51177768 3.66635204,5.51177768 L16.4941922,5.51177768 C16.7615746,5.51177768 17.0180057,5.61862986 17.2070736,5.80882798 C17.3961416,5.9990261 17.5023588,6.2569901 17.5023588,6.52597086 L17.5023588,17.891092 Z" id="形状" fill="#7BC3F5"></path>
                                    <path d="M13.4635713,11.5860884 L6.69445252,11.5860884 C6.3166273,11.5860884 6.01033945,11.8942072 6.01033945,12.274291 C6.01033945,12.6543747 6.3166273,12.9624935 6.69445252,12.9624935 L13.4635713,12.9624935 C13.8413965,12.9624935 14.1476844,12.6543747 14.1476844,12.274291 C14.1476844,11.8942072 13.8413965,11.5860884 13.4635713,11.5860884 L13.4635713,11.5860884 Z" id="路径" fill="#7BC3F5"></path>
                                    <path d="M13.4838033,11.5901779 L6.67422055,11.5901779 C6.2941368,11.5901779 5.98601804,11.8964657 5.98601804,12.274291 C5.98601804,12.6521162 6.2941368,12.958404 6.67422055,12.958404 L13.4838033,12.958404 C13.863887,12.958404 14.1720058,12.6521162 14.1720058,12.274291 C14.1720058,11.8964657 13.863887,11.5901779 13.4838033,11.5901779 L13.4838033,11.5901779 Z" id="路径" fill="#7BC3F5" transform="translate(10.079012, 12.274291) rotate(-270.000000) translate(-10.079012, -12.274291) "></path>
                                </g>
                                <g id="充电备份-2" transform="translate(0.281901, 0.507042)">
                                    <path d="M15.2042329,4.1360971 L13.6721797,4.1360971 L13.6721797,0.688202529 C13.6721797,0.308118779 13.3658918,0 12.9880666,0 C12.6102414,0 12.3039536,0.308118779 12.3039536,0.688202529 L12.3039536,4.1360971 L5.15101133,4.1360971 L5.15101133,0.688202529 C5.15101133,0.442331449 5.02062012,0.215137199 4.8089548,0.0922016566 C4.59728948,-0.0307338855 4.33650704,-0.0307338855 4.12484172,0.0922016566 C3.9131764,0.215137199 3.78278518,0.442331449 3.78278519,0.688202529 L3.78278519,4.1360971 L2.37639276,4.1360971 C1.06444095,4.13729528 0.00119105957,5.20690098 0,6.52669528 L0,17.891092 C0.00119105957,19.2108863 1.06444095,20.280492 2.37639276,20.2816901 L15.2042329,20.2816901 C16.5161847,20.280492 17.5794346,19.2108863 17.5806257,17.891092 L17.5806257,6.52597086 C17.5790377,5.20645947 16.5159039,4.13729459 15.2042329,4.1360971 Z M16.2123995,17.891092 C16.2123995,18.1600727 16.1061823,18.4180367 15.9171144,18.6082348 C15.7280464,18.7984329 15.4716153,18.9052851 15.2042329,18.9052851 L2.37639276,18.9052851 C1.81959771,18.9052851 1.36822614,18.4512154 1.36822614,17.891092 L1.36822614,6.52597086 C1.36822614,6.25699011 1.47444338,5.9990261 1.66351129,5.80882798 C1.85257921,5.61862987 2.10901034,5.51177768 2.37639276,5.51177768 L15.2042329,5.51177768 C15.4716153,5.51177768 15.7280464,5.61862986 15.9171144,5.80882798 C16.1061823,5.9990261 16.2123995,6.2569901 16.2123995,6.52597086 L16.2123995,17.891092 Z" id="形状" fill="url(#linearGradient-3)" fill-rule="nonzero"></path>
                                    <polyline id="路径-12" stroke="#006DB8" stroke-width="2.15064858" stroke-linecap="round" stroke-linejoin="round" points="9.10124951 19.7746479 9.10124951 22.9820608 16.1576598 22.9820608 16.1576598 24.3380282"></polyline>
                                    <path d="M12.173612,11.5860884 L5.40449324,11.5860884 C5.02666802,11.5860884 4.72038017,11.8942072 4.72038017,12.274291 C4.72038017,12.6543747 5.02666802,12.9624935 5.40449324,12.9624935 L12.173612,12.9624935 C12.5514372,12.9624935 12.8577251,12.6543747 12.8577251,12.274291 C12.8577251,11.8942072 12.5514372,11.5860884 12.173612,11.5860884 L12.173612,11.5860884 Z" id="路径" fill="url(#linearGradient-4)" fill-rule="nonzero"></path>
                                    <path d="M12.193844,11.5901779 L5.38426126,11.5901779 C5.00417751,11.5901779 4.69605876,11.8964657 4.69605876,12.274291 C4.69605876,12.6521162 5.00417751,12.958404 5.38426126,12.958404 L12.193844,12.958404 C12.5739277,12.958404 12.8820465,12.6521162 12.8820465,12.274291 C12.8820465,11.8964657 12.5739277,11.5901779 12.193844,11.5901779 L12.193844,11.5901779 Z" id="路径" fill="url(#linearGradient-5)" fill-rule="nonzero" transform="translate(8.789053, 12.274291) rotate(-270.000000) translate(-8.789053, -12.274291) "></path>
                                </g>
                            </g>
                        </g>
                    </g>
                </g>
            </g>
        </g>
    </g>
</svg>