<?xml version="1.0" encoding="UTF-8"?>
<svg width="68px" height="69px" viewBox="0 0 68 69" version="1.1" xmlns="http://www.w3.org/2000/svg" xmlns:xlink="http://www.w3.org/1999/xlink">
    <title>切片</title>
    <defs>
        <linearGradient x1="50%" y1="0%" x2="50%" y2="100%" id="linearGradient-1">
            <stop stop-color="#E1EBF5" offset="0%"></stop>
            <stop stop-color="#0EA944" offset="100%"></stop>
        </linearGradient>
        <ellipse id="path-2" cx="34.3570208" cy="27.1126761" rx="27.1335775" ry="12.3239437"></ellipse>
        <linearGradient x1="-21.786392%" y1="0%" x2="76.3881306%" y2="87.4410787%" id="linearGradient-3">
            <stop stop-color="#C5EAD2" offset="0%"></stop>
            <stop stop-color="#0EA944" offset="100%"></stop>
        </linearGradient>
        <linearGradient x1="-41.82933%" y1="48.625019%" x2="83.7557619%" y2="51.0296155%" id="linearGradient-4">
            <stop stop-color="#C5EAD2" offset="0%"></stop>
            <stop stop-color="#0EA944" offset="100%"></stop>
        </linearGradient>
    </defs>
    <g id="页面-1" stroke="none" stroke-width="1" fill="none" fill-rule="evenodd">
        <g id="icon说明" transform="translate(-771.000000, -388.000000)">
            <g id="icon/68/电量-充备份-21" transform="translate(771.000000, 388.800000)">
                <rect id="矩形" x="0" y="0" width="68" height="68"></rect>
                <g id="编组-4" transform="translate(0.000000, 18.000000)">
                    <ellipse id="椭圆形备份-2" fill-opacity="0.399622137" fill="#CEF8DD" cx="34" cy="34.1549296" rx="34" ry="15.8450704"></ellipse>
                    <path d="M34.3570208,19.0140845 C46.3631306,19.0140845 56.5479614,22.555819 60.1232028,27.4644598 L61.4905983,27.4647887 L61.4905983,31.6901408 L61.4796837,31.6909934 C61.0683467,38.3340915 49.0825714,43.6619718 34.3570208,43.6619718 C19.6314701,43.6619718 7.64569483,38.3340915 7.23435785,31.6909934 L7.22344322,31.6901408 L7.22344322,27.4647887 L8.59083871,27.4644598 C12.1660801,22.555819 22.3509109,19.0140845 34.3570208,19.0140845 Z" id="形状结合" fill="#B9F6CF"></path>
                    <g id="椭圆形">
                        <use fill="url(#linearGradient-1)" xlink:href="#path-2"></use>
                        <use fill="#CEF8DD" xlink:href="#path-2"></use>
                    </g>
                    <ellipse id="椭圆形" fill="#ACEBC3" cx="44.3770844" cy="34.6847099" rx="11.4046606" ry="1.4084507"></ellipse>
                    <g id="编组-30备份" transform="translate(19.279121, 0.000000)">
                        <g id="充电" transform="translate(1.428083, 0.000000)" fill-rule="nonzero">
                            <rect id="矩形" fill="#000000" opacity="0" x="0" y="2.84859236e-08" width="28.5616606" height="28.1690141"></rect>
                            <path d="M23.3667722,5.7445793 L21.1963635,5.7445793 L21.1963635,0.955836845 C21.1963635,0.427942748 20.7624557,0 20.2272034,0 C19.691951,0 19.2580432,0.427942748 19.2580432,0.955836845 L19.2580432,5.7445793 L9.12470836,5.7445793 L9.12470836,0.955836845 C9.12470837,0.614349234 8.93998749,0.298801665 8.64012828,0.128057856 C8.34026908,-0.0426859521 7.97082729,-0.0426859521 7.67096809,0.128057856 C7.37110888,0.298801665 7.186388,0.614349234 7.18638801,0.955836845 L7.18638801,5.7445793 L5.19399872,5.7445793 C3.33540033,5.74624344 1.82912965,7.23180692 1.82744232,9.06485455 L1.82744232,24.8487388 C1.82912965,26.6817865 3.33540033,28.1673499 5.19399872,28.1690141 L23.3667722,28.1690141 C25.2253707,28.16735 26.7316413,26.6817865 26.7333287,24.8487388 L26.7333287,9.06384842 C26.7310791,7.23119371 25.2249728,5.74624248 23.3667722,5.7445793 Z M24.7950083,24.8487388 C24.7950083,25.2223232 24.6445339,25.5806066 24.3766877,25.8447706 C24.1088414,26.1089346 23.745564,26.2573405 23.3667722,26.2573405 L5.19399872,26.2573405 C4.40520574,26.2573405 3.76576268,25.626688 3.76576268,24.8487388 L3.76576268,9.06384842 C3.76576268,8.69026404 3.9162371,8.3319807 4.18408332,8.06781665 C4.45192954,7.80365259 4.81520697,7.65524677 5.19399872,7.65524677 L23.3667722,7.65524677 C23.745564,7.65524677 24.1088414,7.80365258 24.3766877,8.06781664 C24.6445339,8.33198069 24.7950083,8.69026403 24.7950083,9.06384842 L24.7950083,24.8487388 Z" id="形状" fill="#96ECB5"></path>
                            <path d="M19.0733927,16.0917895 L9.48380774,16.0917895 C8.94855535,16.0917895 8.51464756,16.5197322 8.51464756,17.0476263 C8.51464756,17.5755204 8.94855535,18.0034631 9.48380774,18.0034631 L19.0733927,18.0034631 C19.608645,18.0034631 20.0425528,17.5755204 20.0425528,17.0476263 C20.0425528,16.5197322 19.608645,16.0917895 19.0733927,16.0917895 L19.0733927,16.0917895 Z" id="路径" fill="#96ECB5"></path>
                        </g>
                        <g id="充电备份-2" transform="translate(0.000000, 0.704225)">
                            <rect id="矩形" fill="#000000" fill-rule="nonzero" opacity="0" x="0" y="2.84858288e-08" width="28.5616606" height="28.1690141"></rect>
                            <path d="M23.3667722,5.7445793 L21.1963635,5.7445793 L21.1963635,0.955836845 C21.1963635,0.427942748 20.7624557,0 20.2272034,0 C19.691951,0 19.2580432,0.427942748 19.2580432,0.955836845 L19.2580432,5.7445793 L9.12470836,5.7445793 L9.12470836,0.955836845 C9.12470837,0.614349234 8.93998749,0.298801665 8.64012828,0.128057856 C8.34026908,-0.0426859521 7.97082729,-0.0426859521 7.67096809,0.128057856 C7.37110888,0.298801665 7.186388,0.614349234 7.18638801,0.955836845 L7.18638801,5.7445793 L5.19399872,5.7445793 C3.33540033,5.74624344 1.82912965,7.23180692 1.82744232,9.06485455 L1.82744232,24.8487388 C1.82912965,26.6817865 3.33540033,28.1673499 5.19399872,28.1690141 L23.3667722,28.1690141 C25.2253707,28.16735 26.7316413,26.6817865 26.7333287,24.8487388 L26.7333287,9.06384842 C26.7310791,7.23119371 25.2249728,5.74624248 23.3667722,5.7445793 Z M24.7950083,24.8487388 C24.7950083,25.2223232 24.6445339,25.5806066 24.3766877,25.8447706 C24.1088414,26.1089346 23.745564,26.2573405 23.3667722,26.2573405 L5.19399872,26.2573405 C4.40520574,26.2573405 3.76576268,25.626688 3.76576268,24.8487388 L3.76576268,9.06384842 C3.76576268,8.69026404 3.9162371,8.3319807 4.18408332,8.06781665 C4.45192954,7.80365259 4.81520697,7.65524677 5.19399872,7.65524677 L23.3667722,7.65524677 C23.745564,7.65524677 24.1088414,7.80365258 24.3766877,8.06781664 C24.6445339,8.33198069 24.7950083,8.69026403 24.7950083,9.06384842 L24.7950083,24.8487388 Z" id="形状" fill="url(#linearGradient-3)" fill-rule="nonzero"></path>
                            <polyline id="路径-12" stroke="#0EA944" stroke-width="2.15064858" stroke-linecap="round" stroke-linejoin="round" points="14.7208791 28.1690141 14.7208791 32.6237542 24.7174603 32.6237542 24.7174603 34.5070423"></polyline>
                            <path d="M19.0733927,16.0917895 L9.48380774,16.0917895 C8.94855535,16.0917895 8.51464756,16.5197322 8.51464756,17.0476263 C8.51464756,17.5755204 8.94855535,18.0034631 9.48380774,18.0034631 L19.0733927,18.0034631 C19.608645,18.0034631 20.0425528,17.5755204 20.0425528,17.0476263 C20.0425528,16.5197322 19.608645,16.0917895 19.0733927,16.0917895 L19.0733927,16.0917895 Z" id="路径" fill="url(#linearGradient-4)" fill-rule="nonzero"></path>
                        </g>
                    </g>
                </g>
            </g>
        </g>
    </g>
</svg>