<?xml version="1.0" encoding="UTF-8"?>
<svg width="68px" height="69px" viewBox="0 0 68 69" version="1.1" xmlns="http://www.w3.org/2000/svg" xmlns:xlink="http://www.w3.org/1999/xlink">
    <title>切片</title>
    <defs>
        <linearGradient x1="50%" y1="0%" x2="50%" y2="100%" id="linearGradient-1">
            <stop stop-color="#E1EBF5" offset="0%"></stop>
            <stop stop-color="#0EA944" offset="100%"></stop>
        </linearGradient>
        <ellipse id="path-2" cx="34.2739927" cy="27.6549296" rx="27.1335775" ry="12.5704225"></ellipse>
        <linearGradient x1="-18.9988389%" y1="0%" x2="75.3634473%" y2="87.4410787%" id="linearGradient-3">
            <stop stop-color="#C5EAD2" offset="0%"></stop>
            <stop stop-color="#0EA944" offset="100%"></stop>
        </linearGradient>
        <linearGradient x1="-41.82933%" y1="48.5694697%" x2="83.7557619%" y2="51.0712119%" id="linearGradient-4">
            <stop stop-color="#C5EAD2" offset="0%"></stop>
            <stop stop-color="#0EA944" offset="100%"></stop>
        </linearGradient>
        <linearGradient x1="-41.82933%" y1="48.6031699%" x2="83.7557619%" y2="51.0459765%" id="linearGradient-5">
            <stop stop-color="#C5EAD2" offset="0%"></stop>
            <stop stop-color="#0EA944" offset="100%"></stop>
        </linearGradient>
    </defs>
    <g id="页面-1" stroke="none" stroke-width="1" fill="none" fill-rule="evenodd">
        <g id="icon说明" transform="translate(-651.000000, -388.000000)">
            <g id="icon/68/电量-充备份-18" transform="translate(651.000000, 388.800000)">
                <rect id="矩形" x="0" y="0" width="68" height="68"></rect>
                <g id="编组-4" transform="translate(0.000000, 17.000000)">
                    <ellipse id="椭圆形备份-2" fill-opacity="0.399622137" fill="#CEF8DD" cx="34" cy="34.8380282" rx="34" ry="16.1619718"></ellipse>
                    <path d="M34.3570208,19.3943662 C46.3629258,19.3943662 56.5476139,23.0068121 60.1230198,28.0134927 L61.4905983,28.0140845 L61.4905983,32.3239437 L61.4797457,32.3237895 C61.0695539,39.100226 49.083313,44.5352113 34.3570208,44.5352113 C19.6307285,44.5352113 7.64448761,39.100226 7.23429579,32.3237895 L7.22344322,32.3239437 L7.22344322,28.0140845 L8.59102171,28.0134927 C12.1664276,23.0068121 22.3511157,19.3943662 34.3570208,19.3943662 Z" id="形状结合" fill="#B9F6CF"></path>
                    <g id="椭圆形">
                        <use fill="url(#linearGradient-1)" xlink:href="#path-2"></use>
                        <use fill="#CEF8DD" xlink:href="#path-2"></use>
                    </g>
                    <ellipse id="椭圆形" fill="#ACEBC3" cx="44.0459605" cy="35.3784041" rx="11" ry="1.43661972"></ellipse>
                    <g id="编组-30" transform="translate(19.279121, 0.000000)">
                        <g id="充电" transform="translate(3.255525, 0.000000)" fill="#96ECB5" fill-rule="nonzero">
                            <path d="M21.5393299,5.85947089 L19.3689212,5.85947089 L19.3689212,0.974953582 C19.3689212,0.436501603 18.9350134,0 18.399761,0 C17.8645087,0 17.4306009,0.436501603 17.4306009,0.974953582 L17.4306009,5.85947089 L7.29726605,5.85947089 L7.29726605,0.974953582 C7.29726606,0.626636219 7.11254517,0.304777698 6.81268596,0.130619013 C6.51282676,-0.0435396712 6.14338498,-0.0435396712 5.84352577,0.130619013 C5.54366656,0.304777698 5.35894568,0.626636219 5.35894569,0.974953582 L5.35894569,5.85947089 L3.3665564,5.85947089 C1.50795801,5.86116831 0.0016873344,7.37644306 0,9.24615164 L0,25.3457136 C0.0016873344,27.2154222 1.50795801,28.7306969 3.3665564,28.7323944 L21.5393299,28.7323944 C23.3979283,28.730697 24.904199,27.2154222 24.9058864,25.3457136 L24.9058864,9.24512539 C24.9036368,7.37581758 23.3975305,5.86116733 21.5393299,5.85947089 Z M22.967566,25.3457136 C22.967566,25.7267697 22.8170916,26.0922187 22.5492453,26.361666 C22.2813991,26.6311133 21.9181217,26.7824873 21.5393299,26.7824873 L3.3665564,26.7824873 C2.57776342,26.7824873 1.93832036,26.1392218 1.93832036,25.3457136 L1.93832036,9.24512539 C1.93832036,8.86406932 2.08879478,8.49862031 2.356641,8.22917298 C2.62448722,7.95972565 2.98776465,7.80835171 3.3665564,7.80835171 L21.5393299,7.80835171 C21.9181217,7.80835171 22.2813991,7.95972564 22.5492453,8.22917297 C22.8170916,8.4986203 22.967566,8.86406931 22.967566,9.24512539 L22.967566,25.3457136 Z" id="形状"></path>
                            <path d="M17.2459503,16.4136253 L7.65636542,16.4136253 C7.12111303,16.4136253 6.68720524,16.8501269 6.68720524,17.3885789 C6.68720524,17.9270308 7.12111303,18.3635324 7.65636542,18.3635324 L17.2459503,18.3635324 C17.7812027,18.3635324 18.2151105,17.9270308 18.2151105,17.3885789 C18.2151105,16.8501269 17.7812027,16.4136253 17.2459503,16.4136253 L17.2459503,16.4136253 Z" id="路径"></path>
                            <path d="M17.2746123,16.4194187 L7.62770346,16.4194187 C7.08925148,16.4194187 6.6527499,16.8533265 6.6527499,17.3885789 C6.6527499,17.9238312 7.08925148,18.357739 7.62770346,18.357739 L17.2746123,18.357739 C17.8130643,18.357739 18.2495659,17.9238312 18.2495659,17.3885789 C18.2495659,16.8533265 17.8130643,16.4194187 17.2746123,16.4194187 L17.2746123,16.4194187 Z" id="路径" transform="translate(12.451158, 17.388579) rotate(-270.000000) translate(-12.451158, -17.388579) "></path>
                        </g>
                        <g id="充电备份-2" transform="translate(0.000000, 0.718310)">
                            <rect id="矩形" fill="#000000" fill-rule="nonzero" opacity="0" x="0" y="2.90556272e-08" width="28.5616606" height="28.7323943"></rect>
                            <path d="M23.3667722,5.85947089 L21.1963635,5.85947089 L21.1963635,0.974953582 C21.1963635,0.436501603 20.7624557,0 20.2272034,0 C19.691951,0 19.2580432,0.436501603 19.2580432,0.974953582 L19.2580432,5.85947089 L9.12470836,5.85947089 L9.12470836,0.974953582 C9.12470837,0.626636219 8.93998749,0.304777698 8.64012828,0.130619013 C8.34026908,-0.0435396712 7.97082729,-0.0435396712 7.67096809,0.130619013 C7.37110888,0.304777698 7.186388,0.626636219 7.18638801,0.974953582 L7.18638801,5.85947089 L5.19399872,5.85947089 C3.33540033,5.86116831 1.82912965,7.37644306 1.82744232,9.24615164 L1.82744232,25.3457136 C1.82912965,27.2154222 3.33540033,28.7306969 5.19399872,28.7323944 L23.3667722,28.7323944 C25.2253707,28.730697 26.7316413,27.2154222 26.7333287,25.3457136 L26.7333287,9.24512539 C26.7310791,7.37581758 25.2249728,5.86116733 23.3667722,5.85947089 Z M24.7950083,25.3457136 C24.7950083,25.7267697 24.6445339,26.0922187 24.3766877,26.361666 C24.1088414,26.6311133 23.745564,26.7824873 23.3667722,26.7824873 L5.19399872,26.7824873 C4.40520574,26.7824873 3.76576268,26.1392218 3.76576268,25.3457136 L3.76576268,9.24512539 C3.76576268,8.86406932 3.9162371,8.49862031 4.18408332,8.22917298 C4.45192954,7.95972565 4.81520697,7.80835171 5.19399872,7.80835171 L23.3667722,7.80835171 C23.745564,7.80835171 24.1088414,7.95972564 24.3766877,8.22917297 C24.6445339,8.4986203 24.7950083,8.86406931 24.7950083,9.24512539 L24.7950083,25.3457136 Z" id="形状" fill="url(#linearGradient-3)" fill-rule="nonzero"></path>
                            <polyline id="路径-12" stroke="#0EA944" stroke-width="2.15064858" stroke-linecap="round" stroke-linejoin="round" points="14.7208791 28.0140845 14.7208791 32.5579194 24.7174603 32.5579194 24.7174603 34.4788732"></polyline>
                            <path d="M19.0733927,16.4136253 L9.48380774,16.4136253 C8.94855535,16.4136253 8.51464756,16.8501269 8.51464756,17.3885789 C8.51464756,17.9270308 8.94855535,18.3635324 9.48380774,18.3635324 L19.0733927,18.3635324 C19.608645,18.3635324 20.0425528,17.9270308 20.0425528,17.3885789 C20.0425528,16.8501269 19.608645,16.4136253 19.0733927,16.4136253 L19.0733927,16.4136253 Z" id="路径" fill="url(#linearGradient-4)" fill-rule="nonzero"></path>
                            <path d="M19.1020546,16.4194187 L9.45514578,16.4194187 C8.9166938,16.4194187 8.48019222,16.8533265 8.48019222,17.3885789 C8.48019222,17.9238312 8.9166938,18.357739 9.45514578,18.357739 L19.1020546,18.357739 C19.6405066,18.357739 20.0770082,17.9238312 20.0770082,17.3885789 C20.0770082,16.8533265 19.6405066,16.4194187 19.1020546,16.4194187 L19.1020546,16.4194187 Z" id="路径" fill="url(#linearGradient-5)" fill-rule="nonzero" transform="translate(14.278600, 17.388579) rotate(-270.000000) translate(-14.278600, -17.388579) "></path>
                        </g>
                    </g>
                </g>
            </g>
        </g>
    </g>
</svg>