<?xml version="1.0" encoding="UTF-8"?>
<svg width="24px" height="24px" viewBox="0 0 24 24" version="1.1" xmlns="http://www.w3.org/2000/svg" xmlns:xlink="http://www.w3.org/1999/xlink">
    <title>切片</title>
    <defs>
        <linearGradient x1="14.7761266%" y1="0%" x2="62.9480274%" y2="87.4410787%" id="linearGradient-1">
            <stop stop-color="#5FBEFF" offset="0%"></stop>
            <stop stop-color="#006DB8" offset="100%"></stop>
        </linearGradient>
    </defs>
    <g id="页面-1" stroke="none" stroke-width="1" fill="none" fill-rule="evenodd">
        <g id="1实时监控-全部电站浏览1" transform="translate(-341.000000, -99.000000)">
            <g id="编组-20" transform="translate(232.000000, 99.000000)">
                <g id="img/储能箱-蓝" transform="translate(109.000000, 0.000000)">
                    <g id="编组" transform="translate(5.714286, 2.857143)" fill-rule="nonzero">
                        <path d="M2.33133242,9.01645496 L7.4654084,2.0163737 L6.85910378,8.82848988 L10.5764862,8.82848988 C10.5831146,8.84562364 10.5920074,8.89925933 10.5297701,8.97970821 L5.47112269,15.9849451 L5.99216907,9.1677169 L2.28461636,9.1677169 L2.28044133,9.1541484 C2.27700231,9.13194109 2.27941107,9.08350038 2.33133242,9.01645496 Z M10.5764862,7.39991845 L8.42026555,7.39980227 L8.95248558,1.4159437 C9.14445814,-0.0318171811 7.42170582,-0.520197177 6.68690985,0.667007433 L1.13466523,8.23335488 C0.462553745,9.21248013 1.0774349,10.5962883 2.28461636,10.5962883 L4.44997983,10.5958023 L3.99084935,16.6197692 C3.80301027,18.028034 5.52583317,18.5163761 6.26057253,17.3291239 L11.72935,9.75880598 C12.3985506,8.78368263 11.7836632,7.39991845 10.5764862,7.39991845 Z" id="路径" fill="#7BC3F5"></path>
                        <path d="M1.47381363,9.01645496 L6.60788962,2.0163737 L6.001585,8.82848988 L9.71896738,8.82848988 C9.72559577,8.84562364 9.73448863,8.89925933 9.67225132,8.97970821 L4.6136039,15.9849451 L5.13465029,9.1677169 L1.42709757,9.1677169 L1.42292254,9.1541484 C1.41948352,9.13194109 1.42189228,9.08350038 1.47381363,9.01645496 Z M9.71896738,7.39991845 L7.56274676,7.39980227 L8.0949668,1.4159437 C8.28693936,-0.0318171811 6.56418704,-0.520197177 5.82939107,0.667007433 L0.277146449,8.23335488 C-0.394965038,9.21248013 0.219916122,10.5962883 1.42709757,10.5962883 L3.59246105,10.5958023 L3.13333056,16.6197692 C2.94549149,18.028034 4.66831439,18.5163761 5.40305374,17.3291239 L10.8718312,9.75880598 C11.5410318,8.78368263 10.9261444,7.39991845 9.71896738,7.39991845 Z" id="路径" fill="url(#linearGradient-1)"></path>
                    </g>
                    <rect id="矩形" x="0" y="0" width="24" height="24"></rect>
                </g>
            </g>
        </g>
    </g>
</svg>