<?xml version="1.0" encoding="UTF-8"?>
<svg width="48px" height="48px" viewBox="0 0 48 48" version="1.1" xmlns="http://www.w3.org/2000/svg" xmlns:xlink="http://www.w3.org/1999/xlink">
    <title>切片</title>
    <defs>
        <linearGradient x1="50%" y1="0%" x2="50%" y2="100%" id="linearGradient-1">
            <stop stop-color="#E1EBF5" offset="0%"></stop>
            <stop stop-color="#0EA944" offset="100%"></stop>
        </linearGradient>
        <ellipse id="path-2" cx="24.2520147" cy="19.1383596" rx="19.1531136" ry="8.69925435"></ellipse>
        <linearGradient x1="-21.786392%" y1="0%" x2="76.3881306%" y2="87.4410787%" id="linearGradient-3">
            <stop stop-color="#5FBEFF" offset="0%"></stop>
            <stop stop-color="#006DB8" offset="100%"></stop>
        </linearGradient>
        <linearGradient x1="-41.82933%" y1="48.625019%" x2="83.7557619%" y2="51.0296155%" id="linearGradient-4">
            <stop stop-color="#5FBEFF" offset="0%"></stop>
            <stop stop-color="#006DB8" offset="100%"></stop>
        </linearGradient>
    </defs>
    <g id="页面-1" stroke="none" stroke-width="1" fill="none" fill-rule="evenodd">
        <g id="1实时监控-全部电站浏览1" transform="translate(-1000.000000, -256.000000)">
            <g id="编组-16" transform="translate(216.000000, 158.000000)">
                <g id="list/电站概览备份-2" transform="translate(768.000000, 61.000000)">
                    <g id="icon/68/电量-有功" transform="translate(16.000000, 37.000000)">
                        <rect id="矩形" x="0" y="0" width="48" height="48"></rect>
                        <g id="编组-4" transform="translate(0.000000, 12.705882)">
                            <ellipse id="椭圆形备份-2" fill-opacity="0.193724626" fill="#B7DCF6" cx="24" cy="24.1093621" rx="24" ry="11.1847556"></ellipse>
                            <path d="M24.2520147,13.4217067 C32.7271372,13.4217067 39.9165838,15.9218852 42.4401057,19.3869492 L43.4051282,19.3869097 L43.4051282,22.3695112 C43.1077568,27.0590527 34.6469439,30.8202154 24.2520147,30.8202154 C13.8570854,30.8202154 5.39627255,27.0590527 5.10657014,22.3695406 L5.0989011,22.3695112 L5.0989011,19.3869097 L6.0639236,19.3869492 C8.58744547,15.9218852 15.7768921,13.4217067 24.2520147,13.4217067 Z" id="形状结合" fill="#7BC3F5"></path>
                            <g id="椭圆形">
                                <use fill="url(#linearGradient-1)" xlink:href="#path-2"></use>
                                <use fill="#B7DCF6" xlink:href="#path-2"></use>
                            </g>
                            <ellipse id="椭圆形" fill="#5FB6F2" cx="31.3250008" cy="24.4833247" rx="8.05034868" ry="1"></ellipse>
                            <g id="编组-30备份" transform="translate(14.616850, 0.000000)">
                                <g id="充电" fill-rule="nonzero">
                                    <rect id="矩形" fill="#000000" opacity="0" x="0" y="2.01077108e-08" width="20.1611722" height="19.8840099"></rect>
                                    <path d="M16.4941922,4.05499716 L14.962139,4.05499716 L14.962139,0.674708361 C14.962139,0.302077234 14.6558511,0 14.2780259,0 C13.9002007,0 13.5939128,0.302077234 13.5939128,0.674708361 L13.5939128,4.05499716 L6.44097061,4.05499716 L6.44097061,0.674708361 C6.44097062,0.433658283 6.31057941,0.210918822 6.09891408,0.0903937809 C5.88724876,-0.0301312603 5.62646633,-0.0301312603 5.414801,0.0903937809 C5.20313568,0.210918822 5.07274447,0.433658283 5.07274447,0.674708361 L5.07274447,4.05499716 L3.66635204,4.05499716 C2.35440023,4.05617184 1.29115034,5.10480488 1.28995928,6.39872086 L1.28995928,17.5402862 C1.29115034,18.8342022 2.35440023,19.8828353 3.66635204,19.8840099 L16.4941922,19.8840099 C17.806144,19.8828353 18.8693939,18.8342022 18.8705849,17.5402862 L18.8705849,6.39801065 C18.868997,5.10437203 17.8058632,4.05617116 16.4941922,4.05499716 Z M17.5023588,17.5402862 C17.5023588,17.8039929 17.3961416,18.0568987 17.2070736,18.2433675 C17.0180057,18.4298362 16.7615746,18.5345933 16.4941922,18.5345933 L3.66635204,18.5345933 C3.10955699,18.5345933 2.65818542,18.0894268 2.65818542,17.5402862 L2.65818542,6.39801065 C2.65818542,6.13430403 2.76440266,5.88139814 2.95347058,5.6949294 C3.1425385,5.50846065 3.39896962,5.40370361 3.66635204,5.40370361 L16.4941922,5.40370361 C16.7615746,5.40370361 17.0180057,5.50846065 17.2070736,5.69492939 C17.3961416,5.88139813 17.5023588,6.13430402 17.5023588,6.39801065 L17.5023588,17.5402862 Z" id="形状" fill="#7BC3F5"></path>
                                    <path d="M13.4635713,11.3589102 L6.69445252,11.3589102 C6.3166273,11.3589102 6.01033945,11.6609875 6.01033945,12.0336186 C6.01033945,12.4062497 6.3166273,12.7083269 6.69445252,12.7083269 L13.4635713,12.7083269 C13.8413965,12.7083269 14.1476844,12.4062497 14.1476844,12.0336186 C14.1476844,11.6609875 13.8413965,11.3589102 13.4635713,11.3589102 L13.4635713,11.3589102 Z" id="路径" fill="#7BC3F5"></path>
                                </g>
                                <g id="充电备份-2" transform="translate(0.281901, 0.497100)">
                                    <path d="M15.2042329,4.05499716 L13.6721797,4.05499716 L13.6721797,0.674708361 C13.6721797,0.302077234 13.3658918,0 12.9880666,0 C12.6102414,0 12.3039536,0.302077234 12.3039536,0.674708361 L12.3039536,4.05499716 L5.15101133,4.05499716 L5.15101133,0.674708361 C5.15101133,0.433658283 5.02062012,0.210918822 4.8089548,0.0903937809 C4.59728948,-0.0301312603 4.33650704,-0.0301312603 4.12484172,0.0903937809 C3.9131764,0.210918822 3.78278518,0.433658283 3.78278519,0.674708361 L3.78278519,4.05499716 L2.37639276,4.05499716 C1.06444095,4.05617184 0.00119105957,5.10480488 0,6.39872086 L0,17.5402862 C0.00119105957,18.8342022 1.06444095,19.8828353 2.37639276,19.8840099 L15.2042329,19.8840099 C16.5161847,19.8828353 17.5794346,18.8342022 17.5806257,17.5402862 L17.5806257,6.39801065 C17.5790377,5.10437203 16.5159039,4.05617116 15.2042329,4.05499716 Z M16.2123995,17.5402862 C16.2123995,17.8039929 16.1061823,18.0568987 15.9171144,18.2433675 C15.7280464,18.4298362 15.4716153,18.5345933 15.2042329,18.5345933 L2.37639276,18.5345933 C1.81959771,18.5345933 1.36822614,18.0894268 1.36822614,17.5402862 L1.36822614,6.39801065 C1.36822614,6.13430403 1.47444338,5.88139814 1.66351129,5.6949294 C1.85257921,5.50846065 2.10901034,5.40370361 2.37639276,5.40370361 L15.2042329,5.40370361 C15.4716153,5.40370361 15.7280464,5.50846065 15.9171144,5.69492939 C16.1061823,5.88139813 16.2123995,6.13430402 16.2123995,6.39801065 L16.2123995,17.5402862 Z" id="形状" fill="url(#linearGradient-3)" fill-rule="nonzero"></path>
                                    <polyline id="路径-12" stroke="#006DB8" stroke-width="2.15064858" stroke-linecap="round" stroke-linejoin="round" points="9.10124951 19.8840099 9.10124951 23.0285324 16.1576598 23.0285324 16.1576598 24.3579122"></polyline>
                                    <path d="M12.173612,11.3589102 L5.40449324,11.3589102 C5.02666802,11.3589102 4.72038017,11.6609875 4.72038017,12.0336186 C4.72038017,12.4062497 5.02666802,12.7083269 5.40449324,12.7083269 L12.173612,12.7083269 C12.5514372,12.7083269 12.8577251,12.4062497 12.8577251,12.0336186 C12.8577251,11.6609875 12.5514372,11.3589102 12.173612,11.3589102 L12.173612,11.3589102 Z" id="路径" fill="url(#linearGradient-4)" fill-rule="nonzero"></path>
                                </g>
                            </g>
                        </g>
                    </g>
                </g>
            </g>
        </g>
    </g>
</svg>