<?xml version="1.0" standalone="no"?><!DOCTYPE svg PUBLIC "-//W3C//DTD SVG 1.1//EN" "http://www.w3.org/Graphics/SVG/1.1/DTD/svg11.dtd"><svg t="1692863701719" class="icon" viewBox="0 0 1024 1024" version="1.1" xmlns="http://www.w3.org/2000/svg" p-id="8159" width="12" height="12" xmlns:xlink="http://www.w3.org/1999/xlink"><path d="M642.2 594.1H383.9c-7.3 0-13.3-6-13.3-13.3 0-7.3 6-13.3 13.3-13.3h258.3c7.3 0 13.3 6 13.3 13.3 0 7.3-6 13.3-13.3 13.3zM642.2 686.7H383.9c-7.3 0-13.3-6-13.3-13.3 0-7.3 6-13.3 13.3-13.3h258.3c7.3 0 13.3 6 13.3 13.3 0 7.4-6 13.3-13.3 13.3z" fill="#595757" p-id="8160"></path><path d="M513 807c-7.3 0-13.3-6-13.3-13.3V580.8c0-7.3 6-13.3 13.3-13.3 7.3 0 13.3 6 13.3 13.3v212.9c0 7.3-5.9 13.3-13.3 13.3z" fill="#595757" p-id="8161"></path><path d="M517.1 576.2c-3.2 0-6.3-1.1-8.9-3.4-5.5-4.9-5.9-13.3-1-18.8L614 435.2c4.9-5.5 13.3-5.9 18.8-1s5.9 13.3 1 18.8L527 571.8c-2.7 2.9-6.3 4.4-9.9 4.4z" fill="#595757" p-id="8162"></path><path d="M509 576.2c-3.6 0-7.3-1.5-9.9-4.4L392.3 452.9c-4.9-5.5-4.5-13.9 1-18.8s13.9-4.5 18.8 1L518.9 554c4.9 5.5 4.5 13.9-1 18.8-2.6 2.2-5.7 3.4-8.9 3.4z" fill="#595757" p-id="8163"></path><path d="M667.6 323.4h-61c143.6 52.8 248.3 218.9 248.3 360.7 0 154.9-127.8 247.5-341.9 247.5S171.2 839 171.2 684.1c0-141.8 104.7-307.9 248.3-360.7h-61C232 396.9 144.6 550.5 144.6 684.1c0 169 141.2 274 368.5 274s368.5-105 368.5-274c-0.1-133.6-87.5-287.2-214-360.7zM344 262.5h50.7c-38.5-18.2-63.3-44.6-63.3-73.7 0-53.3 83.2-98.3 181.6-98.3s181.6 45 181.6 98.3c0 29.1-24.8 55.6-63.3 73.7H682c24.7-20.5 39.2-45.9 39.2-73.7 0-70.1-91.5-124.9-208.2-124.9-116.8 0-208.2 54.9-208.2 124.9 0 27.8 14.5 53.2 39.2 73.7z" fill="#595757" p-id="8164"></path><path d="M707.1 336.7H319c-20.7 0-37.5-16.8-37.5-37.5v-12.4c0-20.7 16.8-37.5 37.5-37.5h388.2c20.7 0 37.5 16.8 37.5 37.5v12.4c-0.1 20.6-16.9 37.5-37.6 37.5zM319 275.8c-6 0-10.9 4.9-10.9 10.9v12.4c0 6 4.9 10.9 10.9 10.9h388.2c6 0 10.9-4.9 10.9-10.9v-12.4c0-6-4.9-10.9-10.9-10.9H319z" fill="#595757" p-id="8165"></path></svg>