<?xml version="1.0" encoding="UTF-8"?>
<svg width="24px" height="24px" viewBox="0 0 24 24" version="1.1" xmlns="http://www.w3.org/2000/svg" xmlns:xlink="http://www.w3.org/1999/xlink">
    <title>切片</title>
    <g id="页面-1" stroke="none" stroke-width="1" fill="none" fill-rule="evenodd">
        <g id="icon" transform="translate(-431.000000, -113.000000)">
            <g id="icon/24/智能分析" transform="translate(431.000000, 113.000000)">
                <rect id="矩形" x="0" y="0" width="24" height="24"></rect>
                <path d="M18.9275,16.9030172 L6.0725,16.9030172 C5.48,16.9030172 5,16.4202586 5,15.8243534 L5,6.0862069 C5,5.49030172 5.48,5 6.0725,5 L18.9275,5 C19.52,5 20,5.48275862 20,6.0862069 L20,15.8243534 C20,16.4202586 19.52,16.9030172 18.9275,16.9030172 Z M6.0575,15.8469828 L18.9425,15.8469828 L18.9425,6.06357759 L6.0575,6.06357759 L6.0575,15.8469828 Z M5.5325,19 C5.24,19 5,18.7661638 5,18.4719828 C5,18.1853448 5.24,17.9515086 5.5325,17.9515086 L19.46,17.9364224 C19.7525,17.9364224 20,18.1702586 20,18.4644397 C20,18.7510776 19.76,18.9924569 19.46,18.9924569 L5.5325,19 C5.54,19 5.5325,19 5.5325,19 Z M7.9925,12.4450431 C7.8125,12.6788793 7.4825,12.7165948 7.25,12.5355603 C7.0175,12.3545259 6.98,12.0226293 7.16,11.7887931 L8.45,10.1368534 C8.6825,9.84267241 9.14,9.87284483 9.32,10.2047414 L10.3775,12.0829741 L12.035,9.03556034 C12.215,8.7112069 12.6575,8.66594828 12.8975,8.9450431 L14.705,11.049569 L17.0075,8.13038793 C17.1875,7.90409483 17.5175,7.85883621 17.75,8.04741379 C17.975,8.22844828 18.02,8.56034483 17.8325,8.79418103 L15.14,12.2112069 C14.9375,12.4752155 14.5475,12.4827586 14.33,12.2262931 L12.605,10.2122845 L10.85,13.4331897 C10.655,13.7952586 10.13,13.8028017 9.9275,13.4407328 L8.795,11.419181 L7.9925,12.4450431 L7.9925,12.4450431 Z" id="形状" fill="#333333" fill-rule="nonzero"></path>
                <rect id="矩形" x="0" y="0" width="24" height="24"></rect>
            </g>
        </g>
    </g>
</svg>