<?xml version="1.0" encoding="UTF-8"?>
<svg width="24px" height="24px" viewBox="0 0 24 24" version="1.1" xmlns="http://www.w3.org/2000/svg" xmlns:xlink="http://www.w3.org/1999/xlink">
    <title>切片</title>
    <g id="页面-1" stroke="none" stroke-width="1" fill="none" fill-rule="evenodd">
        <g id="icon" transform="translate(-73.000000, -113.000000)">
            <g id="icon/24/监控" transform="translate(73.000000, 113.000000)">
                <path d="M14.7687469,18.6965929 C15.1286728,18.6965929 15.4204504,18.9883705 15.4204504,19.3482964 C15.4204504,19.7082224 15.1286728,20 14.7687469,20 L8.23125315,20 C7.87132721,20 7.57954958,19.7082224 7.57954958,19.3482964 C7.57954958,18.9883705 7.87132721,18.6965929 8.23125315,18.6965929 L14.7687469,18.6965929 Z M11.5,3 C15.6354411,3 19,6.2532551 19,10.2518907 C19,14.2505263 15.6354411,17.5037814 11.5,17.5037814 C7.36455891,17.5037814 4,14.2505263 4,10.2518907 C4,6.25325512 7.36455889,3 11.5,3 Z M11.5,4.30358257 C8.10786425,4.30358257 5.34818211,6.971971 5.34818211,10.2518907 C5.34818211,13.5318104 8.10786425,16.2001988 11.5,16.2001988 C14.8921358,16.2001988 17.6519993,13.5318104 17.6519993,10.2518907 C17.6519993,6.971971 14.8921358,4.30358257 11.5,4.30358257 Z M10.6271045,8.78964561 C11.1673607,8.48802347 11.8330022,8.48802347 12.3732583,8.78964561 C12.9135145,9.09126776 13.246296,9.64868195 13.2462324,10.2518907 C13.246296,10.8550994 12.9135145,11.4125136 12.3732583,11.7141358 C11.8330022,12.0157579 11.1673607,12.0157579 10.6271045,11.7141358 C10.0868483,11.4125136 9.75406683,10.8550994 9.75413049,10.2518907 C9.75406683,9.64868195 10.0868483,9.09126776 10.6271045,8.78964561 Z" id="形状结合" fill="#333333" fill-rule="nonzero"></path>
                <rect id="矩形" x="0" y="0" width="24" height="24"></rect>
            </g>
        </g>
    </g>
</svg>