<?xml version="1.0" encoding="UTF-8"?>
<svg width="24px" height="24px" viewBox="0 0 24 24" version="1.1" xmlns="http://www.w3.org/2000/svg" xmlns:xlink="http://www.w3.org/1999/xlink">
    <title>切片</title>
    <g id="页面-1" stroke="none" stroke-width="1" fill="none" fill-rule="evenodd">
        <g id="icon" transform="translate(-433.000000, -328.000000)">
            <g id="icon/24/热管理" transform="translate(433.000000, 328.000000)">
                <rect id="矩形" x="0" y="0" width="24" height="24"></rect>
                <path d="M18.5104777,12.9720305 C19.165302,12.9720305 19.7067409,13.4564901 19.7718629,14.0807246 L19.7784288,14.2073331 L19.7784288,17.264178 C19.7784288,17.5936571 19.6436148,17.909065 19.4043431,18.1407618 C19.2005504,18.3381028 18.9352838,18.4610037 18.6528941,18.4920908 L18.5104777,18.4999028 L5.26795115,18.4999028 C4.9332748,18.4999028 4.61184384,18.370993 4.37408574,18.1407618 C4.16899576,17.9421645 4.0406501,17.6820653 4.00816542,17.4043188 L4,17.264178 L4,14.2073331 C4,13.8778863 4.13501927,13.5624713 4.37447124,13.3307985 C4.57834979,13.1335435 4.84366922,13.0107534 5.1260064,12.9797834 L5.26838747,12.9720305 L18.5104777,12.9720305 Z M18.405,14.3159028 L5.372,14.3159028 L5.372,17.1549028 L18.405,17.1549028 L18.405,14.3159028 Z M14.73266,6.00141074 L14.7832986,6.00553664 L14.8988658,6.02827507 C15.1332144,6.09713732 15.3133193,6.28334635 15.3698372,6.51819338 C15.7472071,8.08809059 14.9144637,9.33171785 13.0305024,10.1262144 L12.8084661,10.2158869 C11.4688163,10.7343405 10.9962548,11.2683124 11.1761411,11.9150071 L11.2079906,12.0128689 C11.3015766,12.2429244 11.2584269,12.5044439 11.096365,12.6937933 C10.936678,12.8803681 10.6869441,12.9673682 10.4436114,12.9225612 C10.1989776,12.8775146 9.99748563,12.705953 9.92139945,12.4802229 C9.38530222,11.0403676 10.1759751,9.85308971 12.0873511,9.05262848 L12.3043277,8.965287 C13.738844,8.41066306 14.252684,7.73866271 14.0332994,6.82685736 C13.9764158,6.5904911 14.0540333,6.34301894 14.2353118,6.17874965 C14.3148801,6.10664718 14.4098848,6.05472538 14.5228553,6.02522042 L14.6419082,6.00327055 L14.73266,6.00141074 Z M9.5055231,6.01726919 C9.87201104,5.93459514 10.2405436,6.15646387 10.3276193,6.51810069 C10.7050322,8.08817665 9.87254193,9.33177552 7.98870696,10.1262281 L7.76668467,10.2158955 C6.35965463,10.7602718 5.90902958,11.3217042 6.1689988,12.0199811 C6.29988702,12.3721688 6.11170243,12.7589898 5.75397787,12.8835446 C5.40000894,13.0067917 5.00859898,12.8283932 4.87920383,12.4802229 C4.34310661,11.0403676 5.13377944,9.85308971 7.04515553,9.05262848 L7.26213213,8.965287 C8.69681179,8.41059989 9.21089148,7.73852455 8.99154691,6.82688572 C8.90379709,6.46244905 9.13635114,6.10054873 9.5055231,6.01726919 Z M19.589478,6.01726919 C19.9559659,5.93459514 20.3244985,6.15646387 20.4115742,6.51810069 C20.7893988,8.08799585 19.9567468,9.33167725 18.0726879,10.126218 L17.8506396,10.2158955 C16.4436095,10.7602718 15.9929845,11.3217042 16.2529537,12.0199811 C16.3838419,12.3721688 16.1956573,12.7589898 15.8379328,12.8835446 C15.4839638,13.0067917 15.0925539,12.8283932 14.9631341,12.4801568 C14.4274904,11.040277 15.2182587,9.85304929 17.1295365,9.05263212 L17.3465014,8.96529551 C18.7808293,8.41058878 19.2948375,7.73848769 19.0755018,6.82688572 C18.987752,6.46244905 19.220306,6.10054873 19.589478,6.01726919 Z" id="形状结合" fill="#333333" fill-rule="nonzero"></path>
            </g>
        </g>
    </g>
</svg>