<?xml version="1.0" encoding="UTF-8"?>
<svg width="24px" height="24px" viewBox="0 0 24 24" version="1.1" xmlns="http://www.w3.org/2000/svg" xmlns:xlink="http://www.w3.org/1999/xlink">
    <title>切片</title>
    <defs>
        <linearGradient x1="17.6199358%" y1="10.2989489%" x2="83.7557619%" y2="87.4410787%" id="linearGradient-1">
            <stop stop-color="#D1D1D1" offset="0%"></stop>
            <stop stop-color="#909090" offset="100%"></stop>
        </linearGradient>
    </defs>
    <g id="页面-1" stroke="none" stroke-width="1" fill="none" fill-rule="evenodd">
        <g id="1实时监控-全部电站浏览1" transform="translate(-777.000000, -99.000000)">
            <g id="编组-20" transform="translate(232.000000, 99.000000)">
                <g id="img/储能箱-蓝" transform="translate(545.000000, 0.000000)">
                    <g id="编组-3" transform="translate(3.428571, 4.000000)" fill-rule="nonzero">
                        <path d="M5.24515566,5.8157316 L6.30419959,6.87479109 C5.38393122,7.80562222 4.4392068,8.7119522 3.47101715,9.5928305 C2.93509614,10.1367583 2.63913975,10.8534633 2.63913975,11.6181618 C2.64213563,12.7833732 3.34514386,13.8326083 4.42164027,14.278532 C5.49813667,14.7244557 6.73715579,14.4796784 7.56321403,13.6578912 L10.3148085,10.9062563 L11.3754522,11.9669155 L8.62385771,14.7185505 C7.80214006,15.540128 6.68708874,16.0006619 5.52511441,15.9983807 L5.52671417,15.9999903 C4.36313622,16.0024427 3.24664604,15.5406386 2.42477134,14.7169507 C0.715552409,13.0040142 0.715552409,10.2307097 2.42477134,8.51777312 L2.64393904,8.2986022 L2.66633573,8.2986022 C3.05027914,7.94824869 3.94614712,7.11475925 5.24515566,5.8157316 Z M10.7067507,8.54976887 L15.6420234,13.4851141 C15.8573959,13.6990922 15.9222285,14.0219512 15.8061583,14.3024875 C15.6900881,14.5830239 15.4160966,14.7656923 15.1125014,14.7649466 C14.9136472,14.7647598 14.7230716,14.6853041 14.5829795,14.5441736 L9.64610705,9.60882838 C9.35366015,9.3159354 9.35401827,8.84142018 9.64690693,8.54896898 C9.9397956,8.25651777 10.4143038,8.25687589 10.7067507,8.54976887 Z M15.8611911,1.28193306 L15.9155831,1.33792564 C17.5728719,3.05898702 17.5486944,5.78966506 15.8611911,7.48111065 L15.8291958,7.5131064 C15.8179974,7.52110534 14.789349,8.43458415 13.0408067,10.184752 L13.0408067,10.1863518 L11.9817628,9.12569247 C12.9020579,8.19540731 13.846782,7.28961111 14.8149453,6.40925285 C15.9262625,5.27978782 15.9198374,3.46575644 14.8005474,2.34419214 L14.7941483,2.33619321 C13.6655096,1.21779759 11.845386,1.22137212 10.7211486,2.34419214 L7.96955414,5.09582709 L6.91051023,4.03516781 L9.6621047,1.28193306 C11.375016,-0.427311021 14.1482798,-0.427311021 15.8611911,1.28193306 Z M3.81176692,1.60668999 L8.74703955,6.54203523 C8.96220386,6.75580826 9.02713662,7.07827759 8.91147747,7.35866753 C8.79581832,7.63905747 8.52242122,7.82196369 8.21911736,7.82186549 C8.02081795,7.82125591 7.83089619,7.74183292 7.69119517,7.60109474 L2.752723,2.66574948 C2.56354302,2.47656672 2.48965983,2.20082684 2.55890451,1.94239838 C2.62814919,1.68396993 2.83000182,1.48211433 3.08842647,1.41286863 C3.34685113,1.34362294 3.62258695,1.41750722 3.81176692,1.60668999 Z" id="形状结合" fill="#D5D5D5"></path>
                        <path d="M4.10229852,5.8157316 L5.16134244,6.87479109 C4.24107407,7.80562222 3.29634966,8.7119522 2.32816,9.5928305 C1.79223899,10.1367583 1.4962826,10.8534633 1.4962826,11.6181618 C1.49927848,12.7833732 2.20228672,13.8326083 3.27878312,14.278532 C4.35527953,14.7244557 5.59429865,14.4796784 6.42035689,13.6578912 L9.17195136,10.9062563 L10.232595,11.9669155 L7.48100057,14.7185505 C6.65928292,15.540128 5.54423159,16.0006619 4.38225726,15.9983807 L4.38385703,15.9999903 C3.22027908,16.0024427 2.1037889,15.5406386 1.2819142,14.7169507 C-0.427304734,13.0040142 -0.427304734,10.2307097 1.2819142,8.51777312 L1.50108189,8.2986022 L1.52347859,8.2986022 C1.907422,7.94824869 2.80328998,7.11475925 4.10229852,5.8157316 Z M9.5638936,8.54976887 L14.4991662,13.4851141 C14.7145388,13.6990922 14.7793714,14.0219512 14.6633012,14.3024875 C14.547231,14.5830239 14.2732395,14.7656923 13.9696443,14.7649466 C13.77079,14.7647598 13.5802145,14.6853041 13.4401223,14.5441736 L8.50324991,9.60882838 C8.210803,9.3159354 8.21116112,8.84142018 8.50404979,8.54896898 C8.79693846,8.25651777 9.2714467,8.25687589 9.5638936,8.54976887 Z M14.7183339,1.28193306 L14.7727259,1.33792564 C16.4300148,3.05898702 16.4058372,5.78966506 14.7183339,7.48111065 L14.6863386,7.5131064 C14.6751403,7.52110534 13.6464919,8.43458415 11.8979496,10.184752 L11.8979496,10.1863518 L10.8389057,9.12569247 C11.7592008,8.19540731 12.7039248,7.28961111 13.6720881,6.40925285 C14.7834053,5.27978782 14.7769803,3.46575644 13.6576902,2.34419214 L13.6512912,2.33619321 C12.5226525,1.21779759 10.7025288,1.22137212 9.57829148,2.34419214 L6.826697,5.09582709 L5.76765309,4.03516781 L8.51924755,1.28193306 C10.2321589,-0.427311021 13.0054226,-0.427311021 14.7183339,1.28193306 Z M2.66890978,1.60668999 L7.60418241,6.54203523 C7.81934672,6.75580826 7.88427948,7.07827759 7.76862033,7.35866753 C7.65296118,7.63905747 7.37956408,7.82196369 7.07626022,7.82186549 C6.8779608,7.82125591 6.68803904,7.74183292 6.54833802,7.60109474 L1.60986586,2.66574948 C1.42068588,2.47656672 1.34680269,2.20082684 1.41604736,1.94239838 C1.48529204,1.68396993 1.68714468,1.48211433 1.94556933,1.41286863 C2.20399399,1.34362294 2.47972981,1.41750722 2.66890978,1.60668999 Z" id="形状结合" fill="url(#linearGradient-1)"></path>
                    </g>
                    <rect id="矩形" x="0" y="0" width="24" height="24"></rect>
                </g>
            </g>
        </g>
    </g>
</svg>