<?xml version="1.0" encoding="UTF-8"?>
<svg width="24px" height="24px" viewBox="0 0 24 24" version="1.1" xmlns="http://www.w3.org/2000/svg" xmlns:xlink="http://www.w3.org/1999/xlink">
    <title>切片</title>
    <g id="页面-1" stroke="none" stroke-width="1" fill="none" fill-rule="evenodd">
        <g id="3实施监控-电站概览-1" transform="translate(-232.000000, -100.000000)">
            <g id="编组" transform="translate(232.000000, 98.000000)">
                <g id="icon/24/排版" transform="translate(0.000000, 2.000000)">
                    <path d="M20.9820552,7.61566146 C20.9900919,7.58534722 20.9959185,7.5540358 20.9983295,7.5217272 C21.0174166,7.27841553 20.8671308,7.05345196 20.6340673,6.97607087 L14.7612687,5.02738376 C14.6782996,4.99996787 14.5897836,4.9929097 14.5034924,5.00724074 L3.44744175,6.83566808 C3.44402617,6.83626638 3.4408115,6.83766244 3.43739591,6.83826074 C3.42493907,6.84045454 3.41328589,6.84424382 3.40123089,6.84743479 C3.38134012,6.85262012 3.36165027,6.85820432 3.34276409,6.86538401 C3.33050817,6.87017047 3.31885499,6.8753558 3.30720181,6.88094 C3.2891193,6.88931631 3.27184045,6.89868979 3.25516436,6.90906045 C3.24451577,6.91564183 3.23406809,6.92202378 3.22402225,6.92920346 C3.20694432,6.94136905 3.19087098,6.95493068 3.17540038,6.96909062 C3.16736371,6.97627031 3.1589252,6.98305113 3.15149128,6.99082912 C3.13220327,7.01057327 3.1147235,7.03171346 3.09885107,7.0542497 C3.09644007,7.05764011 3.09342632,7.06063165 3.09101532,7.06402206 C3.07341626,7.09027704 3.0582199,7.11804291 3.04560812,7.14698735 C3.04138886,7.1567597 3.03837511,7.16713036 3.03475861,7.17710215 C3.02732469,7.1974446 3.02049352,7.21778705 3.01526968,7.23912668 C3.01245684,7.25129227 3.01064859,7.26365729 3.00863942,7.2760223 C3.00683117,7.28739014 3.0036165,7.29835911 3.002411,7.30992639 C3.00140642,7.32009761 3.002411,7.3300694 3.00200917,7.34024063 C3.00180825,7.34702145 3,7.35360283 3,7.36038364 L3,16.9360937 C3,17.1433075 3.12135376,17.3317743 3.31081832,17.4189278 L8.82960148,19.9509646 C8.93662422,20.0000035 9.05694768,20.0127055 9.17196374,19.9870625 L20.4807678,17.4624048 C20.7230734,17.4083577 20.8962637,17.1959586 20.8988757,16.9494559 L20.9999701,7.75048005 C21.0005396,7.70361264 20.9929047,7.65893902 20.9820552,7.61566146 Z M14.548096,6.07821094 L18.2618424,7.3105247 L9.10646485,8.84538254 L5.60810122,7.55662846 L14.548096,6.07821094 Z M8.51858224,9.76318606 L8.51858224,18.6364833 L4.07108756,16.5958563 L4.07108756,8.1246216 L8.51858224,9.76318606 Z M9.59007163,18.8036105 L9.59007163,9.84296037 L19.9244291,8.11046165 L19.8320074,16.5170791 L9.59007163,18.8036105 Z" id="形状" fill="#B8BEBB" fill-rule="nonzero"></path>
                    <path d="M11.3961129,10.3850269 C11.1594329,10.3850269 10.9675573,10.575488 10.9675573,10.8104234 L10.9675573,17.3894113 C10.9675573,17.6243466 11.1594329,17.8148078 11.3961129,17.8148078 C11.6327929,17.8148078 11.8246685,17.6243466 11.8246685,17.3894113 L11.8246685,10.8106228 C11.8246685,10.5756875 11.6327929,10.3850269 11.3961129,10.3850269 Z M14.846042,9.74654875 C14.609362,9.74654875 14.4174864,9.93700993 14.4174864,10.1719453 L14.4174864,16.5736726 C14.4174864,16.808608 14.609362,16.9990692 14.846042,16.9990692 C15.082722,16.9990692 15.2745976,16.808608 15.2745976,16.5736726 L15.2745976,10.1719453 C15.2745976,9.93700993 15.082722,9.74654875 14.846042,9.74654875 Z M18.1463153,9.10684287 C17.9096352,9.10684287 17.7177597,9.29730405 17.7177597,9.53223941 L17.7177597,15.9353249 C17.7177597,16.1702603 17.9096352,16.3607215 18.1463153,16.3607215 C18.3829953,16.3607215 18.5748708,16.1702603 18.5748708,15.9353249 L18.5748708,9.53223941 C18.5748708,9.29730405 18.3829953,9.10684287 18.1463153,9.10684287 Z" id="形状" fill="#B8BEBB" fill-rule="nonzero"></path>
                    <rect id="矩形" x="0" y="0" width="24" height="24"></rect>
                </g>
            </g>
        </g>
    </g>
</svg>