<?xml version="1.0" encoding="UTF-8"?>
<svg width="68px" height="69px" viewBox="0 0 68 69" version="1.1" xmlns="http://www.w3.org/2000/svg" xmlns:xlink="http://www.w3.org/1999/xlink">
    <title>切片</title>
    <defs>
        <linearGradient x1="50%" y1="0%" x2="50%" y2="100%" id="linearGradient-1">
            <stop stop-color="#E1EBF5" offset="0%"></stop>
            <stop stop-color="#0EA944" offset="100%"></stop>
        </linearGradient>
        <ellipse id="path-2" cx="34.3570208" cy="12.5704225" rx="27.1335775" ry="12.5704225"></ellipse>
        <linearGradient x1="-41.82933%" y1="0%" x2="83.7557619%" y2="87.4410787%" id="linearGradient-3">
            <stop stop-color="#C5EAD2" offset="0%"></stop>
            <stop stop-color="#0EA944" offset="100%"></stop>
        </linearGradient>
    </defs>
    <g id="页面-1" stroke="none" stroke-width="1" fill="none" fill-rule="evenodd">
        <g id="icon说明" transform="translate(-171.000000, -388.000000)">
            <g id="icon/68/电量-充备份-10" transform="translate(171.000000, 388.800000)">
                <rect id="矩形" x="0" y="0" width="68" height="68"></rect>
                <g id="编组-7备份-4" transform="translate(0.000000, 14.000000)">
                    <g id="编组-4" transform="translate(0.000000, 18.084507)">
                        <ellipse id="椭圆形备份-2" fill-opacity="0.399622137" fill="#CEF8DD" cx="34" cy="19.7535211" rx="34" ry="16.1619718"></ellipse>
                        <path d="M34.3570208,4.30985915 C46.3629258,4.30985915 56.5476139,7.92230505 60.1230198,12.9289857 L61.4905983,12.9295775 L61.4905983,17.2394366 L61.4797457,17.2392825 C61.0695539,24.0157189 49.083313,29.4507042 34.3570208,29.4507042 C19.6307285,29.4507042 7.64448761,24.0157189 7.23429579,17.2392825 L7.22344322,17.2394366 L7.22344322,12.9295775 L8.59102171,12.9289857 C12.1664276,7.92230505 22.3511157,4.30985915 34.3570208,4.30985915 Z" id="形状结合" fill="#B9F6CF"></path>
                        <g id="椭圆形">
                            <use fill="url(#linearGradient-1)" xlink:href="#path-2"></use>
                            <use fill="#CEF8DD" xlink:href="#path-2"></use>
                        </g>
                        <ellipse id="椭圆形" fill="#ACEBC3" cx="45.5667888" cy="14.4366197" rx="13.5667888" ry="1.43661972"></ellipse>
                    </g>
                    <g id="功率" transform="translate(19.000000, 0.000000)" fill-rule="nonzero">
                        <rect id="矩形" fill="#0EA944" opacity="0" x="1.07619048" y="3" width="28.5616606" height="28.7323944"></rect>
                        <path d="M18,0 C27.1126984,0 34.5,7.38730163 34.5,16.5 C34.5,25.6126984 27.1126984,33 18,33 C8.88730163,33 1.5,25.6126984 1.5,16.5 C1.5,7.38730163 8.88730163,0 18,0 Z M18,1.85 C9.63119537,1.85 3.35,8.13119537 3.35,16.5 C3.35,24.8688046 9.63119537,31.15 18,31.15 C26.3688046,31.15 32.65,24.8688046 32.65,16.5 C32.65,8.13119537 26.3688046,1.85 18,1.85 Z M14.9281601,11.6924232 C15.2754019,11.6933225 15.5904683,11.8947292 15.7353661,12.2084311 L15.7353661,12.2084311 L18.8652138,19.0717717 L22.0104578,14.8081482 C22.2032868,14.546515 22.5253844,14.4117078 22.8483923,14.4574484 C23.1714001,14.503189 23.4428191,14.7220431 23.5544867,15.0267956 L23.5544867,15.0267956 L24.4430732,17.4537812 L29.0641625,17.4537812 C29.5524857,17.4537812 29.948399,17.8473061 29.948399,18.3327436 C29.9501173,18.5665935 29.8576008,18.7914067 29.691463,18.9569735 C29.5253253,19.1225403 29.2994062,19.2150684 29.0641625,19.2138925 L29.0641625,19.2138925 L23.8228222,19.2138925 C23.4533111,19.2138925 23.1189914,18.9799398 22.9914221,18.634477 L22.9914221,18.634477 L22.45915,17.1760991 L19.3952864,21.326026 C19.2079167,21.5750287 18.902644,21.7077534 18.5915248,21.6754806 C18.2804056,21.6432078 18.0092728,21.450692 17.8776512,21.1685999 L17.8776512,21.1685999 L14.7170108,14.2418516 L12.4251617,17.1039455 C12.2577929,17.3131231 12.0033937,17.4347386 11.7345277,17.434103 L11.7345277,17.434103 L6.42500381,17.434103 C5.93668055,17.434103 5.54081633,17.0405781 5.54081633,16.5551406 C5.54081633,16.0697031 5.93668055,15.6761782 6.42500381,15.6761782 L6.42500381,15.6761782 L11.3078302,15.6761782 L14.2375261,12.0247673 C14.4044545,11.81477 14.6589207,11.6923168 14.9281601,11.6924232 Z" id="形状结合" fill="#96ECB5"></path>
                        <path d="M16.5,0 C25.6126984,0 33,7.38730163 33,16.5 C33,25.6126984 25.6126984,33 16.5,33 C7.38730163,33 0,25.6126984 0,16.5 C0,7.38730163 7.38730163,0 16.5,0 Z M16.5,1.85 C8.13119537,1.85 1.85,8.13119537 1.85,16.5 C1.85,24.8688046 8.13119537,31.15 16.5,31.15 C24.8688046,31.15 31.15,24.8688046 31.15,16.5 C31.15,8.13119537 24.8688046,1.85 16.5,1.85 Z M13.4281601,11.6924232 C13.7754019,11.6933225 14.0904683,11.8947292 14.2353661,12.2084311 L14.2353661,12.2084311 L17.3652138,19.0717717 L20.5104578,14.8081482 C20.7032868,14.546515 21.0253844,14.4117078 21.3483923,14.4574484 C21.6714001,14.503189 21.9428191,14.7220431 22.0544867,15.0267956 L22.0544867,15.0267956 L22.9430732,17.4537812 L27.5641625,17.4537812 C28.0524857,17.4537812 28.448399,17.8473061 28.448399,18.3327436 C28.4501173,18.5665935 28.3576008,18.7914067 28.191463,18.9569735 C28.0253253,19.1225403 27.7994062,19.2150684 27.5641625,19.2138925 L27.5641625,19.2138925 L22.3228222,19.2138925 C21.9533111,19.2138925 21.6189914,18.9799398 21.4914221,18.634477 L21.4914221,18.634477 L20.95915,17.1760991 L17.8952864,21.326026 C17.7079167,21.5750287 17.402644,21.7077534 17.0915248,21.6754806 C16.7804056,21.6432078 16.5092728,21.450692 16.3776512,21.1685999 L16.3776512,21.1685999 L13.2170108,14.2418516 L10.9251617,17.1039455 C10.7577929,17.3131231 10.5033937,17.4347386 10.2345277,17.434103 L10.2345277,17.434103 L4.92500381,17.434103 C4.43668055,17.434103 4.04081633,17.0405781 4.04081633,16.5551406 C4.04081633,16.0697031 4.43668055,15.6761782 4.92500381,15.6761782 L4.92500381,15.6761782 L9.80783022,15.6761782 L12.7375261,12.0247673 C12.9044545,11.81477 13.1589207,11.6923168 13.4281601,11.6924232 Z" id="形状结合" fill="url(#linearGradient-3)"></path>
                    </g>
                </g>
            </g>
        </g>
    </g>
</svg>