<?xml version="1.0" encoding="UTF-8"?>
<svg width="48px" height="48px" viewBox="0 0 48 48" version="1.1" xmlns="http://www.w3.org/2000/svg" xmlns:xlink="http://www.w3.org/1999/xlink">
    <title>切片</title>
    <defs>
        <linearGradient x1="50%" y1="0%" x2="50%" y2="100%" id="linearGradient-1">
            <stop stop-color="#E1EBF5" offset="0%"></stop>
            <stop stop-color="#0EA944" offset="100%"></stop>
        </linearGradient>
        <ellipse id="path-2" cx="24.2520147" cy="8.87323944" rx="19.1531136" ry="8.87323944"></ellipse>
        <linearGradient x1="-41.82933%" y1="0%" x2="83.7557619%" y2="87.4410787%" id="linearGradient-3">
            <stop stop-color="#5FBEFF" offset="0%"></stop>
            <stop stop-color="#006DB8" offset="100%"></stop>
        </linearGradient>
    </defs>
    <g id="页面-1" stroke="none" stroke-width="1" fill="none" fill-rule="evenodd">
        <g id="1实时监控-全部电站浏览1" transform="translate(-1452.000000, -766.000000)">
            <g id="编组-16备份-3" transform="translate(216.000000, 668.000000)">
                <g id="编组-23" transform="translate(316.000000, 61.000000)">
                    <g id="list/电站概览备份" transform="translate(904.000000, 0.000000)">
                        <g id="icon/68/电量-有功" transform="translate(16.000000, 37.000000)">
                            <rect id="矩形" x="0" y="0" width="48" height="48"></rect>
                            <g id="编组-7备份-4" transform="translate(0.000000, 9.882353)">
                                <g id="编组-4" transform="translate(0.000000, 12.765534)">
                                    <ellipse id="椭圆形备份-2" fill-opacity="0.193724626" fill="#B7DCF6" cx="24" cy="13.943662" rx="24" ry="11.4084507"></ellipse>
                                    <path d="M24.2520147,3.04225352 C32.7271564,3.04225352 39.9166165,5.5924472 42.4401229,9.12682488 L43.4051282,9.12676056 L43.4051282,12.1690141 C43.1082277,16.9521329 34.6472332,20.7887324 24.2520147,20.7887324 C13.8567961,20.7887324 5.39580162,16.9521329 5.10654597,12.1686447 L5.0989011,12.1690141 L5.0989011,9.12676056 L6.06390642,9.12682488 C8.58741285,5.5924472 15.7768729,3.04225352 24.2520147,3.04225352 Z" id="形状结合" fill="#7BC3F5"></path>
                                    <g id="椭圆形">
                                        <use fill="url(#linearGradient-1)" xlink:href="#path-2"></use>
                                        <use fill="#B7DCF6" xlink:href="#path-2"></use>
                                    </g>
                                    <ellipse id="椭圆形" fill="#5FB6F2" cx="32.1647921" cy="10.1905551" rx="9.57655678" ry="1.01408451"></ellipse>
                                </g>
                                <g id="功率" transform="translate(13.411765, 0.000000)" fill-rule="nonzero">
                                    <rect id="矩形" fill="#0EA944" opacity="0" x="0.759663866" y="2.11764706" width="20.1611722" height="20.2816901"></rect>
                                    <path d="M12.7058824,0 C19.1383753,0 24.3529412,5.21456586 24.3529412,11.6470588 C24.3529412,18.0795518 19.1383753,23.2941176 12.7058824,23.2941176 C6.27338938,23.2941176 1.05882353,18.0795518 1.05882353,11.6470588 C1.05882353,5.21456586 6.27338938,0 12.7058824,0 Z M12.7058824,1.30588235 C6.79849085,1.30588235 2.36470588,5.73966732 2.36470588,11.6470588 C2.36470588,17.5544503 6.79849085,21.9882353 12.7058824,21.9882353 C18.6132739,21.9882353 23.0470588,17.5544503 23.0470588,11.6470588 C23.0470588,5.73966732 18.6132739,1.30588235 12.7058824,1.30588235 Z M10.5375248,8.25347521 C10.7826367,8.25411003 11.0050364,8.39627946 11.1073172,8.61771609 L11.1073172,8.61771609 L13.3166215,13.4624271 L15.5367938,10.4528105 C15.6729083,10.2681282 15.9002713,10.1729702 16.1282769,10.2052577 C16.3562824,10.2375452 16.5478723,10.3920304 16.6266965,10.6071498 L16.6266965,10.6071498 L17.253934,12.3203162 L20.5158794,12.3203162 C20.8605782,12.3203162 21.1400464,12.5980984 21.1400464,12.9407602 C21.1412593,13.1058307 21.0759535,13.2645224 20.9586798,13.3813931 C20.8414061,13.4982637 20.6819338,13.5635777 20.5158794,13.5627476 L20.5158794,13.5627476 L16.8161098,13.5627476 C16.5552784,13.5627476 16.3192881,13.3976046 16.2292391,13.1537485 L16.2292391,13.1537485 L15.8535176,12.1243052 L13.6907904,15.0536654 C13.5585295,15.229432 13.3430428,15.32312 13.1234293,15.3003392 C12.9038157,15.2775585 12.7124278,15.1416649 12.6195185,14.9425411 L12.6195185,14.9425411 L10.3884782,10.0530717 L8.77070236,12.0733733 C8.65255966,12.221028 8.47298378,12.3068743 8.283196,12.3064256 L8.283196,12.3064256 L4.53529681,12.3064256 C4.19059803,12.3064256 3.91116447,12.0286434 3.91116447,11.6859816 C3.91116447,11.3433198 4.19059803,11.0655376 4.53529681,11.0655376 L4.53529681,11.0655376 L7.9819978,11.0655376 L10.0500184,8.48807106 C10.1678502,8.33983763 10.3474734,8.25340009 10.5375248,8.25347521 Z" id="形状结合" fill="#7BC3F5"></path>
                                    <path d="M11.6470588,0 C18.0795518,0 23.2941176,5.21456586 23.2941176,11.6470588 C23.2941176,18.0795518 18.0795518,23.2941176 11.6470588,23.2941176 C5.21456586,23.2941176 0,18.0795518 0,11.6470588 C0,5.21456586 5.21456586,0 11.6470588,0 Z M11.6470588,1.30588235 C5.73966732,1.30588235 1.30588235,5.73966732 1.30588235,11.6470588 C1.30588235,17.5544503 5.73966732,21.9882353 11.6470588,21.9882353 C17.5544503,21.9882353 21.9882353,17.5544503 21.9882353,11.6470588 C21.9882353,5.73966732 17.5544503,1.30588235 11.6470588,1.30588235 Z M9.47870123,8.25347521 C9.72381313,8.25411003 9.94621291,8.39627946 10.0484937,8.61771609 L10.0484937,8.61771609 L12.257798,13.4624271 L14.4779702,10.4528105 C14.6140848,10.2681282 14.8414478,10.1729702 15.0694534,10.2052577 C15.2974589,10.2375452 15.4890488,10.3920304 15.567873,10.6071498 L15.567873,10.6071498 L16.1951105,12.3203162 L19.4570559,12.3203162 C19.8017546,12.3203162 20.0812228,12.5980984 20.0812228,12.9407602 C20.0824357,13.1058307 20.01713,13.2645224 19.8998562,13.3813931 C19.7825825,13.4982637 19.6231103,13.5635777 19.4570559,13.5627476 L19.4570559,13.5627476 L15.7572863,13.5627476 C15.4964549,13.5627476 15.2604645,13.3976046 15.1704156,13.1537485 L15.1704156,13.1537485 L14.7946941,12.1243052 L12.6319669,15.0536654 C12.4997059,15.229432 12.2842193,15.32312 12.0646058,15.3003392 C11.8449922,15.2775585 11.6536043,15.1416649 11.5606949,14.9425411 L11.5606949,14.9425411 L9.3296547,10.0530717 L7.71187883,12.0733733 C7.59373613,12.221028 7.41416025,12.3068743 7.22437247,12.3064256 L7.22437247,12.3064256 L3.47647328,12.3064256 C3.1317745,12.3064256 2.85234094,12.0286434 2.85234094,11.6859816 C2.85234094,11.3433198 3.1317745,11.0655376 3.47647328,11.0655376 L3.47647328,11.0655376 L6.92317427,11.0655376 L8.99119487,8.48807106 C9.10902668,8.33983763 9.28864992,8.25340009 9.47870123,8.25347521 Z" id="形状结合" fill="url(#linearGradient-3)"></path>
                                </g>
                            </g>
                        </g>
                    </g>
                </g>
            </g>
        </g>
    </g>
</svg>