<?xml version="1.0" encoding="UTF-8"?>
<svg width="68px" height="69px" viewBox="0 0 68 69" version="1.1" xmlns="http://www.w3.org/2000/svg" xmlns:xlink="http://www.w3.org/1999/xlink">
    <title>切片</title>
    <defs>
        <linearGradient x1="50%" y1="0%" x2="50%" y2="100%" id="linearGradient-1">
            <stop stop-color="#E1E8F5" offset="0%"></stop>
            <stop stop-color="#0EA944" offset="100%"></stop>
        </linearGradient>
        <ellipse id="path-2" cx="34.2739927" cy="12.5337838" rx="27.1335775" ry="12.5337838"></ellipse>
        <linearGradient x1="27.3148592%" y1="0%" x2="63.3550457%" y2="89.1015772%" id="linearGradient-3">
            <stop stop-color="#BFA4FF" offset="0%"></stop>
            <stop stop-color="#6731EB" offset="100%"></stop>
        </linearGradient>
    </defs>
    <g id="页面-1" stroke="none" stroke-width="1" fill="none" fill-rule="evenodd">
        <g id="icon说明" transform="translate(-531.000000, -118.000000)">
            <g id="icon/68/电量-充备份-7" transform="translate(531.000000, 118.800000)">
                <rect id="矩形" x="0" y="0" width="68" height="68"></rect>
                <g id="编组-4" transform="translate(0.000000, 32.189189)">
                    <ellipse id="椭圆形备份-2" fill-opacity="0.117046863" fill="#4835E9" opacity="0.600000024" cx="34" cy="19.6959459" rx="34" ry="16.1148649"></ellipse>
                    <path d="M34.2739927,4.2972973 C46.2799915,4.2972973 56.4647449,7.89927034 60.0400755,12.8914188 L61.4075702,12.8918919 L61.4075702,17.1891892 L61.3967341,17.1887646 C60.9868462,23.945576 49.0004817,29.3648649 34.2739927,29.3648649 C19.5475036,29.3648649 7.56113917,23.945576 7.15125127,17.1887646 L7.14041514,17.1891892 L7.14041514,12.8918919 L8.50790985,12.8914188 C12.0832404,7.89927034 22.2679939,4.2972973 34.2739927,4.2972973 Z" id="形状结合" fill="#907EF9"></path>
                    <g id="椭圆形">
                        <use fill="url(#linearGradient-1)" xlink:href="#path-2"></use>
                        <use fill="#CECFF8" xlink:href="#path-2"></use>
                    </g>
                    <ellipse id="椭圆形" fill="#B9AEEF" cx="40.6344322" cy="12.8918919" rx="18" ry="1.43243243"></ellipse>
                </g>
                <g id="编组-2" transform="translate(20.000000, 20.000000)" fill-rule="nonzero">
                    <path d="M23.7802215,20.6933388 C24.0142203,20.9270751 24.0142203,21.2960094 23.7732016,21.5440456 C23.5464827,21.7640021 23.1775446,21.7640021 22.9362658,21.5297458 L19.2627446,17.8638027 C19.0360257,17.6300663 19.0360257,17.2611321 19.2770445,17.0201158 C19.5040234,16.7931393 19.8870014,16.7931393 20.1280201,17.0201158 L23.7802215,20.6933388 Z M22.1562698,0 C22.5392479,0 22.9295059,0.0283395589 23.3122239,0.120378136 C23.7165218,0.191357039 24.0852,0.311995159 24.4398382,0.460972838 C24.9361756,0.673649536 25.1774544,1.26228039 24.9574955,1.77291248 C24.9084032,1.88850747 24.8387188,1.99422229 24.7518366,2.08490764 C23.9929004,2.84357585 23.2342243,3.5954842 22.4823081,4.35415241 L22.6099675,4.80810535 L22.7235869,5.26907821 L23.1915845,5.39673621 L23.6455422,5.51737435 C24.3971984,4.75870614 25.1561345,4.01381769 25.9148106,3.24786957 C26.2980487,2.85787563 26.9360854,2.85787563 27.3331034,3.24786957 C27.4467228,3.36850769 27.5317424,3.5174854 27.5743822,3.67348297 C27.7103821,3.99776328 27.812582,4.33520245 27.8793606,4.68044733 L27.8793606,4.69474711 L27.8863806,4.69474711 C27.9571002,5.05640149 28,5.44639545 28,5.85770907 C28,7.45330431 27.3403834,8.9212415 26.2837488,9.98514498 C25.2341341,11.0417686 23.7589016,11.6943584 22.1562698,11.6943584 C22.0426504,11.6943584 21.929291,11.6873385 21.8156716,11.6873386 L20.7093772,12.7793216 L26.7943861,18.8637471 L26.8437859,18.9204263 C27.5862716,19.6863656 28.000943,20.7115615 27.99974,21.7783019 C27.99974,22.8279056 27.602722,23.8845292 26.7941261,24.6858368 L26.7798262,24.7001366 C25.9714903,25.4946842 24.9359156,25.8916981 23.886301,25.8916981 C22.8366863,25.8916981 21.7660118,25.4946842 20.9787358,24.6858368 L14.8796869,18.5941313 L8.66077867,24.8277946 C7.36286531,26.1254344 5.79559329,26.2390527 4.51197984,25.6860412 C4.01564237,25.4803844 3.56896466,25.1683893 3.20002655,24.799455 L3.19300658,24.799455 C2.82432846,24.4237608 2.51935002,23.9838477 2.31369106,23.4945353 C1.76067388,22.2109352 1.8740333,20.6366596 3.17896666,19.3460397 L3.17896666,19.3317399 L10.1146913,12.3960876 L7.57580421,9.85722698 L5.32057573,9.18357744 C5.03423869,9.10255969 4.7997244,8.89670511 4.68227898,8.62328614 L2.51935002,3.55284485 C2.32071103,3.18417058 2.3846707,2.70187805 2.69666911,2.38988289 L3.60432449,1.48925688 L4.49793992,0.595650759 C4.7745785,0.319275044 5.20721629,0.212676697 5.59019434,0.382974062 L10.7246481,2.57422003 C11.0011416,2.68941557 11.2100086,2.92441243 11.2919653,3.21251014 L11.9586019,5.46771511 L14.4974889,8.00657571 L16.3200796,6.19804379 C16.3130596,6.07038577 16.3057796,5.94974765 16.3057797,5.85770907 L16.3127996,5.85770907 C16.3127996,4.23377427 16.9653963,2.76583708 18.0220309,1.71623336 L18.0220309,1.70895347 C19.0784055,0.659609762 20.546618,0 22.1562698,0 Z M19.2910844,14.1973396 L16.2984997,17.1901531 L22.3829887,23.2745787 C22.7872866,23.6858923 23.3473237,23.898569 23.886301,23.898569 C24.4252782,23.898569 24.9715354,23.6858923 25.3758334,23.2815986 L25.3898733,23.2745787 C25.8011912,22.8775648 25.9928102,22.3172735 25.9928102,21.7783019 C25.9928102,21.2533701 25.8011912,20.7216783 25.4182132,20.3244045 L25.3758334,20.2820251 L19.2910844,14.1973396 L19.2910844,14.1973396 Z M11.5186841,10.9918494 L13.0859561,9.43187358 L10.36975,6.70867585 C10.2344958,6.57228346 10.1410398,6.40007722 10.1003913,6.21234355 L9.51175434,4.21947449 L5.42691518,2.49622126 L5.00857732,2.90753485 L4.59023944,3.33288827 L6.32781059,7.41768484 L8.38440008,8.02061548 C8.55469921,8.0702747 8.69639849,8.15529341 8.81001792,8.28295143 L11.5186841,10.9918494 Z M22.0145705,1.99988896 C21.040978,2.03559208 20.117686,2.44139368 19.4330437,3.13451133 C18.7042575,3.85289543 18.2953133,4.83438881 18.2984095,5.85770907 L18.3127094,5.85770907 L18.3127094,6.13434477 L18.3410493,6.36834113 C18.4117689,6.68033629 18.3127094,7.02067101 18.0714307,7.26896715 L4.59023944,20.742998 L4.58321949,20.742998 C3.95922267,21.388308 3.88824303,22.1188966 4.14356173,22.7215673 C4.2499012,22.9553036 4.41318037,23.18956 4.60453938,23.3879369 C4.81019832,23.5865739 5.03717716,23.7425714 5.28547589,23.8489098 C5.88815281,24.1112457 6.61172914,24.0402668 7.24976588,23.4162765 L14.1571506,16.5092237 L14.1854905,16.4808841 L18.5823281,12.0770725 L18.6106679,12.0417131 L20.7239371,9.94250564 L20.7309571,9.94250564 C20.936616,9.71552916 21.2558944,9.60217092 21.5749128,9.65183017 C21.6742323,9.66586994 21.7662718,9.68016973 21.8728713,9.68016973 C21.9435909,9.68718963 22.0429104,9.69446951 22.1565298,9.69446951 C23.2204444,9.69446951 24.1847795,9.26183623 24.8797559,8.5811668 L24.8797559,8.56686701 C25.5393725,7.91453713 25.9577104,6.99961133 25.9933302,5.98536709 C25.5606925,6.42502027 25.1280547,6.85063365 24.6954168,7.29730671 C24.4473781,7.57368242 24.07142,7.68730064 23.688442,7.60228199 L22.6814671,7.32564626 L21.6601923,7.04927057 C21.3195941,6.95697201 21.0432155,6.70867587 20.950916,6.34000157 L20.6815573,5.31873743 L20.4049187,4.29747329 C20.3269192,3.98547813 20.3978988,3.60250407 20.6675174,3.35420793 C21.1136751,2.90051498 21.5606129,2.4538419 22.0145705,1.99988896 Z" id="形状" fill="#CAB4FF"></path>
                    <path d="M21.7802215,20.6933388 C22.0142203,20.9270751 22.0142203,21.2960094 21.7732016,21.5440456 C21.5464827,21.7640021 21.1775446,21.7640021 20.9362658,21.5297458 L17.2627446,17.8638027 C17.0360257,17.6300663 17.0360257,17.2611321 17.2770445,17.0201158 C17.5040234,16.7931393 17.8870014,16.7931393 18.1280201,17.0201158 L21.7802215,20.6933388 Z M20.1562698,0 C20.5392479,0 20.9295059,0.0283395589 21.3122239,0.120378136 C21.7165218,0.191357039 22.0852,0.311995159 22.4398382,0.460972838 C22.9361756,0.673649536 23.1774544,1.26228039 22.9574955,1.77291248 C22.9084032,1.88850747 22.8387188,1.99422229 22.7518366,2.08490764 C21.9929004,2.84357585 21.2342243,3.5954842 20.4823081,4.35415241 L20.6099675,4.80810535 L20.7235869,5.26907821 L21.1915845,5.39673621 L21.6455422,5.51737435 C22.3971984,4.75870614 23.1561345,4.01381769 23.9148106,3.24786957 C24.2980487,2.85787563 24.9360854,2.85787563 25.3331034,3.24786957 C25.4467228,3.36850769 25.5317424,3.5174854 25.5743822,3.67348297 C25.7103821,3.99776328 25.812582,4.33520245 25.8793606,4.68044733 L25.8793606,4.69474711 L25.8863806,4.69474711 C25.9571002,5.05640149 26,5.44639545 26,5.85770907 C26,7.45330431 25.3403834,8.9212415 24.2837488,9.98514498 C23.2341341,11.0417686 21.7589016,11.6943584 20.1562698,11.6943584 C20.0426504,11.6943584 19.929291,11.6873385 19.8156716,11.6873386 L18.7093772,12.7793216 L24.7943861,18.8637471 L24.8437859,18.9204263 C25.5862716,19.6863656 26.000943,20.7115615 25.99974,21.7783019 C25.99974,22.8279056 25.602722,23.8845292 24.7941261,24.6858368 L24.7798262,24.7001366 C23.9714903,25.4946842 22.9359156,25.8916981 21.886301,25.8916981 C20.8366863,25.8916981 19.7660118,25.4946842 18.9787358,24.6858368 L12.8796869,18.5941313 L6.66077867,24.8277946 C5.36286531,26.1254344 3.79559329,26.2390527 2.51197984,25.6860412 C2.01564237,25.4803844 1.56896466,25.1683893 1.20002655,24.799455 L1.19300658,24.799455 C0.824328462,24.4237608 0.519350025,23.9838477 0.313691058,23.4945353 C-0.23932612,22.2109352 -0.125966703,20.6366596 1.17896666,19.3460397 L1.17896666,19.3317399 L8.11469127,12.3960876 L5.57580421,9.85722698 L3.32057573,9.18357744 C3.03423869,9.10255969 2.7997244,8.89670511 2.68227898,8.62328614 L0.519350025,3.55284485 C0.320711031,3.18417058 0.3846707,2.70187805 0.696669111,2.38988289 L1.60432449,1.48925688 L2.49793992,0.595650759 C2.7745785,0.319275044 3.20721629,0.212676697 3.59019434,0.382974062 L8.72464814,2.57422003 C9.00114159,2.68941557 9.21000858,2.92441243 9.29196525,3.21251014 L9.95860186,5.46771511 L12.4974889,8.00657571 L14.3200796,6.19804379 C14.3130596,6.07038577 14.3057796,5.94974765 14.3057797,5.85770907 L14.3127996,5.85770907 C14.3127996,4.23377427 14.9653963,2.76583708 16.0220309,1.71623336 L16.0220309,1.70895347 C17.0784055,0.659609762 18.546618,0 20.1562698,0 Z M17.2910844,14.1973396 L14.2984997,17.1901531 L20.3829887,23.2745787 C20.7872866,23.6858923 21.3473237,23.898569 21.886301,23.898569 C22.4252782,23.898569 22.9715354,23.6858923 23.3758334,23.2815986 L23.3898733,23.2745787 C23.8011912,22.8775648 23.9928102,22.3172735 23.9928102,21.7783019 C23.9928102,21.2533701 23.8011912,20.7216783 23.4182132,20.3244045 L23.3758334,20.2820251 L17.2910844,14.1973396 L17.2910844,14.1973396 Z M9.51868409,10.9918494 L11.0859561,9.43187358 L8.36974995,6.70867585 C8.23449578,6.57228346 8.14103977,6.40007722 8.10039133,6.21234355 L7.51175434,4.21947449 L3.42691518,2.49622126 L3.00857732,2.90753485 L2.59023944,3.33288827 L4.32781059,7.41768484 L6.38440008,8.02061548 C6.55469921,8.0702747 6.69639849,8.15529341 6.81001792,8.28295143 L9.51868409,10.9918494 Z M20.0145705,1.99988896 C19.040978,2.03559208 18.117686,2.44139368 17.4330437,3.13451133 C16.7042575,3.85289543 16.2953133,4.83438881 16.2984095,5.85770907 L16.3127094,5.85770907 L16.3127094,6.13434477 L16.3410493,6.36834113 C16.4117689,6.68033629 16.3127094,7.02067101 16.0714307,7.26896715 L2.59023944,20.742998 L2.58321949,20.742998 C1.95922267,21.388308 1.88824303,22.1188966 2.14356173,22.7215673 C2.2499012,22.9553036 2.41318037,23.18956 2.60453938,23.3879369 C2.81019832,23.5865739 3.03717716,23.7425714 3.28547589,23.8489098 C3.88815281,24.1112457 4.61172914,24.0402668 5.24976588,23.4162765 L12.1571506,16.5092237 L12.1854905,16.4808841 L16.5823281,12.0770725 L16.6106679,12.0417131 L18.7239371,9.94250564 L18.7309571,9.94250564 C18.936616,9.71552916 19.2558944,9.60217092 19.5749128,9.65183017 C19.6742323,9.66586994 19.7662718,9.68016973 19.8728713,9.68016973 C19.9435909,9.68718963 20.0429104,9.69446951 20.1565298,9.69446951 C21.2204444,9.69446951 22.1847795,9.26183623 22.8797559,8.5811668 L22.8797559,8.56686701 C23.5393725,7.91453713 23.9577104,6.99961133 23.9933302,5.98536709 C23.5606925,6.42502027 23.1280547,6.85063365 22.6954168,7.29730671 C22.4473781,7.57368242 22.07142,7.68730064 21.688442,7.60228199 L20.6814671,7.32564626 L19.6601923,7.04927057 C19.3195941,6.95697201 19.0432155,6.70867587 18.950916,6.34000157 L18.6815573,5.31873743 L18.4049187,4.29747329 C18.3269192,3.98547813 18.3978988,3.60250407 18.6675174,3.35420793 C19.1136751,2.90051498 19.5606129,2.4538419 20.0145705,1.99988896 Z" id="形状" fill="url(#linearGradient-3)"></path>
                </g>
            </g>
        </g>
    </g>
</svg>