<?xml version="1.0" encoding="UTF-8"?>
<svg width="68px" height="69px" viewBox="0 0 68 69" version="1.1" xmlns="http://www.w3.org/2000/svg" xmlns:xlink="http://www.w3.org/1999/xlink">
    <title>切片</title>
    <defs>
        <linearGradient x1="50%" y1="0%" x2="50%" y2="100%" id="linearGradient-1">
            <stop stop-color="#E1EBF5" offset="0%"></stop>
            <stop stop-color="#0EA944" offset="100%"></stop>
        </linearGradient>
        <ellipse id="path-2" cx="34.2739927" cy="12.5337838" rx="27.1335775" ry="12.5337838"></ellipse>
        <linearGradient x1="17.6199358%" y1="10.2989489%" x2="83.7557619%" y2="87.4410787%" id="linearGradient-3">
            <stop stop-color="#D1D1D1" offset="0%"></stop>
            <stop stop-color="#909090" offset="100%"></stop>
        </linearGradient>
    </defs>
    <g id="页面-1" stroke="none" stroke-width="1" fill="none" fill-rule="evenodd">
        <g id="icon说明" transform="translate(-651.000000, -118.000000)">
            <g id="icon/68/电量-充备份-6" transform="translate(651.000000, 118.800000)">
                <rect id="矩形" x="0" y="0" width="68" height="68"></rect>
                <g id="编组-4" transform="translate(0.000000, 32.189189)">
                    <ellipse id="椭圆形备份-2" fill-opacity="0.117046863" fill="#8C8C8C" opacity="0.600000024" cx="34" cy="19.6959459" rx="34" ry="16.1148649"></ellipse>
                    <path d="M34.2739927,4.2972973 C46.2799915,4.2972973 56.4647449,7.89927034 60.0400755,12.8914188 L61.4075702,12.8918919 L61.4075702,17.1891892 L61.3967341,17.1887646 C60.9868462,23.945576 49.0004817,29.3648649 34.2739927,29.3648649 C19.5475036,29.3648649 7.56113917,23.945576 7.15125127,17.1887646 L7.14041514,17.1891892 L7.14041514,12.8918919 L8.50790985,12.8914188 C12.0832404,7.89927034 22.2679939,4.2972973 34.2739927,4.2972973 Z" id="形状结合" fill="#9F9F9F"></path>
                    <g id="椭圆形">
                        <use fill="url(#linearGradient-1)" xlink:href="#path-2"></use>
                        <use fill="#DEDEDE" xlink:href="#path-2"></use>
                    </g>
                    <ellipse id="椭圆形" fill="#C7C7C7" cx="39.1344322" cy="12.8918919" rx="14.5" ry="1.43243243"></ellipse>
                </g>
                <g id="编组-3" transform="translate(19.000000, 18.000000)" fill-rule="nonzero">
                    <path d="M9.17902241,10.1775303 L11.0323493,12.0308844 C9.42187963,13.6598389 7.76861191,15.2459163 6.07428,16.7874534 C5.13641824,17.7393271 4.61849455,18.9935607 4.61849455,20.3317832 C4.62373734,22.3709031 5.85400175,24.2070646 7.73787046,24.987431 C9.62173918,25.7677975 11.7900226,25.3394373 13.2356246,23.9013096 L18.0509149,19.0859484 L19.9070413,20.9421022 L15.091751,25.7574634 C13.6537451,27.1952239 11.7024053,28.0011583 9.66895021,27.9971662 L9.67174981,27.999983 C7.63548839,28.0042748 5.68163057,27.1961175 4.24334985,25.7546637 C1.25221672,22.7570248 1.25221672,17.9037419 4.24334985,14.906103 L4.62689332,14.5225539 L4.66608753,14.5225539 C5.3379885,13.9094352 6.90575746,12.4508287 9.17902241,10.1775303 Z M18.7368138,14.9620955 L27.3735409,23.5989497 C27.7504428,23.9734114 27.8638999,24.5384146 27.660777,25.0293532 C27.4576542,25.5202918 26.9781691,25.8399615 26.4468775,25.8386566 C26.0988825,25.8383296 25.7653753,25.6992823 25.5202141,25.4523039 L16.8806873,16.8154497 C16.3689053,16.302887 16.369532,15.4724853 16.8820871,14.9606957 C17.3946423,14.4489061 18.2250317,14.4495328 18.7368138,14.9620955 Z M27.7570844,2.24338286 L27.8522703,2.34136988 C30.7525258,5.35322728 30.7102152,10.1319139 27.7570844,13.0919436 L27.7010926,13.1479362 C27.6814955,13.1619343 25.8813608,14.7605223 22.8214118,17.823316 L22.8214118,17.8261156 L20.9680849,15.9699618 C22.5786013,14.3419628 24.2318684,12.7568194 25.9261542,11.2161925 C27.8709593,9.23962869 27.8597155,6.06507376 25.9009579,4.10233624 L25.8897596,4.08833811 C23.9146418,2.13114579 20.7294255,2.13740121 18.7620101,4.10233624 L13.9467197,8.91769741 L12.0933929,7.06154366 L16.9086832,2.24338286 C19.906278,-0.747794287 24.7594896,-0.747794287 27.7570844,2.24338286 Z M6.67059212,2.81170748 L15.3073192,11.4485617 C15.6838568,11.8226645 15.7974891,12.3869858 15.5950856,12.8776682 C15.3926821,13.3683506 14.9142371,13.6884365 14.3834554,13.6882646 C14.0364314,13.6871978 13.7040683,13.5482076 13.4595915,13.3019158 L4.81726525,4.66506159 C4.48620029,4.33399176 4.3569047,3.85144697 4.47808289,3.39919717 C4.59926107,2.94694737 4.95250318,2.59370007 5.40474633,2.47252011 C5.85698948,2.35134015 6.33952717,2.48063764 6.67059212,2.81170748 Z" id="形状结合" fill="#D5D5D5"></path>
                    <path d="M7.17902241,10.1775303 L9.03234928,12.0308844 C7.42187963,13.6598389 5.76861191,15.2459163 4.07428,16.7874534 C3.13641824,17.7393271 2.61849455,18.9935607 2.61849455,20.3317832 C2.62373734,22.3709031 3.85400175,24.2070646 5.73787046,24.987431 C7.62173918,25.7677975 9.79002263,25.3394373 11.2356246,23.9013096 L16.0509149,19.0859484 L17.9070413,20.9421022 L13.091751,25.7574634 C11.6537451,27.1952239 9.70240529,28.0011583 7.66895021,27.9971662 L7.67174981,27.999983 C5.63548839,28.0042748 3.68163057,27.1961175 2.24334985,25.7546637 C-0.747783284,22.7570248 -0.747783284,17.9037419 2.24334985,14.906103 L2.62689332,14.5225539 L2.66608753,14.5225539 C3.3379885,13.9094352 4.90575746,12.4508287 7.17902241,10.1775303 Z M16.7368138,14.9620955 L25.3735409,23.5989497 C25.7504428,23.9734114 25.8638999,24.5384146 25.660777,25.0293532 C25.4576542,25.5202918 24.9781691,25.8399615 24.4468775,25.8386566 C24.0988825,25.8383296 23.7653753,25.6992823 23.5202141,25.4523039 L14.8806873,16.8154497 C14.3689053,16.302887 14.369532,15.4724853 14.8820871,14.9606957 C15.3946423,14.4489061 16.2250317,14.4495328 16.7368138,14.9620955 Z M25.7570844,2.24338286 L25.8522703,2.34136988 C28.7525258,5.35322728 28.7102152,10.1319139 25.7570844,13.0919436 L25.7010926,13.1479362 C25.6814955,13.1619343 23.8813608,14.7605223 20.8214118,17.823316 L20.8214118,17.8261156 L18.9680849,15.9699618 C20.5786013,14.3419628 22.2318684,12.7568194 23.9261542,11.2161925 C25.8709593,9.23962869 25.8597155,6.06507376 23.9009579,4.10233624 L23.8897596,4.08833811 C21.9146418,2.13114579 18.7294255,2.13740121 16.7620101,4.10233624 L11.9467197,8.91769741 L10.0933929,7.06154366 L14.9086832,2.24338286 C17.906278,-0.747794287 22.7594896,-0.747794287 25.7570844,2.24338286 Z M4.67059212,2.81170748 L13.3073192,11.4485617 C13.6838568,11.8226645 13.7974891,12.3869858 13.5950856,12.8776682 C13.3926821,13.3683506 12.9142371,13.6884365 12.3834554,13.6882646 C12.0364314,13.6871978 11.7040683,13.5482076 11.4595915,13.3019158 L2.81726525,4.66506159 C2.48620029,4.33399176 2.3569047,3.85144697 2.47808289,3.39919717 C2.59926107,2.94694737 2.95250318,2.59370007 3.40474633,2.47252011 C3.85698948,2.35134015 4.33952717,2.48063764 4.67059212,2.81170748 Z" id="形状结合" fill="url(#linearGradient-3)"></path>
                </g>
            </g>
        </g>
    </g>
</svg>