<?xml version="1.0" encoding="UTF-8"?>
<svg width="68px" height="68px" viewBox="0 0 68 68" version="1.1" xmlns="http://www.w3.org/2000/svg" xmlns:xlink="http://www.w3.org/1999/xlink">
    <title>切片</title>
    <defs>
        <linearGradient x1="50%" y1="0%" x2="50%" y2="100%" id="linearGradient-1">
            <stop stop-color="#E1EBF5" offset="0%"></stop>
            <stop stop-color="#0EA944" offset="100%"></stop>
        </linearGradient>
        <ellipse id="path-2" cx="34.2739927" cy="12.5337838" rx="27.1335775" ry="12.5337838"></ellipse>
        <linearGradient x1="14.7761266%" y1="0%" x2="62.9480274%" y2="87.4410787%" id="linearGradient-3">
            <stop stop-color="#C5EAD2" offset="0%"></stop>
            <stop stop-color="#0EA944" offset="100%"></stop>
        </linearGradient>
    </defs>
    <g id="页面-1" stroke="none" stroke-width="1" fill="none" fill-rule="evenodd">
        <g id="icon说明" transform="translate(-51.000000, -119.000000)">
            <g id="icon/68/电量-充备份-2" transform="translate(51.000000, 119.000000)">
                <rect id="矩形" x="0" y="0" width="68" height="68"></rect>
                <g id="编组-4" transform="translate(0.000000, 31.719627)">
                    <ellipse id="椭圆形备份-2" fill-opacity="0.399622137" fill="#CEF8DD" cx="34" cy="19.6959459" rx="34" ry="16.1148649"></ellipse>
                    <path d="M34.2739927,4.2972973 C46.2799915,4.2972973 56.4647449,7.89927034 60.0400755,12.8914188 L61.4075702,12.8918919 L61.4075702,17.1891892 L61.3967341,17.1887646 C60.9868462,23.945576 49.0004817,29.3648649 34.2739927,29.3648649 C19.5475036,29.3648649 7.56113917,23.945576 7.15125127,17.1887646 L7.14041514,17.1891892 L7.14041514,12.8918919 L8.50790985,12.8914188 C12.0832404,7.89927034 22.2679939,4.2972973 34.2739927,4.2972973 Z" id="形状结合" fill="#B9F6CF"></path>
                    <g id="椭圆形">
                        <use fill="url(#linearGradient-1)" xlink:href="#path-2"></use>
                        <use fill="#CEF8DD" xlink:href="#path-2"></use>
                    </g>
                    <ellipse id="椭圆形" fill="#ACEBC3" cx="42.0676435" cy="12.8918919" rx="13.5667888" ry="1.43243243"></ellipse>
                </g>
                <g id="编组" transform="translate(24.109342, 14.000000)" fill-rule="nonzero">
                    <path d="M4.07983173,15.7787962 L13.0644647,3.52865398 L12.0034316,15.4498573 L18.5088508,15.4498573 C18.5204505,15.4798414 18.536013,15.5737038 18.4270977,15.7144894 L9.5744647,27.973654 L10.4862959,16.0435046 L3.99807862,16.0435046 L3.99077232,16.0197597 C3.98475404,15.9808969 3.98896937,15.8961257 4.07983173,15.7787962 Z M18.5088508,12.9498573 L14.7354647,12.949654 L15.6668498,2.47790148 C16.0028017,-0.055680067 12.9879852,-0.91034506 11.7020922,1.16726301 L1.98566416,14.408371 C0.809469054,16.1218402 1.88551108,18.5435046 3.99807862,18.5435046 L7.7874647,18.542654 L6.98398635,29.0845961 C6.65526797,31.5490595 9.67020805,32.4036583 10.9560019,30.3259668 L20.5263625,17.0779105 C21.6974635,15.3714446 20.6214106,12.9498573 18.5088508,12.9498573 Z" id="路径" fill="#96ECB5"></path>
                    <path d="M2.57917386,15.7787962 L11.5638068,3.52865398 L10.5027737,15.4498573 L17.0081929,15.4498573 C17.0197926,15.4798414 17.0353551,15.5737038 16.9264398,15.7144894 L8.07380683,27.973654 L8.985638,16.0435046 L2.49742075,16.0435046 L2.49011445,16.0197597 C2.48409617,15.9808969 2.4883115,15.8961257 2.57917386,15.7787962 Z M17.0081929,12.9498573 L13.2348068,12.949654 L14.1661919,2.47790148 C14.5021439,-0.055680067 11.4873273,-0.91034506 10.2014344,1.16726301 L0.485006287,14.408371 C-0.691188817,16.1218402 0.384853213,18.5435046 2.49742075,18.5435046 L6.28680683,18.542654 L5.48332848,29.0845961 C5.1546101,31.5490595 8.16955018,32.4036583 9.45534405,30.3259668 L19.0257046,17.0779105 C20.1968056,15.3714446 19.1207528,12.9498573 17.0081929,12.9498573 Z" id="路径" fill="url(#linearGradient-3)"></path>
                </g>
            </g>
        </g>
    </g>
</svg>