<?xml version="1.0" encoding="UTF-8"?>
<svg width="68px" height="69px" viewBox="0 0 68 69" version="1.1" xmlns="http://www.w3.org/2000/svg" xmlns:xlink="http://www.w3.org/1999/xlink">
    <title>切片</title>
    <defs>
        <linearGradient x1="50%" y1="0%" x2="50%" y2="100%" id="linearGradient-1">
            <stop stop-color="#E1EBF5" offset="0%"></stop>
            <stop stop-color="#0EA944" offset="100%"></stop>
        </linearGradient>
        <ellipse id="path-2" cx="34.2739927" cy="12.5337838" rx="27.1335775" ry="12.5337838"></ellipse>
        <linearGradient x1="22.3200888%" y1="46.337893%" x2="83.7589747%" y2="100%" id="linearGradient-3">
            <stop stop-color="#EE916D" offset="0%"></stop>
            <stop stop-color="#EB6531" offset="100%"></stop>
        </linearGradient>
        <linearGradient x1="22.3200888%" y1="46.337893%" x2="83.7589747%" y2="100%" id="linearGradient-4">
            <stop stop-color="#FFC5AF" offset="0%"></stop>
            <stop stop-color="#FFC5AF" offset="100%"></stop>
        </linearGradient>
        <linearGradient x1="48.7025082%" y1="46.337893%" x2="51.582447%" y2="100%" id="linearGradient-5">
            <stop stop-color="#EE916D" offset="0%"></stop>
            <stop stop-color="#EB6531" offset="100%"></stop>
        </linearGradient>
        <linearGradient x1="48.7025082%" y1="46.337893%" x2="51.582447%" y2="100%" id="linearGradient-6">
            <stop stop-color="#FFC5AF" offset="0%"></stop>
            <stop stop-color="#FFC5AF" offset="100%"></stop>
        </linearGradient>
        <linearGradient x1="27.2482822%" y1="46.337893%" x2="77.7484512%" y2="100%" id="linearGradient-7">
            <stop stop-color="#EE916D" offset="0%"></stop>
            <stop stop-color="#EB6531" offset="100%"></stop>
        </linearGradient>
        <linearGradient x1="27.2482822%" y1="46.337893%" x2="77.7484512%" y2="100%" id="linearGradient-8">
            <stop stop-color="#FFC5AF" offset="0%"></stop>
            <stop stop-color="#FFC5AF" offset="100%"></stop>
        </linearGradient>
    </defs>
    <g id="页面-1" stroke="none" stroke-width="1" fill="none" fill-rule="evenodd">
        <g id="icon说明" transform="translate(-411.000000, -118.000000)">
            <g id="icon/68/电量-充备份-5" transform="translate(411.000000, 118.800000)">
                <rect id="矩形" x="0" y="0" width="68" height="68"></rect>
                <g id="编组-26" transform="translate(0.000000, 15.000000)">
                    <g id="编组-4" transform="translate(0.000000, 17.189189)">
                        <ellipse id="椭圆形备份-2" fill-opacity="0.117046863" fill="#E96735" opacity="0.600000024" cx="34" cy="19.6959459" rx="34" ry="16.1148649"></ellipse>
                        <path d="M34.2739927,4.2972973 C46.2799915,4.2972973 56.4647449,7.89927034 60.0400755,12.8914188 L61.4075702,12.8918919 L61.4075702,17.1891892 L61.3967341,17.1887646 C60.9868462,23.945576 49.0004817,29.3648649 34.2739927,29.3648649 C19.5475036,29.3648649 7.56113917,23.945576 7.15125127,17.1887646 L7.14041514,17.1891892 L7.14041514,12.8918919 L8.50790985,12.8914188 C12.0832404,7.89927034 22.2679939,4.2972973 34.2739927,4.2972973 Z" id="形状结合" fill="#F9A07E"></path>
                        <g id="椭圆形">
                            <use fill="url(#linearGradient-1)" xlink:href="#path-2"></use>
                            <use fill="#F8DECE" xlink:href="#path-2"></use>
                        </g>
                        <ellipse id="椭圆形" fill="#EFC3AE" cx="45.0676435" cy="12.8918919" rx="13.5667888" ry="1.43243243"></ellipse>
                    </g>
                    <g id="编组-33" transform="translate(19.362149, 0.000000)" fill-rule="nonzero">
                        <g id="编组-32" transform="translate(1.428083, 0.000000)">
                            <path d="M11.1359224,4.6331422 L1.09633464,24.7734713 C0.826048109,25.3156908 0.685362796,25.913267 0.685362796,26.519119 C0.685362796,28.6801543 2.43722802,30.4320195 4.5982633,30.4320195 L24.6774388,30.4320195 C25.2832909,30.4320195 25.8808671,30.2913342 26.4230865,30.0210477 C28.3571483,29.0569531 29.1434621,26.7075331 28.1793674,24.7734713 L18.1397797,4.6331422 C17.7606218,3.87251691 17.1441241,3.25601916 16.3834988,2.87686129 C14.449437,1.91276666 12.100017,2.69908041 11.1359224,4.6331422 Z M15.4313273,4.78700419 C15.7770661,4.95934868 16.0572923,5.23957493 16.2296368,5.5853137 L26.2692245,25.7256428 C26.7074494,26.6047618 26.350034,27.67268 25.470915,28.1109048 C25.2244516,28.2337623 24.9528261,28.2977102 24.6774388,28.2977102 L4.5982633,28.2977102 C3.61597454,28.2977102 2.81967216,27.5014078 2.81967216,26.519119 C2.81967216,26.2437317 2.88362003,25.9721062 3.00647755,25.7256428 L13.0460653,5.5853137 C13.4842901,4.7061947 14.5522083,4.34877936 15.4313273,4.78700419 Z" id="三角形" fill="url(#linearGradient-4)"></path>
                            <path d="M14.637851,11.0828819 C15.1879327,11.0828819 15.6408056,11.4990826 15.6987438,12.0337583 L15.7050057,12.1500366 L15.7050057,19.8952982 C15.7050057,20.4846715 15.2272243,20.9624529 14.637851,20.9624529 C14.0877693,20.9624529 13.6348965,20.5462522 13.5769583,20.0115765 L13.5706964,19.8952982 L13.5706964,12.1500366 C13.5706964,11.5606633 14.0484778,11.0828819 14.637851,11.0828819 Z" id="路径-13" fill="url(#linearGradient-6)"></path>
                            <path d="M14.637851,21.8261252 C15.1879327,21.8261252 15.6408056,22.2423259 15.6987438,22.7770016 L15.7050057,22.8932798 L15.7050057,23.1182712 C15.7050057,23.7076445 15.2272243,24.1854259 14.637851,24.1854259 C14.0877693,24.1854259 13.6348965,23.7692252 13.5769583,23.2345495 L13.5706964,23.1182712 L13.5706964,22.8932798 C13.5706964,22.3039066 14.0484778,21.8261252 14.637851,21.8261252 Z" id="路径-13备份" fill="url(#linearGradient-8)"></path>
                        </g>
                        <g id="编组-32备份" transform="translate(0.000000, 0.716216)">
                            <path d="M11.1359224,4.6331422 L1.09633464,24.7734713 C0.826048109,25.3156908 0.685362796,25.913267 0.685362796,26.519119 C0.685362796,28.6801543 2.43722802,30.4320195 4.5982633,30.4320195 L24.6774388,30.4320195 C25.2832909,30.4320195 25.8808671,30.2913342 26.4230865,30.0210477 C28.3571483,29.0569531 29.1434621,26.7075331 28.1793674,24.7734713 L18.1397797,4.6331422 C17.7606218,3.87251691 17.1441241,3.25601916 16.3834988,2.87686129 C14.449437,1.91276666 12.100017,2.69908041 11.1359224,4.6331422 Z M15.4313273,4.78700419 C15.7770661,4.95934868 16.0572923,5.23957493 16.2296368,5.5853137 L26.2692245,25.7256428 C26.7074494,26.6047618 26.350034,27.67268 25.470915,28.1109048 C25.2244516,28.2337623 24.9528261,28.2977102 24.6774388,28.2977102 L4.5982633,28.2977102 C3.61597454,28.2977102 2.81967216,27.5014078 2.81967216,26.519119 C2.81967216,26.2437317 2.88362003,25.9721062 3.00647755,25.7256428 L13.0460653,5.5853137 C13.4842901,4.7061947 14.5522083,4.34877936 15.4313273,4.78700419 Z" id="三角形" fill="url(#linearGradient-3)"></path>
                            <path d="M14.637851,11.0828819 C15.1879327,11.0828819 15.6408056,11.4990826 15.6987438,12.0337583 L15.7050057,12.1500366 L15.7050057,19.8952982 C15.7050057,20.4846715 15.2272243,20.9624529 14.637851,20.9624529 C14.0877693,20.9624529 13.6348965,20.5462522 13.5769583,20.0115765 L13.5706964,19.8952982 L13.5706964,12.1500366 C13.5706964,11.5606633 14.0484778,11.0828819 14.637851,11.0828819 Z" id="路径-13" fill="url(#linearGradient-5)"></path>
                            <path d="M14.637851,21.8261252 C15.1879327,21.8261252 15.6408056,22.2423259 15.6987438,22.7770016 L15.7050057,22.8932798 L15.7050057,23.1182712 C15.7050057,23.7076445 15.2272243,24.1854259 14.637851,24.1854259 C14.0877693,24.1854259 13.6348965,23.7692252 13.5769583,23.2345495 L13.5706964,23.1182712 L13.5706964,22.8932798 C13.5706964,22.3039066 14.0484778,21.8261252 14.637851,21.8261252 Z" id="路径-13备份" fill="url(#linearGradient-7)"></path>
                        </g>
                    </g>
                </g>
            </g>
        </g>
    </g>
</svg>