<?xml version="1.0" encoding="UTF-8"?>
<svg width="68px" height="69px" viewBox="0 0 68 69" version="1.1" xmlns="http://www.w3.org/2000/svg" xmlns:xlink="http://www.w3.org/1999/xlink">
    <title>切片</title>
    <defs>
        <linearGradient x1="17.3810299%" y1="10.7044186%" x2="72.2127862%" y2="90.3364321%" id="linearGradient-1">
            <stop stop-color="#FFCE68" offset="0%"></stop>
            <stop stop-color="#DAB11F" offset="100%"></stop>
        </linearGradient>
    </defs>
    <g id="页面-1" stroke="none" stroke-width="1" fill="none" fill-rule="evenodd">
        <g id="icon说明" transform="translate(-291.000000, -118.000000)">
            <g id="icon/68/电量-充备份-3" transform="translate(291.000000, 118.800000)">
                <rect id="矩形" x="0" y="0" width="68" height="68"></rect>
                <g id="编组-2" transform="translate(0.000000, 14.000000)">
                    <g id="编组-4" transform="translate(0.000000, 17.719627)">
                        <ellipse id="椭圆形备份-2" fill-opacity="0.193724626" fill="#F6DFB7" cx="34" cy="19.6959459" rx="34" ry="16.1148649"></ellipse>
                        <path d="M34.2739927,4.2972973 C46.2799915,4.2972973 56.4647449,7.89927034 60.0400755,12.8914188 L61.4075702,12.8918919 L61.4075702,17.1891892 L61.3967341,17.1887646 C60.9868462,23.945576 49.0004817,29.3648649 34.2739927,29.3648649 C19.5475036,29.3648649 7.56113917,23.945576 7.15125127,17.1887646 L7.14041514,17.1891892 L7.14041514,12.8918919 L8.50790985,12.8914188 C12.0832404,7.89927034 22.2679939,4.2972973 34.2739927,4.2972973 Z" id="形状结合" fill="#F5CF7B"></path>
                        <ellipse id="椭圆形" fill="#F6DDB7" cx="34.2739927" cy="12.5337838" rx="27.1335775" ry="12.5337838"></ellipse>
                        <ellipse id="椭圆形" fill="#ECBF41" cx="42.0676435" cy="12.8918919" rx="13.5667888" ry="1.43243243"></ellipse>
                    </g>
                    <g id="编组" transform="translate(18.000000, 0.000000)" fill-rule="nonzero">
                        <path d="M22.5387333,3.35888414 C22.9417679,2.65273198 23.8344785,2.41073737 24.5326583,2.81837405 C30.3855182,6.23610993 33.2390319,13.203765 31.489855,19.8063237 C29.7406781,26.4088823 23.8249671,31 17.0666667,31 C10.3083662,31 4.39265519,26.4088823 2.64347832,19.8063237 C0.89430145,13.203765 3.74781512,6.23610993 9.600675,2.81837405 C10.2988548,2.41073737 11.1915654,2.65273198 11.5946,3.35888414 C11.9976345,4.06503631 11.758372,4.96794057 11.0601922,5.37557725 C8.77144897,6.71365403 6.98301396,8.77795384 5.97209078,11.2485146 L5.97209078,11.2485146 C3.50847141,17.2577743 6.16279802,24.1617035 11.9913695,26.9105571 C17.8199409,29.6594108 24.7550587,27.2780269 27.7241654,21.5082226 C30.6932722,15.7384184 28.6430707,8.62704437 23.0731412,5.37557725 C22.3749613,4.96794057 22.1356988,4.06503631 22.5387333,3.35888414 Z M17.0689121,0 C17.8749812,0 18.5284292,0.660909648 18.5284292,1.47618302 L18.5284292,1.47618302 L18.5284292,14.4211726 C18.5284292,15.236446 17.8749812,15.8973556 17.0689121,15.8973556 C16.262843,15.8973556 15.6093949,15.236446 15.6093949,14.4211726 L15.6093949,14.4211726 L15.6093949,1.47618302 C15.6093949,0.660909648 16.262843,0 17.0689121,0 Z" id="形状结合" fill="#FFE9B8"></path>
                        <path d="M20.4054,3.35888414 C20.8084346,2.65273198 21.7011452,2.41073737 22.399325,2.81837405 C28.2521849,6.23610993 31.1056986,13.203765 29.3565217,19.8063237 C27.6073448,26.4088823 21.6916338,31 14.9333333,31 C8.17503288,31 2.25932186,26.4088823 0.510144986,19.8063237 C-1.23903188,13.203765 1.61448178,6.23610993 7.46734166,2.81837405 C8.16552149,2.41073737 9.05823212,2.65273198 9.46126665,3.35888414 C9.86430119,4.06503631 9.62503865,4.96794057 8.92685883,5.37557725 C6.63811563,6.71365403 4.84968063,8.77795384 3.83875744,11.2485146 L3.83875744,11.2485146 C1.37513808,17.2577743 4.02946469,24.1617035 9.85803614,26.9105571 C15.6866076,29.6594108 22.6217254,27.2780269 25.5908321,21.5082226 C28.5599388,15.7384184 26.5097374,8.62704437 20.9398078,5.37557725 C20.241628,4.96794057 20.0023655,4.06503631 20.4054,3.35888414 Z M14.9355787,0 C15.7416478,0 16.3950959,0.660909648 16.3950959,1.47618302 L16.3950959,1.47618302 L16.3950959,14.4211726 C16.3950959,15.236446 15.7416478,15.8973556 14.9355787,15.8973556 C14.1295097,15.8973556 13.4760616,15.236446 13.4760616,14.4211726 L13.4760616,14.4211726 L13.4760616,1.47618302 C13.4760616,0.660909648 14.1295097,0 14.9355787,0 Z" id="形状结合" fill="url(#linearGradient-1)"></path>
                    </g>
                </g>
            </g>
        </g>
    </g>
</svg>