<?xml version="1.0" encoding="UTF-8"?>
<svg width="68px" height="69px" viewBox="0 0 68 69" version="1.1" xmlns="http://www.w3.org/2000/svg" xmlns:xlink="http://www.w3.org/1999/xlink">
    <title>切片</title>
    <defs>
        <linearGradient x1="50%" y1="0%" x2="50%" y2="100%" id="linearGradient-1">
            <stop stop-color="#E1EBF5" offset="0%"></stop>
            <stop stop-color="#0EA944" offset="100%"></stop>
        </linearGradient>
        <ellipse id="path-2" cx="34.2739927" cy="44.8560606" rx="27.1335775" ry="12.4621212"></ellipse>
        <linearGradient x1="-41.82933%" y1="0%" x2="83.7557619%" y2="87.4410787%" id="linearGradient-3">
            <stop stop-color="#5FBEFF" offset="0%"></stop>
            <stop stop-color="#006DB8" offset="100%"></stop>
        </linearGradient>
    </defs>
    <g id="页面-1" stroke="none" stroke-width="1" fill="none" fill-rule="evenodd">
        <g id="icon说明" transform="translate(-771.000000, -118.000000)">
            <g id="icon/68/电量-充备份" transform="translate(771.000000, 118.800000)">
                <rect id="矩形" x="0" y="0" width="68" height="68"></rect>
                <ellipse id="椭圆形备份-2" fill-opacity="0.193724626" fill="#B7DCF6" cx="34" cy="51.9772727" rx="34" ry="16.0227273"></ellipse>
                <path d="M34.2739927,36.6666667 C46.2800863,36.6666667 56.4649058,40.2481018 60.0401602,45.2117684 L61.4075702,45.2121212 L61.4075702,49.4848485 L61.3966896,49.4851548 C60.9859797,56.2029948 48.9999494,61.5909091 34.2739927,61.5909091 C19.5480359,61.5909091 7.56200565,56.2029948 7.15129576,49.4851548 L7.14041514,49.4848485 L7.14041514,45.2121212 L8.50782517,45.2117684 C12.0830796,40.2481018 22.2678991,36.6666667 34.2739927,36.6666667 Z" id="形状结合" fill="#7BC3F5"></path>
                <g id="椭圆形">
                    <use fill="url(#linearGradient-1)" xlink:href="#path-2"></use>
                    <use fill="#B7DCF6" xlink:href="#path-2"></use>
                </g>
                <ellipse id="椭圆形" fill="#5FB6F2" cx="40.0355034" cy="48.4023828" rx="13.5667888" ry="1.42424242"></ellipse>
                <path d="M36.1,26.6 L36.1,31.4 L39.3,31.4 L34.5,39.4 L34.5,34.6 L31.3,34.6 L36.1,26.6 Z M50.5,33 C50.5,41.8 43.3,49 34.5,49 C25.7,49 18.5,41.8 18.5,33 C18.5,24.2 25.7,17 34.5,17 L34.5,21.8 C28.26,21.8 23.3,26.76 23.3,33 C23.3,39.24 28.26,44.2 34.5,44.2 C40.74,44.2 45.7,39.24 45.7,33 L50.5,33 Z M48.74,34.6 L47.14,34.6 C46.34,40.84 40.9,45.8 34.5,45.8 C27.46,45.8 21.7,40.04 21.7,33 C21.7,26.44 26.66,21.16 32.9,20.36 L32.9,18.76 C25.7,19.56 20.1,25.64 20.1,33 C20.1,41 26.5,47.4 34.5,47.4 C41.86,47.4 47.94,41.8 48.74,34.6 Z M45.38,30.6 L50.02,29.48 C48.74,23.4 43.94,18.6 37.86,17.32 L36.74,21.96 C41.22,23.08 44.42,26.28 45.38,30.6 L45.38,30.6 Z" id="形状" fill="#7BC3F5" fill-rule="nonzero"></path>
                <path d="M34.6,26.6 L34.6,31.4 L37.8,31.4 L33,39.4 L33,34.6 L29.8,34.6 L34.6,26.6 Z M49,33 C49,41.8 41.8,49 33,49 C24.2,49 17,41.8 17,33 C17,24.2 24.2,17 33,17 L33,21.8 C26.76,21.8 21.8,26.76 21.8,33 C21.8,39.24 26.76,44.2 33,44.2 C39.24,44.2 44.2,39.24 44.2,33 L49,33 Z M47.24,34.6 L45.64,34.6 C44.84,40.84 39.4,45.8 33,45.8 C25.96,45.8 20.2,40.04 20.2,33 C20.2,26.44 25.16,21.16 31.4,20.36 L31.4,18.76 C24.2,19.56 18.6,25.64 18.6,33 C18.6,41 25,47.4 33,47.4 C40.36,47.4 46.44,41.8 47.24,34.6 Z M43.88,30.6 L48.52,29.48 C47.24,23.4 42.44,18.6 36.36,17.32 L35.24,21.96 C39.72,23.08 42.92,26.28 43.88,30.6 L43.88,30.6 Z" id="形状" fill="url(#linearGradient-3)" fill-rule="nonzero"></path>
            </g>
        </g>
    </g>
</svg>