<?xml version="1.0" encoding="UTF-8"?>
<svg width="24px" height="24px" viewBox="0 0 24 24" version="1.1" xmlns="http://www.w3.org/2000/svg" xmlns:xlink="http://www.w3.org/1999/xlink">
    <title>切片</title>
    <defs>
        <linearGradient x1="17.2402794%" y1="10.7044186%" x2="72.3086341%" y2="90.3364321%" id="linearGradient-1">
            <stop stop-color="#FFCE68" offset="0%"></stop>
            <stop stop-color="#DAB11F" offset="100%"></stop>
        </linearGradient>
    </defs>
    <g id="页面-1" stroke="none" stroke-width="1" fill="none" fill-rule="evenodd">
        <g id="1实时监控-全部电站浏览1" transform="translate(-450.000000, -99.000000)">
            <g id="编组-20" transform="translate(232.000000, 99.000000)">
                <g id="img/储能箱-蓝" transform="translate(218.000000, 0.000000)">
                    <g id="编组" transform="translate(4.000000, 4.000000)" fill-rule="nonzero">
                        <path d="M12.0743214,1.79553254 C12.2902328,1.41805027 12.7684706,1.2886891 13.1424955,1.50659627 C16.2779562,3.33358872 17.8066242,7.0582338 16.8695652,10.5877122 C15.9325061,14.1171906 12.7633752,16.5714286 9.14285714,16.5714286 C5.52233904,16.5714286 2.35320814,14.1171906 1.4161491,10.5877122 C0.479090062,7.0582338 2.0077581,3.33358872 5.14321875,1.50659627 C5.51724366,1.2886891 5.99548149,1.41805027 6.21139285,1.79553254 C6.42730421,2.1730148 6.29912785,2.6556733 5.92510294,2.87358047 C4.69899052,3.58886575 3.74090034,4.69236242 3.19933435,6.01303085 L3.19933435,6.01303085 C1.87953826,9.22535401 3.30149894,12.9159337 6.42394793,14.385367 C9.54639692,15.8548002 13.2616386,14.5818024 14.8522315,11.4974831 C16.4428244,8.41316373 15.3445022,4.61169192 12.3606113,2.87358047 C11.9865864,2.6556733 11.8584101,2.1730148 12.0743214,1.79553254 Z M9.14406004,0 C9.57588276,0 9.92594424,0.353297324 9.92594424,0.789111658 L9.92594424,0.789111658 L9.92594424,7.70901392 C9.92594424,8.14482825 9.57588276,8.49812558 9.14406004,8.49812558 C8.71223733,8.49812558 8.36217585,8.14482825 8.36217585,7.70901392 L8.36217585,7.70901392 L8.36217585,0.789111658 C8.36217585,0.353297324 8.71223733,0 9.14406004,0 Z" id="形状结合" fill="#FFE9B8"></path>
                        <path d="M10.9314643,1.79553254 C11.1473757,1.41805027 11.6256135,1.2886891 11.9996384,1.50659627 C15.135099,3.33358872 16.6637671,7.0582338 15.726708,10.5877122 C14.789649,14.1171906 11.6205181,16.5714286 8,16.5714286 C4.3794819,16.5714286 1.21035099,14.1171906 0.273291957,10.5877122 C-0.663767081,7.0582338 0.864900956,3.33358872 4.0003616,1.50659627 C4.37438651,1.2886891 4.85262435,1.41805027 5.06853571,1.79553254 C5.28444706,2.1730148 5.15627071,2.6556733 4.7822458,2.87358047 C3.55613337,3.58886575 2.59804319,4.69236242 2.0564772,6.01303085 L2.0564772,6.01303085 C0.736681114,9.22535401 2.1586418,12.9159337 5.28109079,14.385367 C8.40353978,15.8548002 12.1187815,14.5818024 13.7093743,11.4974831 C15.2999672,8.41316373 14.201645,4.61169192 11.2177542,2.87358047 C10.8437293,2.6556733 10.7155529,2.1730148 10.9314643,1.79553254 Z M8.0012029,0 C8.43302562,0 8.7830871,0.353297324 8.7830871,0.789111658 L8.7830871,0.789111658 L8.7830871,7.70901392 C8.7830871,8.14482825 8.43302562,8.49812558 8.0012029,8.49812558 C7.56938018,8.49812558 7.21931871,8.14482825 7.21931871,7.70901392 L7.21931871,7.70901392 L7.21931871,0.789111658 C7.21931871,0.353297324 7.56938018,0 8.0012029,0 Z" id="形状结合" fill="url(#linearGradient-1)"></path>
                    </g>
                    <rect id="矩形" x="0" y="0" width="24" height="24"></rect>
                </g>
            </g>
        </g>
    </g>
</svg>