<?xml version="1.0" encoding="UTF-8"?>
<svg width="24px" height="24px" viewBox="0 0 24 24" version="1.1" xmlns="http://www.w3.org/2000/svg" xmlns:xlink="http://www.w3.org/1999/xlink">
    <title>切片</title>
    <g id="页面-1" stroke="none" stroke-width="1" fill="none" fill-rule="evenodd">
        <g id="3实施监控-电站概览-1" transform="translate(-1551.000000, -98.000000)">
            <g id="编组" transform="translate(232.000000, 98.000000)">
                <g id="编组-15" transform="translate(637.000000, 0.000000)">
                    <g id="icon/24/排版" transform="translate(682.000000, 0.000000)">
                        <path d="M9.68022615,4 C10.5183698,4 11.1978327,4.6794629 11.1978327,5.5176066 L11.1978327,18.4823934 C11.1978327,19.3205371 10.5183698,20 9.68022615,20 L5.5176066,20 C4.6794629,20 4,19.3205371 4,18.4823934 L4,5.5176066 C4,4.6794629 4.6794629,4 5.5176066,4 L9.68022615,4 Z M18.4823934,12.7588033 C19.3205371,12.7588033 20,13.4382662 20,14.2764287 L20,18.4823934 C20,19.3205371 19.3205371,20 18.4823934,20 L14.3197739,20 C13.4816302,20 12.8021673,19.3205371 12.8021673,18.4823934 L12.8021673,14.2764099 C12.8021673,13.4382662 13.4816302,12.7588033 14.3197739,12.7588033 L18.4823934,12.7588033 L18.4823934,12.7588033 Z M9.68022615,5.12736867 L5.5176066,5.12736867 C5.30593168,5.12736867 5.13362544,5.29590577 5.12753828,5.50611072 L5.12736867,5.5176066 L5.12736867,18.4823934 C5.12736867,18.6940683 5.29590577,18.8663746 5.50611072,18.8724617 L5.5176066,18.8726313 L9.68022615,18.8726313 C9.89190106,18.8726313 10.0642073,18.7040942 10.0702945,18.4938893 L10.0704641,18.4823934 L10.0704641,5.5176066 C10.0704641,5.30593168 9.90192697,5.13362544 9.69172203,5.12753828 L9.68022615,5.12736867 Z M18.4823934,13.886172 L14.3197739,13.886172 C14.1080989,13.886172 13.9357927,14.0547091 13.9297055,14.264914 L13.9295359,14.2764099 L13.9295359,18.4823934 C13.9295359,18.6940683 14.098073,18.8663746 14.308278,18.8724617 L14.3197739,18.8726313 L18.4823934,18.8726313 C18.6940683,18.8726313 18.8663746,18.7040942 18.8724617,18.4938893 L18.8726313,18.4823934 L18.8726313,14.2764099 C18.8726313,14.0647538 18.7040942,13.8924287 18.4938893,13.8863416 L18.4823934,13.886172 L18.4823934,13.886172 Z M18.4823934,4 C19.3205371,4 20,4.6794629 20,5.5176066 L20,9.72359011 C20,10.5617338 19.3205371,11.2411967 18.4823934,11.2411967 L14.3197739,11.2411967 C13.4816302,11.2411967 12.8021673,10.5617338 12.8021673,9.72357126 L12.8021673,5.5176066 C12.8021673,4.6794629 13.4816302,4 14.3197739,4 L18.4823934,4 Z M18.4823934,5.12736867 L14.3197739,5.12736867 C14.1080989,5.12736867 13.9357927,5.29590577 13.9297055,5.50611072 L13.9295359,5.5176066 L13.9295359,9.72359011 C13.9295359,9.93524617 14.098073,10.1075713 14.308278,10.1136584 L14.3197739,10.113828 L18.4823934,10.113828 C18.6940683,10.113828 18.8663746,9.94529093 18.8724617,9.73508598 L18.8726313,9.72359011 L18.8726313,5.5176066 C18.8726313,5.30593168 18.7040942,5.13362544 18.4938893,5.12753828 L18.4823934,5.12736867 Z" id="形状" fill="#333333" fill-rule="nonzero"></path>
                        <rect id="矩形" x="0" y="0" width="24" height="24"></rect>
                    </g>
                </g>
            </g>
        </g>
    </g>
</svg>