<?xml version="1.0" encoding="UTF-8"?>
<svg width="24px" height="24px" viewBox="0 0 24 24" version="1.1" xmlns="http://www.w3.org/2000/svg" xmlns:xlink="http://www.w3.org/1999/xlink">
    <title>切片</title>
    <defs>
        <linearGradient x1="27.3148592%" y1="0%" x2="63.3550457%" y2="89.1015772%" id="linearGradient-1">
            <stop stop-color="#BFA4FF" offset="0%"></stop>
            <stop stop-color="#6731EB" offset="100%"></stop>
        </linearGradient>
    </defs>
    <g id="页面-1" stroke="none" stroke-width="1" fill="none" fill-rule="evenodd">
        <g id="1实时监控-全部电站浏览1" transform="translate(-668.000000, -99.000000)">
            <g id="编组-20" transform="translate(232.000000, 99.000000)">
                <g id="img/储能箱-蓝" transform="translate(436.000000, 0.000000)">
                    <g id="编组-2" transform="translate(4.571429, 4.571429)" fill-rule="nonzero">
                        <path d="M13.588698,11.824765 C13.7224116,11.9583286 13.7224116,12.1691482 13.5846866,12.3108832 C13.455133,12.4365726 13.2443112,12.4365726 13.1064376,12.3027119 L11.0072826,10.2078873 C10.877729,10.0743236 10.877729,9.86350403 11.015454,9.72578044 C11.1451562,9.5960796 11.3640008,9.5960796 11.5017258,9.72578044 L13.588698,11.824765 Z M12.6607256,0 C12.8795702,0 13.1025748,0.0161940337 13.3212708,0.0687875062 C13.5522982,0.109346879 13.7629714,0.178282948 13.9656218,0.263413051 C14.2492432,0.384942592 14.3871168,0.721303083 14.261426,1.01309284 C14.2333733,1.07914712 14.1935536,1.13955559 14.1439066,1.19137579 C13.7102288,1.62490048 13.2766996,2.0545624 12.8470332,2.48808709 L12.9199814,2.74748877 L12.9849068,3.01090184 L13.252334,3.08384926 L13.5117384,3.15278535 C13.9412562,2.71926065 14.374934,2.29361011 14.8084632,1.85592547 C15.0274564,1.63307179 15.3920488,1.63307179 15.6189162,1.85592547 C15.6838416,1.92486154 15.7324242,2.00999165 15.7567898,2.09913313 C15.8345041,2.28443616 15.892904,2.47725854 15.9310632,2.67454133 L15.9310632,2.68271264 L15.9350746,2.68271264 C15.9754858,2.88937228 16,3.11222597 16,3.34726233 C16,4.25903103 15.6230762,5.09785229 15.019285,5.70579713 C14.4195052,6.30958205 13.5765152,6.68249054 12.6607256,6.68249054 C12.5958002,6.68249054 12.5310234,6.67847917 12.466098,6.67847918 L11.8339298,7.30246949 L15.3110778,10.7792841 L15.3393062,10.8116722 C15.7635838,11.2493518 16.0005389,11.835178 15.9998514,12.444744 C15.9998514,13.0445175 15.772984,13.6483024 15.3109292,14.1061924 L15.3027578,14.1143637 C14.8408516,14.568391 14.2490946,14.795256 13.6493148,14.795256 C13.0495351,14.795256 12.437721,14.568391 11.987849,14.1061924 L8.50267825,10.6252179 L4.94901638,14.1873112 C4.2073516,14.9288197 3.3117676,14.9937444 2.57827419,14.6777378 C2.29465278,14.5602197 2.03940838,14.3819367 1.8285866,14.1711172 L1.82457519,14.1711172 C1.61390198,13.9564348 1.43962859,13.7050558 1.32210918,13.4254487 C1.00609936,12.691963 1.07087617,11.7923769 1.81655238,11.0548798 L1.81655238,11.0467085 L5.77982358,7.0834786 L4.32903098,5.63270113 L3.04032899,5.24775854 C2.87670782,5.20146268 2.74269966,5.08383149 2.67558799,4.92759208 L1.43962859,2.03019706 C1.32612059,1.81952604 1.36266897,1.54393032 1.54095378,1.36564737 L2.05961399,0.85100393 L2.57025138,0.340371862 C2.72833057,0.182442882 2.97555216,0.121529541 3.19439677,0.218842321 L6.12837037,1.47098288 C6.28636662,1.5368089 6.40571919,1.67109282 6.45255157,1.83572008 L6.83348678,3.12440863 L8.28427937,4.57518612 L9.32575976,3.54173931 C9.32174835,3.46879187 9.31758837,3.3998558 9.31758839,3.34726233 L9.32159978,3.34726233 C9.32159978,2.41929959 9.69451216,1.58047833 10.2983034,0.980704777 L10.2983034,0.976544842 C10.901946,0.376919864 11.7409246,0 12.6607256,0 Z M11.0234768,8.11276548 L9.31342841,9.82294464 L12.7902792,13.2997592 C13.0213066,13.5347956 13.3413279,13.6563251 13.6493148,13.6563251 C13.9573018,13.6563251 14.2694488,13.5347956 14.5004762,13.3037706 L14.508499,13.2997592 C14.7435378,13.0728942 14.8530344,12.7527277 14.8530344,12.444744 C14.8530344,12.1447829 14.7435378,11.840959 14.5246932,11.6139454 L14.5004762,11.5897287 L11.0234768,8.11276548 L11.0234768,8.11276548 Z M6.58210519,6.28105677 L7.4776892,5.38964205 L5.9255714,3.83352905 C5.8482833,3.75559055 5.79487987,3.65718698 5.77165219,3.5499106 L5.43528819,2.41112828 L3.10109439,1.42641215 L2.86204418,1.66144849 L2.62299397,1.90450758 L3.61589177,4.23867705 L4.79108576,4.58320885 C4.88839955,4.61158554 4.96937056,4.66016766 5.03429595,4.7331151 L6.58210519,6.28105677 Z M12.5797546,1.14279369 C12.023416,1.16319547 11.4958206,1.3950821 11.1045964,1.79114933 C10.6881472,2.20165453 10.4544647,2.76250789 10.456234,3.34726233 L10.4644054,3.34726233 L10.4644054,3.50533987 L10.4805996,3.63905207 C10.5210108,3.81733502 10.4644054,4.011812 10.3265318,4.15369551 L2.62299397,11.8531417 L2.61898257,11.8531417 C2.26241296,12.2218903 2.22185316,12.6393695 2.36774956,12.9837527 C2.42851497,13.1173164 2.52181735,13.2511771 2.63116536,13.3645354 C2.74868475,13.4780422 2.87838695,13.5671837 3.02027194,13.6279484 C3.36465875,13.7778547 3.77813093,13.7372953 4.14272336,13.3807294 L8.08980036,9.43384212 L8.10599456,9.41764809 L10.6184732,6.9011843 L10.6346674,6.88097889 L11.8422498,5.68143179 L11.8462612,5.68143179 C11.9637806,5.55173095 12.1462254,5.48695481 12.3285216,5.51533152 C12.3852756,5.52335425 12.4378696,5.53152556 12.4987836,5.53152556 C12.5391948,5.53553693 12.5959488,5.53969686 12.6608742,5.53969686 C13.2688254,5.53969686 13.819874,5.29247785 14.2170034,4.90352388 L14.2170034,4.89535258 C14.5939272,4.52259265 14.8329774,3.9997779 14.8533316,3.42020977 C14.60611,3.67144016 14.3588884,3.9146478 14.1116668,4.16988955 C13.9699303,4.32781853 13.7550972,4.39274322 13.5362526,4.34416114 L12.9608384,4.18608358 L12.3772528,4.02815461 C12.1826252,3.97541258 12.0246946,3.83352907 11.971952,3.62285804 L11.8180328,3.03927853 L11.6599536,2.45569902 C11.6153824,2.27741608 11.6559422,2.05857376 11.8100099,1.91669025 C12.0649572,1.65743713 12.3203502,1.40219537 12.5797546,1.14279369 Z" id="形状" fill="#CAB4FF"></path>
                        <path d="M12.4458409,11.824765 C12.5795545,11.9583286 12.5795545,12.1691482 12.4418295,12.3108832 C12.3122758,12.4365726 12.101454,12.4365726 11.9635805,12.3027119 L9.86442547,10.2078873 C9.73487185,10.0743236 9.73487185,9.86350403 9.87259686,9.72578044 C10.0022991,9.5960796 10.2211437,9.5960796 10.3588687,9.72578044 L12.4458409,11.824765 Z M11.5178685,0 C11.7367131,0 11.9597176,0.0161940337 12.1784137,0.0687875062 C12.4094411,0.109346879 12.6201143,0.178282948 12.8227647,0.263413051 C13.1063861,0.384942592 13.2442596,0.721303083 13.1185689,1.01309284 C13.0905161,1.07914712 13.0506965,1.13955559 13.0010495,1.19137579 C12.5673717,1.62490048 12.1338425,2.0545624 11.7041761,2.48808709 L11.7771243,2.74748877 L11.8420497,3.01090184 L12.1094769,3.08384926 L12.3688813,3.15278535 C12.7983991,2.71926065 13.2320769,2.29361011 13.6656061,1.85592547 C13.8845992,1.63307179 14.2491917,1.63307179 14.4760591,1.85592547 C14.5409845,1.92486154 14.5895671,2.00999165 14.6139327,2.09913313 C14.6916469,2.28443616 14.7500469,2.47725854 14.7882061,2.67454133 L14.7882061,2.68271264 L14.7922175,2.68271264 C14.8326287,2.88937228 14.8571429,3.11222597 14.8571429,3.34726233 C14.8571429,4.25903103 14.4802191,5.09785229 13.8764279,5.70579713 C13.2766481,6.30958205 12.4336581,6.68249054 11.5178685,6.68249054 C11.4529431,6.68249054 11.3881663,6.67847917 11.3232409,6.67847918 L10.6910727,7.30246949 L14.1682206,10.7792841 L14.1964491,10.8116722 C14.6207266,11.2493518 14.8576817,11.835178 14.8569943,12.444744 C14.8569943,13.0445175 14.6301269,13.6483024 14.1680721,14.1061924 L14.1599007,14.1143637 C13.6979945,14.568391 13.1062375,14.795256 12.5064577,14.795256 C11.9066779,14.795256 11.2948639,14.568391 10.8449919,14.1061924 L7.3598211,10.6252179 L3.80615924,14.1873112 C3.06449446,14.9288197 2.16891045,14.9937444 1.43541705,14.6777378 C1.15179564,14.5602197 0.896551234,14.3819367 0.685729459,14.1711172 L0.681718046,14.1711172 C0.471044835,13.9564348 0.296771443,13.7050558 0.179252033,13.4254487 C-0.136757783,12.691963 -0.0719809733,11.7923769 0.673695234,11.0548798 L0.673695234,11.0467085 L4.63696644,7.0834786 L3.18617383,5.63270113 L1.89747185,5.24775854 C1.73385068,5.20146268 1.59984251,5.08383149 1.53273084,4.92759208 L0.296771443,2.03019706 C0.183263446,1.81952604 0.219811829,1.54393032 0.398096635,1.36564737 L0.91675685,0.85100393 L1.42739424,0.340371862 C1.58547343,0.182442882 1.83269502,0.121529541 2.05153962,0.218842321 L4.98551322,1.47098288 C5.14350948,1.5368089 5.26286205,1.67109282 5.30969443,1.83572008 L5.69062964,3.12440863 L7.14142223,4.57518612 L8.18290262,3.54173931 C8.1788912,3.46879187 8.17473123,3.3998558 8.17473124,3.34726233 L8.17874264,3.34726233 C8.17874264,2.41929959 8.55165502,1.58047833 9.15544624,0.980704777 L9.15544624,0.976544842 C9.75908888,0.376919864 10.5980675,0 11.5178685,0 Z M9.88061967,8.11276548 L8.17057126,9.82294464 L11.6474221,13.2997592 C11.8784495,13.5347956 12.1984707,13.6563251 12.5064577,13.6563251 C12.8144447,13.6563251 13.1265917,13.5347956 13.3576191,13.3037706 L13.3656419,13.2997592 C13.6006807,13.0728942 13.7101773,12.7527277 13.7101773,12.444744 C13.7101773,12.1447829 13.6006807,11.840959 13.3818361,11.6139454 L13.3576191,11.5897287 L9.88061967,8.11276548 L9.88061967,8.11276548 Z M5.43924805,6.28105677 L6.33483206,5.38964205 L4.78271426,3.83352905 C4.70542616,3.75559055 4.65202273,3.65718698 4.62879505,3.5499106 L4.29243105,2.41112828 L1.95823724,1.42641215 L1.71918704,1.66144849 L1.48013682,1.90450758 L2.47303462,4.23867705 L3.64822861,4.58320885 C3.74554241,4.61158554 3.82651342,4.66016766 3.89143881,4.7331151 L5.43924805,6.28105677 Z M11.4368974,1.14279369 C10.8805589,1.16319547 10.3529634,1.3950821 9.96173926,1.79114933 C9.54529002,2.20165453 9.3116076,2.76250789 9.31337685,3.34726233 L9.32154824,3.34726233 L9.32154824,3.50533987 L9.33774244,3.63905207 C9.37815366,3.81733502 9.32154824,4.011812 9.18367467,4.15369551 L1.48013682,11.8531417 L1.47612543,11.8531417 C1.11955581,12.2218903 1.07899602,12.6393695 1.22489242,12.9837527 C1.28565783,13.1173164 1.37896021,13.2511771 1.48830821,13.3645354 C1.60582761,13.4780422 1.73552981,13.5671837 1.8774148,13.6279484 C2.2218016,13.7778547 2.63527379,13.7372953 2.99986622,13.3807294 L6.94694322,9.43384212 L6.96313742,9.41764809 L9.47561603,6.9011843 L9.49181024,6.88097889 L10.6993926,5.68143179 L10.703404,5.68143179 C10.8209234,5.55173095 11.0033682,5.48695481 11.1856644,5.51533152 C11.2424184,5.52335425 11.2950125,5.53152556 11.3559264,5.53152556 C11.3963377,5.53553693 11.4530916,5.53969686 11.518017,5.53969686 C12.1259682,5.53969686 12.6770168,5.29247785 13.0741462,4.90352388 L13.0741462,4.89535258 C13.45107,4.52259265 13.6901202,3.9997779 13.7104744,3.42020977 C13.4632528,3.67144016 13.2160312,3.9146478 12.9688096,4.16988955 C12.8270732,4.32781853 12.61224,4.39274322 12.3933954,4.34416114 L11.8179812,4.18608358 L11.2343956,4.02815461 C11.0397681,3.97541258 10.8818374,3.83352907 10.8290948,3.62285804 L10.6751756,3.03927853 L10.5170964,2.45569902 C10.4725252,2.27741608 10.513085,2.05857376 10.6671528,1.91669025 C10.9221001,1.65743713 11.1774931,1.40219537 11.4368974,1.14279369 Z" id="形状" fill="url(#linearGradient-1)"></path>
                    </g>
                    <rect id="矩形" x="0" y="0" width="24" height="24"></rect>
                </g>
            </g>
        </g>
    </g>
</svg>